<svg width="1000" height="680" viewBox="0 0 1000 680" fill="none" xmlns="http://www.w3.org/2000/svg">
<path d="M167.969 211.571H833.794" stroke="#DED8D5" stroke-width="2.624" stroke-miterlimit="10"/>
<path d="M825.099 579.878H176.664C171.862 579.878 167.968 575.984 167.968 571.183V176.619C167.968 171.818 171.862 167.924 176.664 167.924H825.099C829.902 167.924 833.794 171.818 833.794 176.619V571.183C833.794 575.984 829.902 579.878 825.099 579.878Z" stroke="#DED8D5" stroke-width="2.624" stroke-miterlimit="10"/>
<path d="M211.85 190.193C211.85 193.555 209.123 196.283 205.759 196.283C202.395 196.283 199.668 193.555 199.668 190.193C199.668 186.829 202.395 184.102 205.759 184.102C209.123 184.102 211.85 186.829 211.85 190.193Z" fill="#FFB1A5"/>
<path d="M235.519 190.193C235.519 193.555 232.793 196.283 229.429 196.283C226.065 196.283 223.338 193.555 223.338 190.193C223.338 186.829 226.065 184.102 229.429 184.102C232.793 184.102 235.519 186.829 235.519 190.193Z" fill="#EAD254"/>
<path d="M259.189 190.193C259.189 193.555 256.463 196.283 253.099 196.283C249.735 196.283 247.008 193.555 247.008 190.193C247.008 186.829 249.735 184.102 253.099 184.102C256.463 184.102 259.189 186.829 259.189 190.193Z" fill="#00857B"/>
<path d="M920.29 358.582H763.809C759.397 358.582 755.82 355.005 755.82 350.594V205.871C755.82 201.461 759.397 197.885 763.809 197.885H920.29C924.702 197.885 928.278 201.461 928.278 205.871V350.594C928.278 355.005 924.702 358.582 920.29 358.582Z" fill="#EDEDED"/>
<path d="M920.29 358.582H763.809C759.397 358.582 755.82 355.005 755.82 350.594V205.871C755.82 201.461 759.397 197.885 763.809 197.885H920.29C924.702 197.885 928.278 201.461 928.278 205.871V350.594C928.278 355.005 924.702 358.582 920.29 358.582Z" stroke="#DED8D5" stroke-width="2.624" stroke-miterlimit="10"/>
<path d="M801.639 316.779H882.97C887.405 316.779 891.001 313.184 891.001 308.751V242.095C891.001 237.661 887.405 234.067 882.97 234.067H801.639C797.206 234.067 793.611 237.661 793.611 242.095V308.751C793.611 313.184 797.206 316.779 801.639 316.779Z" fill="#2F1847"/>
<path d="M864.521 289.175H826.453H819.578V259.035H864.521V266.57V289.175Z" stroke="white" stroke-width="2.196" stroke-miterlimit="10" stroke-linecap="round" stroke-linejoin="round"/>
<path d="M819.578 259.035L842.05 276.744L864.521 259.035" stroke="white" stroke-width="2.196" stroke-miterlimit="10" stroke-linecap="round" stroke-linejoin="round"/>
<path d="M231.666 479.767H82.4313C78.2233 479.767 74.814 476.355 74.814 472.148V342.036C74.814 337.83 78.2233 334.419 82.4313 334.419H231.666C235.873 334.419 239.283 337.83 239.283 342.036V472.148C239.283 476.355 235.873 479.767 231.666 479.767Z" fill="#EDEDED"/>
<path d="M231.666 479.767H82.4313C78.2233 479.767 74.814 476.355 74.814 472.148V342.036C74.814 337.83 78.2233 334.419 82.4313 334.419H231.666C235.873 334.419 239.283 337.83 239.283 342.036V472.148C239.283 476.355 235.873 479.767 231.666 479.767Z" stroke="#DED8D5" stroke-width="2.624" stroke-miterlimit="10"/>
<path d="M195.361 451.764H117.962C113.073 451.764 109.11 447.8 109.11 442.911V368.164C109.11 363.275 113.073 359.312 117.962 359.312H195.361C200.25 359.312 204.214 363.275 204.214 368.164V442.911C204.214 447.8 200.25 451.764 195.361 451.764Z" fill="#FFB238"/>
<path d="M181.448 404.829H169.889C169.827 401.355 169.375 397.879 168.515 394.405H178.329C180.103 397.515 181.205 401.055 181.448 404.829ZM178.329 418.399H168.204C169.12 414.923 169.672 411.449 169.841 407.973H181.448C181.207 411.748 180.103 415.289 178.329 418.399ZM163.963 429.716C165.281 426.992 166.388 424.268 167.276 421.543H176.193C173.1 425.411 168.848 428.309 163.963 429.716ZM157.241 430.66C156.164 430.66 155.104 430.589 154.064 430.453C152.581 427.483 151.319 424.513 150.304 421.543H164.18C163.164 424.513 161.901 427.483 160.42 430.453C159.38 430.589 158.319 430.66 157.241 430.66ZM138.291 421.543H147.207C148.096 424.267 149.203 426.992 150.521 429.716C145.636 428.309 141.384 425.411 138.291 421.543ZM136.153 418.399C134.38 415.289 133.277 411.748 133.035 407.973H144.643C144.811 411.448 145.364 414.923 146.28 418.399H136.153ZM136.153 394.405H145.969C145.108 397.879 144.657 401.355 144.593 404.829H133.035C133.277 401.055 134.381 397.515 136.153 394.405V394.405ZM150.192 383.185C148.825 385.876 147.719 388.569 146.86 391.26H138.291C141.313 387.48 145.445 384.625 150.192 383.185V383.185ZM157.241 382.143C158.535 382.143 159.803 382.245 161.04 382.439C162.688 385.38 163.979 388.32 164.94 391.26H149.544C150.504 388.32 151.796 385.38 153.443 382.439C154.68 382.245 155.949 382.143 157.241 382.143ZM167.009 407.973C166.773 411.448 166.143 414.923 165.163 418.399H149.321C148.34 414.924 147.711 411.449 147.473 407.973H167.009ZM147.368 404.829C147.372 401.355 147.781 397.879 148.643 394.405H165.841C166.701 397.879 167.112 401.355 167.115 404.829H147.368ZM176.193 391.26H167.624C166.764 388.569 165.657 385.876 164.292 383.185C169.039 384.625 173.171 387.48 176.193 391.26ZM138.228 387.388C127.785 397.831 127.785 414.972 138.228 425.415C148.671 435.857 165.812 435.857 176.255 425.415C186.697 414.972 186.697 397.831 176.255 387.388C165.812 376.945 148.671 376.945 138.228 387.388Z" fill="white"/>
<path d="M222.771 129.91H87.5741C84.7807 129.91 82.5167 127.646 82.5167 124.852C82.5167 122.059 84.7807 119.795 87.5741 119.795H222.771C225.565 119.795 227.829 122.059 227.829 124.852C227.829 127.646 225.565 129.91 222.771 129.91Z" fill="#2F1847"/>
<path d="M925.799 460.155H860.179C857.386 460.155 855.122 457.891 855.122 455.098C855.122 452.304 857.386 450.04 860.179 450.04H925.799C928.593 450.04 930.857 452.304 930.857 455.098C930.857 457.891 928.593 460.155 925.799 460.155Z" fill="#FFF0D9"/>
<path d="M879.841 518.658H871.822C869.716 518.658 868.008 516.95 868.008 514.843V507.315C868.008 505.208 869.716 503.502 871.822 503.502H879.841C881.948 503.502 883.656 505.208 883.656 507.315V514.843C883.656 516.95 881.948 518.658 879.841 518.658Z" fill="#2F1847"/>
<path d="M119.778 553.694H111.759C109.653 553.694 107.945 551.987 107.945 549.881V542.353C107.945 540.246 109.653 538.538 111.759 538.538H119.778C121.885 538.538 123.593 540.246 123.593 542.353V549.881C123.593 551.987 121.885 553.694 119.778 553.694Z" fill="#FFB238"/>
<path d="M733.478 124.686H600.034C597.815 124.686 596.017 122.887 596.017 120.67V88.0885C596.017 85.8711 597.815 84.0738 600.034 84.0738H733.478C735.697 84.0738 737.494 85.8711 737.494 88.0885V120.67C737.494 122.887 735.697 124.686 733.478 124.686Z" fill="#FFB238"/>
<path d="M615.288 98.5437H710.192" stroke="white" stroke-width="1.57333" stroke-miterlimit="10"/>
<path d="M615.288 108.285H653.944" stroke="white" stroke-width="1.57333" stroke-miterlimit="10"/>
<path d="M611.427 120.091V135.919L631.334 120.091H611.427Z" fill="#FFB238"/>
<path d="M405.62 127.102H341.023C334.748 127.102 329.663 122.015 329.663 115.74V55.6845C329.663 50.9285 333.519 47.0725 338.275 47.0725H405.62C410.376 47.0725 414.232 50.9285 414.232 55.6845V118.488C414.232 123.246 410.376 127.102 405.62 127.102Z" fill="#001E89"/>
<path d="M389.706 97.4767C389.362 97.8207 389.018 98.1647 388.674 98.5087C388.071 99.0247 387.556 99.626 386.954 100.227C386.094 101.087 385.148 101.518 383.858 101.518H383.428C380.848 101.346 378.44 100.314 376.72 99.454C371.819 97.046 367.519 93.6927 363.908 89.394C360.984 85.8674 359.007 82.514 357.63 78.9887C356.771 76.9247 356.427 75.29 356.599 73.6567C356.684 72.7114 357.028 71.8514 357.803 71.1634L360.727 68.2394C360.984 67.9807 361.414 67.638 361.93 67.638C362.446 67.638 362.79 67.8954 363.134 68.2394C363.65 68.7554 364.166 69.2714 364.682 69.7874C364.94 70.0447 365.198 70.3887 365.542 70.646L367.95 73.0554C368.207 73.3127 368.551 73.8287 368.551 74.258C368.551 74.7754 368.207 75.2047 367.95 75.462C367.691 75.7207 367.434 75.978 367.176 76.2367C366.402 77.01 365.714 77.698 365.026 78.386L364.94 78.4727C364.08 79.3327 364.252 80.106 364.424 80.622V80.7074C365.026 82.2554 365.972 83.6314 367.262 85.3514C369.67 88.362 372.25 90.6834 375.087 92.4887C375.431 92.7474 375.86 92.9194 376.206 93.09C376.548 93.2634 376.807 93.3487 377.066 93.5207L377.151 93.6074C378.011 94.0367 378.871 93.8647 379.559 93.1767L382.568 90.1674C382.826 89.9087 383.256 89.5647 383.772 89.5647C384.203 89.5647 384.632 89.9087 384.89 90.1674L389.706 94.982C390.48 95.7567 390.48 96.6167 389.706 97.4767ZM391.683 93.0047L386.868 88.19C386.008 87.2434 384.89 86.7274 383.772 86.7274C382.654 86.7274 381.536 87.2434 380.676 88.1034L377.924 90.8554L377.408 90.5967C377.066 90.4247 376.807 90.3394 376.548 90.1674C373.968 88.5327 371.647 86.3834 369.411 83.6314C368.379 82.342 367.606 81.138 367.176 80.106C367.864 79.5047 368.466 78.8154 369.067 78.214C369.326 77.9567 369.583 77.698 369.842 77.4407C370.787 76.494 371.303 75.3767 371.303 74.258C371.303 73.1407 370.787 72.0234 369.842 71.0767L367.434 68.67C367.176 68.4114 366.918 68.1527 366.659 67.81C366.144 67.2927 365.542 66.6914 365.026 66.1754C364.166 65.3154 363.048 64.7994 361.93 64.7994C360.812 64.7994 359.78 65.2287 358.835 66.1754L355.824 69.1847C354.707 70.3034 354.019 71.7647 353.847 73.398C353.675 75.978 354.363 78.386 354.964 79.934C356.34 83.89 358.49 87.4154 361.672 91.1994C365.542 95.7567 370.099 99.3687 375.431 101.949C377.408 102.894 380.16 104.011 383.171 104.27H383.772C385.836 104.27 387.556 103.497 388.931 102.034L389.018 101.949C389.448 101.433 389.963 100.917 390.566 100.401C390.91 100.057 391.34 99.626 391.683 99.282C393.49 97.3914 393.49 94.81 391.683 93.0047" fill="white"/>
<path d="M686.617 430.109L637.948 423.629L638.328 428.463L596.716 434.003C596.716 434.003 569.895 501.296 593.533 649.289H627.383L639.565 499.224H643.892L655.692 649.289H689.54C713.18 501.296 686.617 430.109 686.617 430.109Z" fill="#8E716C"/>
<path d="M624.09 499.224H659.405" stroke="#282828" stroke-width="1.644" stroke-miterlimit="10" stroke-linecap="round" stroke-linejoin="round"/>
<path d="M715.039 359.121C710.875 352.476 687.486 352.709 686.251 352.565C679.928 351.824 690.306 402.14 703.459 446.121C705.982 454.553 715.259 458.945 723.362 455.509C723.45 455.473 723.536 455.434 723.624 455.398C730.035 452.682 733.682 445.877 732.392 439.037C726.136 405.849 719.854 366.806 715.039 359.121Z" fill="#FFB1A5"/>
<path d="M720.613 377.315L690.752 388.902L687.952 374.734L718.873 367.021L720.613 377.315Z" fill="#F3978E"/>
<path d="M726.254 405.66C726.254 405.66 712.107 424.659 712.782 423.785C713.455 422.911 723.875 393.081 723.875 393.081L726.254 405.66Z" fill="#F3978E"/>
<path d="M746.48 380.124L705.931 432.661C700.607 439.558 702.307 449.533 709.616 454.277C716.912 459.013 726.698 456.524 730.842 448.876L764.595 386.602L746.48 380.124Z" fill="#FFB1A5"/>
<path d="M756.975 393.615C748.185 390.775 743.361 381.348 746.201 372.556C749.041 363.765 758.469 358.943 767.259 361.781C776.05 364.621 780.874 374.049 778.034 382.84C775.194 391.632 765.766 396.455 756.975 393.615Z" fill="#FFB1A5"/>
<path d="M774.314 367.643C774.314 367.643 778.891 362.891 770.77 359.561C762.65 356.229 752.61 356.994 746.2 372.557L774.314 367.643Z" fill="#FFB1A5"/>
<path d="M782.725 334.441L799.704 341.803C800.648 342.212 800.992 343.332 800.472 344.303L778.137 386.025C777.616 386.996 776.428 387.453 775.484 387.043L758.505 379.683C757.56 379.272 757.217 378.152 757.737 377.181L780.073 335.46C780.593 334.488 781.781 334.032 782.725 334.441Z" fill="#372F5F"/>
<path d="M781.104 333.703L798.081 341.064C799.027 341.474 799.371 342.594 798.851 343.564L776.515 385.286C775.995 386.258 774.807 386.714 773.861 386.304L756.884 378.943C755.939 378.534 755.595 377.414 756.116 376.442L778.452 334.722C778.971 333.75 780.159 333.294 781.104 333.703Z" fill="#261B43"/>
<path d="M779.189 337.948L794.106 344.416L775.903 378.418L760.986 371.95L779.189 337.948Z" fill="#E6E6E6"/>
<path d="M794.107 344.415L760.985 371.95L779.189 337.947L794.107 344.415Z" fill="white"/>
<path d="M765.896 358.174C765.896 358.174 769.676 358.912 773.088 360.845C774.591 361.697 775.361 363.43 774.944 365.108C774.564 366.637 773.283 367.773 771.72 367.972L762.893 369.085C762.893 369.085 758.288 377.022 752.271 377.913L757.791 363.977L765.896 358.174Z" fill="#FFB1A5"/>
<path d="M653.169 292.961C652.196 292.956 715.764 301.757 726.253 374.234L693.267 379.288L686.617 434.002H594.595L576.325 332.91C576.325 332.91 596.713 303.692 634.568 292.961H653.169Z" fill="#001E89"/>
<path d="M693.267 379.288L696.13 347.644" stroke="#282828" stroke-width="1.644" stroke-miterlimit="10" stroke-linecap="round" stroke-linejoin="round"/>
<path d="M659.211 293.997V268.823H629.71V294.293C628.2 294.744 625.686 295.653 621.784 297.507L644.794 311.213L668.316 297.507C668.316 297.507 664.582 295.335 659.211 293.997" fill="#FFB1A5"/>
<path d="M629.436 271.898C629.436 271.898 634.735 285.966 648.877 284.752C661.877 283.636 659.808 264.139 659.808 264.139L629.436 271.898Z" fill="#282828"/>
<path d="M616.57 253.188C611.945 257.383 601.605 241.474 606.074 237.007C610.542 232.542 613.95 239.548 613.95 239.548L615.945 244.298L617.449 250.728L617.808 252.412L616.57 253.188Z" fill="#F3978E"/>
<path d="M608.233 242.643C608.233 242.643 611.733 241.068 614.842 246.143" stroke="#282828" stroke-width="1.324" stroke-miterlimit="10" stroke-linecap="round" stroke-linejoin="round"/>
<path d="M671.254 252.706C675.506 257.275 687.155 242.298 683.08 237.47C679.006 232.642 675.018 239.336 675.018 239.336L672.628 243.899L670.584 250.18L670.086 251.828L671.254 252.706Z" fill="#F3978E"/>
<path d="M680.453 242.903C680.453 242.903 677.098 241.038 673.57 245.831" stroke="#282828" stroke-width="1.324" stroke-miterlimit="10" stroke-linecap="round" stroke-linejoin="round"/>
<path d="M608.459 221.831C608.459 242.89 624.515 252.877 644.321 252.877C664.127 252.877 680.182 242.89 680.182 221.831C680.182 200.773 664.127 186.446 644.321 186.446C624.515 186.446 608.459 200.773 608.459 221.831Z" fill="#282828"/>
<path d="M613.333 223.296C613.333 236.224 615.16 247.38 616.983 255.297C618.768 263.049 623.792 268.467 630.891 272.828L632.184 273.623C639.695 278.236 649.4 278.344 657.027 273.897C664.717 269.413 670.103 263.502 671.76 255.183C674.775 240.054 675.104 223.296 675.104 223.296C675.104 223.296 677.972 190.66 644.66 191.295C611.347 191.93 613.333 223.296 613.333 223.296Z" fill="#FFB1A5"/>
<path d="M642.198 241.921V246.437C642.198 246.704 642.248 246.961 642.343 247.196C642.714 248.119 643.779 248.561 644.742 248.305L646.812 247.756" stroke="#282828" stroke-width="1.64267" stroke-miterlimit="10" stroke-linecap="round" stroke-linejoin="round"/>
<path d="M636.901 224.409L620.345 228.289C620.345 228.289 621.097 224.075 627.87 222.545C634.644 221.013 636.901 224.409 636.901 224.409Z" fill="#282828"/>
<path d="M651.595 224.409L667.58 228.289C667.58 228.289 666.854 224.075 660.314 222.545C653.775 221.013 651.595 224.409 651.595 224.409Z" fill="#282828"/>
<path d="M633.402 236.57C633.402 238.108 632.153 239.354 630.61 239.354C629.069 239.354 627.82 238.108 627.82 236.57C627.82 235.033 629.069 233.786 630.61 233.786C632.153 233.786 633.402 235.033 633.402 236.57Z" fill="#282828"/>
<path d="M659.872 236.57C659.872 238.108 658.623 239.354 657.08 239.354C655.538 239.354 654.288 238.108 654.288 236.57C654.288 235.033 655.538 233.786 657.08 233.786C658.623 233.786 659.872 235.033 659.872 236.57Z" fill="#282828"/>
<path d="M633.402 253.562H654.933C654.933 253.562 645.39 265.171 633.402 253.562Z" fill="white"/>
<path d="M641.308 237.652C641.308 244.21 635.994 249.526 629.436 249.526C622.879 249.526 617.562 244.21 617.562 237.652C617.562 231.095 622.879 225.779 629.436 225.779C635.994 225.779 641.308 231.095 641.308 237.652Z" stroke="#2F1847" stroke-width="1.78933" stroke-miterlimit="10"/>
<path d="M670.476 237.652C670.476 244.21 665.162 249.526 658.604 249.526C652.047 249.526 646.73 244.21 646.73 237.652C646.73 231.095 652.047 225.779 658.604 225.779C665.162 225.779 670.476 231.095 670.476 237.652Z" stroke="#2F1847" stroke-width="1.78933" stroke-miterlimit="10"/>
<path d="M641.309 237.652C641.309 237.652 644.121 235.027 646.73 237.652" stroke="#2F1847" stroke-width="1.78933" stroke-miterlimit="10"/>
<path d="M617.563 237.652L613.823 237.558" stroke="#2F1847" stroke-width="1.78933" stroke-miterlimit="10"/>
<path d="M670.477 237.652L674.239 237.558" stroke="#2F1847" stroke-width="1.78933" stroke-miterlimit="10"/>
<path d="M674.676 234.116C674.676 234.116 661.357 216.111 664.429 197.869C664.429 197.869 674.314 202.844 676.889 215.684C679.465 228.525 674.676 234.116 674.676 234.116Z" fill="#282828"/>
<path d="M613.311 235.336C613.311 235.336 628.783 214.885 625.711 196.644C625.711 196.644 614.979 202.844 612.404 215.684C609.831 228.525 613.311 235.336 613.311 235.336Z" fill="#282828"/>
<path d="M673.558 205.053C673.558 205.053 656.457 223.776 609.665 220.571C609.665 220.571 616.83 193.097 639.506 190.171C639.506 190.171 665.69 187.044 673.558 205.053Z" fill="#282828"/>
<path d="M694.699 183.166C694.699 195.505 684.697 205.507 672.358 205.507C660.019 205.507 650.017 195.505 650.017 183.166C650.017 170.827 660.019 160.826 672.358 160.826C684.697 160.826 694.699 170.827 694.699 183.166Z" fill="#282828"/>
<path d="M399.633 430.059L358.022 424.517L358.402 419.685L309.733 426.165C309.733 426.165 283.17 497.351 306.81 645.345H340.659L352.458 495.28H356.785L368.966 645.345H402.815C426.455 497.351 399.633 430.059 399.633 430.059Z" fill="#282828"/>
<path d="M396.314 227.6C390.682 220.974 386.172 213.245 382.34 202.398C378.226 190.756 364.755 195.488 364.755 195.488C364.755 195.488 353.53 181.046 336.638 186.077C319.746 191.106 313.876 203.128 313.532 217.418C313.187 231.709 301.947 233.944 293.291 250.477C278.01 279.662 303.738 304.246 350.57 297.426L350.632 296.972C355.244 298.373 360.896 298.984 367.796 298.574C424.058 295.234 418.628 253.852 396.314 227.6Z" fill="#282828"/>
<path d="M377.894 249.243C382.518 253.438 392.858 237.529 388.39 233.062C383.922 228.597 380.514 235.603 380.514 235.603L378.52 240.353L377.014 246.783L376.656 248.467L377.894 249.243Z" fill="#F3978E"/>
<path d="M386.231 238.698C386.231 238.698 382.731 237.123 379.62 242.198" stroke="#282828" stroke-width="1.324" stroke-miterlimit="10" stroke-linecap="round" stroke-linejoin="round"/>
<path d="M323.21 248.761C318.957 253.332 307.309 238.354 311.383 233.526C315.458 228.698 319.446 235.392 319.446 235.392L321.835 239.954L323.878 246.236L324.377 247.884L323.21 248.761Z" fill="#F3978E"/>
<path d="M314.011 238.958C314.011 238.958 317.366 237.093 320.894 241.886" stroke="#282828" stroke-width="1.324" stroke-miterlimit="10" stroke-linecap="round" stroke-linejoin="round"/>
<path d="M386.004 217.887C386.004 238.945 369.948 248.932 350.143 248.932C330.338 248.932 314.282 238.945 314.282 217.887C314.282 196.828 330.338 182.501 350.143 182.501C369.948 182.501 386.004 196.828 386.004 217.887Z" fill="#282828"/>
<path d="M364.755 303.08H335.253V264.879H364.755V303.08Z" fill="#FFB1A5"/>
<path d="M330.948 262.496C330.948 262.496 339.16 278.885 349.263 281.444C351.962 282.128 354.844 281.893 357.447 280.971C361.25 279.623 366.071 273.953 366.891 267.681L367.271 264.097C367.271 264.097 349.294 273.885 330.948 262.496Z" fill="#282828"/>
<path d="M381.13 219.352C381.13 232.28 379.303 243.436 377.481 251.354C375.695 259.106 370.671 264.523 363.573 268.883L362.279 269.678C354.769 274.292 345.065 274.399 337.437 269.954C329.746 265.468 324.361 259.556 322.703 251.239C319.689 236.108 319.359 219.352 319.359 219.352C319.359 219.352 316.491 186.716 349.805 187.351C383.117 187.984 381.13 219.352 381.13 219.352Z" fill="#FFB1A5"/>
<path d="M347.917 239.744V242.427C347.917 242.693 347.969 242.949 348.063 243.184C348.433 244.104 349.499 244.544 350.463 244.289L352.533 243.743" stroke="#282828" stroke-width="1.64" stroke-miterlimit="10" stroke-linecap="round" stroke-linejoin="round"/>
<path d="M354.859 222.053L372.581 226.248C372.581 226.248 371.776 221.693 364.525 220.037C357.275 218.383 354.859 222.053 354.859 222.053Z" fill="#282828"/>
<path d="M345.553 222.053L327.603 226.248C327.603 226.248 328.417 221.693 335.761 220.037C343.105 218.383 345.553 222.053 345.553 222.053Z" fill="#282828"/>
<path d="M339.123 233.054C339.123 234.587 337.874 235.83 336.331 235.83C334.788 235.83 333.539 234.587 333.539 233.054C333.539 231.521 334.788 230.278 336.331 230.278C337.874 230.278 339.123 231.521 339.123 233.054Z" fill="#282828"/>
<path d="M365.592 233.054C365.592 234.587 364.343 235.83 362.8 235.83C361.259 235.83 360.008 234.587 360.008 233.054C360.008 231.521 361.259 230.278 362.8 230.278C364.343 230.278 365.592 231.521 365.592 233.054Z" fill="#282828"/>
<path d="M337.279 248.932H361.784C361.784 248.932 360.055 255.665 348.943 255.665C340.48 255.665 337.279 248.932 337.279 248.932Z" fill="white"/>
<path d="M319.788 230.172C319.788 230.172 333.106 212.165 330.034 193.924C330.034 193.924 320.149 198.899 317.574 211.74C315 224.58 319.788 230.172 319.788 230.172Z" fill="#282828"/>
<path d="M381.153 229.572C381.153 229.572 365.681 210.942 368.753 192.7C368.753 192.7 379.485 198.899 382.058 211.739C384.633 224.58 381.153 229.572 381.153 229.572Z" fill="#282828"/>
<path d="M320.905 201.109C320.905 201.109 336.187 221.65 382.978 218.446C382.978 218.446 377.633 189.153 354.957 186.226C354.957 186.226 328.774 183.101 320.905 201.109Z" fill="#282828"/>
<path d="M278.252 520.417C277.572 521.487 317.196 348.01 305.432 350.633C304.359 350.871 283.755 352.785 280.693 359.011C271.816 377.059 265.449 519.101 265.449 519.101L278.252 520.417Z" fill="#FFB1A5"/>
<path d="M265.45 519.1C265.45 519.1 259.063 548.735 283.207 551.974C284.798 552.187 286.335 551.247 286.859 549.731L286.928 549.53C287.506 547.855 286.667 546.06 285.05 545.338C281.114 543.576 275.007 539.13 278.036 529.031C278.036 529.031 281.527 528.603 283.452 535.114C283.948 536.788 285.828 537.628 287.388 536.844C288.452 536.307 289.052 535.162 288.902 533.979C288.323 529.419 286.03 518.444 277.228 515.499L265.45 519.1Z" fill="#FFB1A5"/>
<path d="M273.574 400.694C273.574 400.694 296.405 432.846 296.525 432.223C296.645 431.603 304.509 387.083 304.509 387.083L276.805 375.083L273.574 400.694Z" fill="#F3978E"/>
<path d="M337.01 296.79C337.983 296.785 280.586 297.813 270.095 370.289L303.082 375.344L309.732 430.058H401.755L420.023 328.965C420.023 328.965 407.036 307.064 369.18 296.333L337.01 296.79Z" fill="#EB5757"/>
<path d="M308.955 305.552C308.955 305.552 317.066 316.32 350.302 316.32C383.23 316.32 391.65 304.988 391.65 304.988C391.65 304.988 372.239 294.143 349.715 290.635C349.715 290.635 329.602 294.217 308.955 305.552Z" fill="#FFB1A5"/>
<path d="M421.885 535.156L421.965 679.696H493.469L498.965 535.156H421.885Z" fill="#011627"/>
<path d="M577.141 535.156L577.062 679.696H505.557L500.062 535.156H577.141Z" fill="#011627"/>
<path d="M538.088 585.371H464.155V535.156H538.088V585.371Z" fill="#011627"/>
<path d="M622.314 409.017C626.747 457.996 622.07 493.682 623.363 583.806L580.686 585.594L574.327 416.897L622.314 409.017Z" fill="#FFB1A5"/>
<path d="M579.59 447.237C579.59 447.237 606.019 444.818 624.089 432.898L623.613 422.409L579.575 428.408L579.59 447.237Z" fill="#F3978E"/>
<path d="M537.191 296.251C537.191 296.251 621.138 317.362 636.347 423.914C636.347 423.914 595.262 441.726 554.089 434.065L563.351 398.427L537.191 296.251Z" fill="#2F1847"/>
<path d="M286.445 340.556L348.949 414.371L329.822 468.236C329.822 468.236 282.315 402.187 260.969 351.135L286.445 340.556Z" fill="#FFB1A5"/>
<path d="M288.499 343.22C288.499 343.22 266.551 355.62 260.969 351.135C251.213 343.296 243.15 314.603 243.15 314.603C243.15 314.603 284.194 299.129 283.807 299.733C283.422 300.339 288.499 343.22 288.499 343.22Z" fill="#FFB1A5"/>
<path d="M288.499 343.22C288.11 341.011 296.638 317.173 299.561 308.235C300.266 306.079 298.779 303.715 296.439 303.267C294.915 302.975 292.503 303.163 291.362 305.348L281.067 322.943L288.499 343.22Z" fill="#FFB1A5"/>
<path d="M287.747 317.451L280.679 282.287C280.26 279.947 277.908 278.335 275.563 278.778C273.532 279.162 272.193 280.971 272.433 283.006L275.513 309.19L287.747 317.451Z" fill="#FFB1A5"/>
<path d="M273.691 304.481L264.093 279.37C263.299 277.172 260.825 275.953 258.639 276.685C256.746 277.32 255.682 279.229 256.131 281.189L263.253 310.205L273.691 304.481Z" fill="#FFB1A5"/>
<path d="M263.376 311.885L251.232 287.211C250.117 284.922 247.345 283.858 245.068 284.849C242.931 285.778 241.984 288.201 242.899 290.403L252.58 313.697L263.376 311.885Z" fill="#FFB1A5"/>
<path d="M243.15 314.602L233.621 299.488C232.832 297.709 233.561 295.714 235.288 294.926C236.94 294.172 238.98 294.766 240.049 296.312L252.58 313.697L243.15 314.602Z" fill="#FFB1A5"/>
<path d="M285.826 314.81C285.826 314.81 271.515 313.308 270.046 332.379" stroke="#282828" stroke-width="2.04267" stroke-miterlimit="10" stroke-linecap="round" stroke-linejoin="round"/>
<path d="M317.145 443.042C317.145 443.042 328.901 483.727 352.328 478.318C375.753 472.908 412.264 422.875 412.264 422.875L404.092 337.443L338.341 418.367L317.145 443.042Z" fill="#FFB1A5"/>
<path d="M358.735 393.231C358.735 393.231 380.934 426.713 399.871 438.521L412.264 422.875L364.45 385.887L358.735 393.231Z" fill="#F3978E"/>
<path d="M455.857 294.404C455.857 294.404 390.684 309.094 355.953 384.838C355.953 384.838 376.937 416.457 410.579 430.51L433.101 402.918L455.857 294.404Z" fill="#2F1847"/>
<path d="M455.857 294.17C430.399 307.229 414.393 324.547 414.393 324.547L419.416 545.959H579.853L579.333 325.689C579.333 325.689 559.109 305.899 537.191 296.251C518.576 288.057 473.956 284.887 455.857 294.17Z" fill="#2F1847"/>
<path d="M531.773 402.059C519.449 402.059 509.459 392.068 509.459 379.744V357.428H554.088V379.744C554.088 392.068 544.097 402.059 531.773 402.059Z" stroke="#282828" stroke-width="1.86267" stroke-miterlimit="10" stroke-linecap="round" stroke-linejoin="round"/>
<path d="M579.59 434.888L581.673 362.457" stroke="#282828" stroke-width="1.86267" stroke-miterlimit="10" stroke-linecap="round" stroke-linejoin="round"/>
<path d="M416.859 422.816L413.392 360.031" stroke="#282828" stroke-width="1.86267" stroke-miterlimit="10" stroke-linecap="round" stroke-linejoin="round"/>
<path d="M457.737 213.299L451.049 180.212C450.673 177.517 449.628 173.357 450.908 169.451C453.026 162.985 460.812 150.569 474.118 156.253L476.994 169.353C476.994 169.353 463.176 172.143 457.633 190.22L457.737 213.299Z" fill="#282828"/>
<path d="M473.138 163.083C472.895 167.431 469.058 186.453 455.569 193.382C455.569 193.382 443.751 168.042 473.138 163.083Z" fill="#282828"/>
<path d="M520.462 288.077V231.896H468.67V288.077L453.253 295.105C453.253 295.105 456.869 318.39 495.109 318.908C533.35 319.424 537.192 296.252 537.192 296.252L520.462 288.077Z" fill="#FFB1A5"/>
<path d="M474.118 156.254C474.118 156.254 483.623 131.179 512.934 144.509C530.674 152.578 535.643 163.395 537.756 171.061C538.459 173.607 538.739 177.618 538.548 180.001L531.458 213.299L503.779 167.229L476.994 169.354L474.118 156.254Z" fill="#282828"/>
<path d="M531.458 213.299C531.458 213.299 534.95 207.744 542.153 210.476C549.354 213.208 546.097 230.697 535.293 232.927C535.293 232.927 531.421 233.771 528.384 231.12C528.384 231.12 531.041 218.201 531.458 213.299" fill="#F3978E"/>
<path d="M540.724 216.646C540.724 216.646 534.692 214.633 530.409 223.517" stroke="#282828" stroke-width="1.86267" stroke-miterlimit="10" stroke-linecap="round" stroke-linejoin="round"/>
<path d="M457.737 213.299C457.737 213.299 454.245 207.744 447.044 210.476C439.842 213.208 443.1 230.697 453.902 232.927C453.902 232.927 457.774 233.771 460.812 231.12C460.812 231.12 458.154 218.201 457.737 213.299" fill="#F3978E"/>
<path d="M448.472 216.646C448.472 216.646 454.504 214.633 458.787 223.517" stroke="#282828" stroke-width="1.86267" stroke-miterlimit="10" stroke-linecap="round" stroke-linejoin="round"/>
<path d="M532.18 196.702C532.184 207.246 531.149 229.305 524.666 242.397C518.581 254.69 508.514 261.306 495.318 261.701C482.121 262.094 472.29 257.007 464.412 241.054C456.533 225.099 456.909 196.898 456.909 196.898C456.909 196.898 456.909 159.231 494.136 159.231C533.344 159.231 532.18 196.702 532.18 196.702Z" fill="#FFB1A5"/>
<path d="M469.058 248.917C469.058 248.917 473.396 270.925 492.549 273.453C514.59 276.362 520.462 249.475 520.462 249.475C520.462 249.475 510.721 261.681 495.317 261.699C478.138 261.722 469.058 248.917 469.058 248.917Z" fill="#282828"/>
<path d="M491.889 212.339V221.057C491.889 221.43 491.961 221.789 492.093 222.118C492.609 223.41 494.096 224.029 495.44 223.671L498.329 222.902" stroke="#282828" stroke-width="1.86267" stroke-miterlimit="10" stroke-linecap="round" stroke-linejoin="round"/>
<path d="M480.895 208.176C480.895 210.048 479.378 211.565 477.506 211.565C475.635 211.565 474.118 210.048 474.118 208.176C474.118 206.305 475.635 204.786 477.506 204.786C479.378 204.786 480.895 206.305 480.895 208.176Z" fill="#282828"/>
<path d="M512.669 208.176C512.669 210.048 511.151 211.565 509.28 211.565C507.409 211.565 505.891 210.048 505.891 208.176C505.891 206.305 507.409 204.786 509.28 204.786C511.151 204.786 512.669 206.305 512.669 208.176Z" fill="#282828"/>
<path d="M500.605 191.316L523.391 197.203C523.391 197.203 522.355 190.811 513.033 188.488C503.712 186.167 500.605 191.316 500.605 191.316Z" fill="#282828"/>
<path d="M486.446 191.316L463.661 197.203C463.661 197.203 464.697 190.811 474.018 188.488C483.34 186.167 486.446 191.316 486.446 191.316Z" fill="#282828"/>
<path d="M481.915 229.839C481.915 229.839 485.277 232.415 494.115 232.415C502.154 232.415 507.174 229.839 507.174 229.839" stroke="#282828" stroke-width="1.86267" stroke-miterlimit="10" stroke-linecap="round" stroke-linejoin="round"/>
<path d="M490.995 209.166C490.995 217.119 484.548 223.566 476.595 223.566C468.641 223.566 462.193 217.119 462.193 209.166C462.193 201.213 468.641 194.766 476.595 194.766C484.548 194.766 490.995 201.213 490.995 209.166Z" stroke="white" stroke-width="2.60133" stroke-miterlimit="10"/>
<path d="M526.371 209.166C526.371 217.119 519.924 223.566 511.971 223.566C504.018 223.566 497.57 217.119 497.57 209.166C497.57 201.213 504.018 194.766 511.971 194.766C519.924 194.766 526.371 201.213 526.371 209.166Z" stroke="white" stroke-width="2.60133" stroke-miterlimit="10"/>
<path d="M490.995 209.166C490.995 209.166 494.405 205.983 497.571 209.166" stroke="white" stroke-width="2.60133" stroke-miterlimit="10"/>
<path d="M462.194 209.166L457.366 209.043" stroke="white" stroke-width="2.60133" stroke-miterlimit="10"/>
<path d="M526.371 209.166L531.762 209.079" stroke="white" stroke-width="2.60133" stroke-miterlimit="10"/>
<path d="M469.058 163.943C469.058 163.943 475.974 183.59 507.18 182.987C528.384 182.578 533.45 197.922 533.45 197.922C533.45 197.922 529.76 163.619 528.79 163.943C527.82 164.267 496.525 155.593 496.525 155.593L469.058 163.943Z" fill="#282828"/>
</svg>
