<svg width="42" height="42" viewBox="0 0 42 42" fill="none" xmlns="http://www.w3.org/2000/svg">
<path d="M25.2 33.8333C25.2 33.5239 25.0771 33.2271 24.8583 33.0083C24.6395 32.7895 24.3428 32.6666 24.0334 32.6666H17.0334C16.7239 32.6666 16.4272 32.7895 16.2084 33.0083C15.9896 33.2271 15.8667 33.5239 15.8667 33.8333C15.8667 34.1427 15.9896 34.4395 16.2084 34.6583C16.4272 34.877 16.7239 35 17.0334 35H24.0334C24.3428 35 24.6395 34.877 24.8583 34.6583C25.0771 34.4395 25.2 34.1427 25.2 33.8333Z" fill="#FFB238"/>
<path d="M26.2967 28H19.2967C18.9873 28 18.6905 28.1229 18.4717 28.3417C18.2529 28.5605 18.13 28.8572 18.13 29.1667C18.13 29.4761 18.2529 29.7728 18.4717 29.9916C18.6905 30.2104 18.9873 30.3333 19.2967 30.3333H26.2967C26.6061 30.3333 26.9028 30.2104 27.1216 29.9916C27.3404 29.7728 27.4633 29.4761 27.4633 29.1667C27.4633 28.8572 27.3404 28.5605 27.1216 28.3417C26.9028 28.1229 26.6061 28 26.2967 28Z" fill="#FFB238"/>
<path d="M25.6667 37.3333H18.6667C18.3572 37.3333 18.0605 37.4562 17.8417 37.675C17.6229 37.8938 17.5 38.1905 17.5 38.4999C17.5 38.8093 17.6229 39.1061 17.8417 39.3249C18.0605 39.5437 18.3572 39.6666 18.6667 39.6666H25.6667C25.9761 39.6666 26.2728 39.5437 26.4916 39.3249C26.7104 39.1061 26.8333 38.8093 26.8333 38.4999C26.8333 38.1905 26.7104 37.8938 26.4916 37.675C26.2728 37.4562 25.9761 37.3333 25.6667 37.3333V37.3333Z" fill="#FFB238"/>
<path d="M38.15 37.3333H29.9833C29.6739 37.3333 29.3772 37.4562 29.1584 37.675C28.9396 37.8938 28.8167 38.1905 28.8167 38.4999C28.8167 38.8093 28.9396 39.1061 29.1584 39.3249C29.3772 39.5437 29.6739 39.6666 29.9833 39.6666H38.15C38.4594 39.6666 38.7561 39.5437 38.9749 39.3249C39.1937 39.1061 39.3167 38.8093 39.3167 38.4999C39.3167 38.1905 39.1937 37.8938 38.9749 37.675C38.7561 37.4562 38.4594 37.3333 38.15 37.3333V37.3333Z" fill="#FFB238"/>
<path d="M39.3167 32.6666H31.1501C30.8406 32.6666 30.5439 32.7895 30.3251 33.0083C30.1063 33.2271 29.9834 33.5239 29.9834 33.8333C29.9834 34.1427 30.1063 34.4395 30.3251 34.6583C30.5439 34.877 30.8406 35 31.1501 35H39.3167C39.6262 35 39.9229 34.877 40.1417 34.6583C40.3605 34.4395 40.4834 34.1427 40.4834 33.8333C40.4834 33.5239 40.3605 33.2271 40.1417 33.0083C39.9229 32.7895 39.6262 32.6666 39.3167 32.6666Z" fill="#FFB238"/>
<path d="M39.3634 30.3333C39.0215 26.2254 37.9051 22.2193 36.0734 18.5266C34.3186 15.1896 31.7904 12.3213 28.7001 10.1616L31.5001 3.98992C31.5903 3.80547 31.6303 3.60047 31.616 3.39562C31.6016 3.19077 31.5335 2.99333 31.4184 2.82326C31.3122 2.67406 31.1724 2.55196 31.0102 2.46683C30.8481 2.38171 30.6682 2.33595 30.485 2.33326H11.4334C11.2373 2.33277 11.0442 2.38174 10.872 2.47563C10.6998 2.56952 10.554 2.7053 10.4482 2.87043C10.3424 3.03556 10.2799 3.22471 10.2665 3.42038C10.2532 3.61605 10.2893 3.81193 10.3717 3.98992L13.23 10.1849C10.1623 12.3467 7.65127 15.2055 5.90338 18.5266C3.39505 23.1933 2.61338 28.8983 2.40338 32.8533C2.369 33.4322 2.45491 34.0121 2.6557 34.5562C2.85649 35.1004 3.16782 35.597 3.57005 36.0149C3.9928 36.4255 4.49337 36.7475 5.04234 36.9619C5.5913 37.1762 6.17758 37.2787 6.76672 37.2633H14V34.9999H6.67338C6.40935 34.9991 6.14821 34.9449 5.90562 34.8407C5.66304 34.7364 5.44403 34.5842 5.26172 34.3933C5.07914 34.2038 4.93814 33.9783 4.84773 33.7312C4.75733 33.4841 4.71952 33.2208 4.73672 32.9583C4.90005 29.9133 5.54172 24.1149 7.95672 19.5999C9.65915 16.3649 12.1766 13.6303 15.26 11.6666H16.4267C15.6361 12.7603 14.9077 13.8976 14.245 15.0733C13.5701 16.3242 12.9966 17.6273 12.53 18.9699L14.1284 20.0433C14.6006 18.6502 15.1818 17.2966 15.8667 15.9949C16.7077 14.4814 17.6633 13.0344 18.725 11.6666H19.8917C20.6744 13.5372 21.2267 15.496 21.5367 17.4999C21.7901 18.9875 21.9151 20.4942 21.9101 22.0033L23.7534 20.7083C23.702 19.5349 23.5773 18.366 23.3801 17.2083C23.067 15.3161 22.5668 13.4598 21.8867 11.6666H22.7967L23.8584 9.33326H15.4117L13.2534 4.66659H28.665L25.7484 11.0483C26.2483 11.3161 26.728 11.6202 27.1834 11.9583C30.0419 13.9304 32.3862 16.5588 34.02 19.6233C35.6565 22.9835 36.6723 26.6118 37.0184 30.3333H39.3634Z" fill="#FFB238"/>
</svg>
