<svg width="30" height="30" viewBox="0 0 30 30" fill="none" xmlns="http://www.w3.org/2000/svg">
<path d="M15 28.3333C12.7899 28.3333 10.6703 27.4554 9.10746 25.8926C7.54466 24.3298 6.66669 22.2101 6.66669 20V10C6.66669 7.78986 7.54466 5.67025 9.10746 4.10744C10.6703 2.54464 12.7899 1.66667 15 1.66667C17.2102 1.66667 19.3298 2.54464 20.8926 4.10744C22.4554 5.67025 23.3334 7.78986 23.3334 10V20C23.3334 21.0943 23.1178 22.178 22.699 23.189C22.2802 24.2001 21.6664 25.1187 20.8926 25.8926C20.1188 26.6664 19.2001 27.2802 18.189 27.699C17.178 28.1178 16.0944 28.3333 15 28.3333ZM15 3.33333C13.2319 3.33333 11.5362 4.03571 10.286 5.28596C9.03573 6.5362 8.33335 8.23189 8.33335 10V20C8.33335 21.7681 9.03573 23.4638 10.286 24.714C11.5362 25.9643 13.2319 26.6667 15 26.6667C16.7681 26.6667 18.4638 25.9643 19.7141 24.714C20.9643 23.4638 21.6667 21.7681 21.6667 20V10C21.6667 8.23189 20.9643 6.5362 19.7141 5.28596C18.4638 4.03571 16.7681 3.33333 15 3.33333Z" fill="#FAFAFA"/>
<path d="M15 12.5C14.779 12.5 14.567 12.4122 14.4108 12.2559C14.2545 12.0996 14.1667 11.8877 14.1667 11.6667V8.33333C14.1667 8.11232 14.2545 7.90036 14.4108 7.74408C14.567 7.5878 14.779 7.5 15 7.5C15.221 7.5 15.433 7.5878 15.5893 7.74408C15.7456 7.90036 15.8334 8.11232 15.8334 8.33333V11.6667C15.8334 11.8877 15.7456 12.0996 15.5893 12.2559C15.433 12.4122 15.221 12.5 15 12.5Z" fill="#FAFAFA"/>
</svg>
