<svg width="667" height="667" viewBox="0 0 667 667" fill="none" xmlns="http://www.w3.org/2000/svg">
<path d="M0 666.667H666.667V-0.000123024H0V666.667Z" fill="white"/>
<path d="M0 666.667H666.667V-0.000123024H0V666.667Z" fill="white"/>
<path d="M0 666.667H666.667V-0.000123024H0V666.667Z" fill="#FAFAFA"/>
<path d="M170.829 139.565C256.916 47.1318 368.943 73.9838 411.709 123.193C454.476 172.402 411.877 275.009 420.284 330.018C428.692 385.028 553.655 371.248 569.523 459.601C585.391 547.956 482.339 598.978 389.065 599.582C295.793 600.189 169.309 561.178 131.721 435.554C94.132 309.929 123.084 190.832 170.829 139.565Z" fill="#FFF0D9"/>
<path d="M440.754 599.591H69.5846C66.5352 599.591 64.0632 597.119 64.0632 594.07C64.0632 591.02 66.5352 588.548 69.5846 588.548H440.754C443.802 588.548 446.275 591.02 446.275 594.07C446.275 597.119 443.802 599.591 440.754 599.591Z" fill="#3386B0"/>
<path d="M597.082 599.591H528.51C525.461 599.591 522.989 597.119 522.989 594.07C522.989 591.02 525.461 588.548 528.51 588.548H597.082C600.131 588.548 602.605 591.02 602.605 594.07C602.605 597.119 600.131 599.591 597.082 599.591Z" fill="#3386B0"/>
<path d="M513.66 599.591H497.211C494.161 599.591 491.689 597.119 491.689 594.07C491.689 591.02 494.161 588.548 497.211 588.548H513.66C516.709 588.548 519.181 591.02 519.181 594.07C519.181 597.119 516.709 599.591 513.66 599.591Z" fill="#3386B0"/>
<path d="M418.496 591.333L456.956 398.427H485.235H513.515L551.973 591.333H561.348L520.98 388.859H485.235H449.489L409.123 591.333H418.496Z" fill="#011627"/>
<path d="M345.061 563.453C349.588 563.453 353.271 567.137 353.271 571.661V575.632C352.451 575.37 351.579 575.229 350.672 575.229C349.764 575.229 348.892 575.37 348.072 575.632V571.661C348.072 570.002 346.721 568.65 345.061 568.65H309.771V563.453H345.061Z" fill="#2B1E23"/>
<path d="M335.452 583.808C335.452 579.654 332.084 576.284 327.928 576.284C323.773 576.284 320.404 579.654 320.404 583.808C320.404 587.964 323.773 591.334 327.928 591.334C332.084 591.334 335.452 587.964 335.452 583.808Z" fill="#342329"/>
<path d="M331.145 583.808C331.145 582.032 329.704 580.591 327.928 580.591C326.15 580.591 324.71 582.032 324.71 583.808C324.71 585.586 326.15 587.026 327.928 587.026C329.704 587.026 331.145 585.586 331.145 583.808Z" fill="#2B1E23"/>
<path d="M327.928 575.229C332.666 575.229 336.508 579.07 336.508 583.809H319.348C319.348 579.07 323.189 575.229 327.928 575.229Z" fill="#422C32"/>
<path d="M322.318 566.052C326.844 566.052 330.527 569.736 330.527 574.261V575.632C329.707 575.371 328.835 575.229 327.928 575.229C327.022 575.229 326.15 575.371 325.328 575.632V574.261C325.328 572.601 323.978 571.251 322.318 571.251H309.771V566.052H322.318Z" fill="#342329"/>
<path d="M358.195 583.808C358.195 579.654 354.827 576.284 350.67 576.284C346.515 576.284 343.147 579.654 343.147 583.808C343.147 587.964 346.515 591.334 350.67 591.334C354.827 591.334 358.195 587.964 358.195 583.808Z" fill="#342329"/>
<path d="M353.888 583.808C353.888 582.032 352.448 580.591 350.671 580.591C348.895 580.591 347.455 582.032 347.455 583.808C347.455 585.586 348.895 587.026 350.671 587.026C352.448 587.026 353.888 585.586 353.888 583.808Z" fill="#2B1E23"/>
<path d="M350.672 575.229C355.411 575.229 359.252 579.07 359.252 583.809H342.091C342.091 579.07 345.932 575.229 350.672 575.229Z" fill="#422C32"/>
<path d="M249.131 563.453C244.604 563.453 240.921 567.137 240.921 571.661V575.632C241.741 575.37 242.615 575.229 243.52 575.229C244.427 575.229 245.299 575.37 246.12 575.632V571.661C246.12 570.002 247.471 568.65 249.131 568.65H284.421V563.453H249.131Z" fill="#2B1E23"/>
<path d="M222.67 272.76V272.792C226.093 273.121 228.777 276.178 228.777 279.908V413.766C228.777 433.506 243.814 449.506 262.363 449.506H274.577H324.039V288.842C324.039 279.96 317.273 272.76 308.926 272.76H222.67Z" fill="#FFB238"/>
<path d="M277.904 463.802H264.908C237.318 463.802 214.873 441.357 214.873 413.767V279.907C214.873 275.959 218.072 272.759 222.02 272.759C225.968 272.759 229.168 275.959 229.168 279.907V413.767C229.168 433.474 245.201 449.506 264.908 449.506H277.904C281.85 449.506 285.052 452.709 285.052 456.655C285.052 460.602 281.85 463.802 277.904 463.802Z" fill="#DE8E01"/>
<path d="M336.169 449.506H277.904C281.851 449.506 285.052 452.706 285.052 456.654C285.052 460.601 281.851 463.802 277.904 463.802H336.169C340.117 463.802 343.317 460.602 343.317 456.654C343.317 452.706 340.117 449.506 336.169 449.506Z" fill="#FFB238"/>
<path d="M314.292 475.445H279.899C273.47 475.445 268.258 470.233 268.258 463.802H325.935C325.935 470.233 320.723 475.445 314.292 475.445Z" fill="#422C32"/>
<path d="M306.238 482.647H287.954C286.003 482.647 284.42 481.064 284.42 479.114V475.446H309.771V479.114C309.771 481.064 308.188 482.647 306.238 482.647Z" fill="#342329"/>
<path d="M306.62 575.229H287.571C285.831 575.229 284.42 573.818 284.42 572.078V543.958C284.42 542.008 286.003 540.425 287.954 540.425H306.238C308.188 540.425 309.771 542.008 309.771 543.958V572.078C309.771 573.818 308.36 575.229 306.62 575.229Z" fill="#342329"/>
<path d="M285.999 480.129H262.815C262.217 480.129 261.732 479.645 261.732 479.046C261.732 478.447 262.217 477.963 262.815 477.963H285.999C286.597 477.963 287.081 478.447 287.081 479.046C287.081 479.645 286.597 480.129 285.999 480.129Z" fill="#422C32"/>
<path d="M263.527 481.754H254.185C252.691 481.754 251.477 480.542 251.477 479.046C251.477 477.551 252.691 476.338 254.185 476.338H263.527C265.023 476.338 266.233 477.551 266.233 479.046C266.233 480.542 265.023 481.754 263.527 481.754Z" fill="#342329"/>
<path d="M303.679 540.425H290.512V482.647H303.679V540.425Z" fill="#E4E3E3"/>
<path d="M302.217 540.425H298.805V482.647H302.217V540.425Z" fill="#F2F0EB"/>
<path d="M258.74 583.808C258.74 579.654 262.108 576.284 266.264 576.284C270.419 576.284 273.788 579.654 273.788 583.808C273.788 587.964 270.419 591.334 266.264 591.334C262.108 591.334 258.74 587.964 258.74 583.808Z" fill="#342329"/>
<path d="M263.047 583.808C263.047 582.032 264.487 580.591 266.264 580.591C268.042 580.591 269.482 582.032 269.482 583.808C269.482 585.586 268.042 587.026 266.264 587.026C264.487 587.026 263.047 585.586 263.047 583.808Z" fill="#2B1E23"/>
<path d="M266.264 575.229C261.526 575.229 257.684 579.07 257.684 583.809H274.844C274.844 579.07 271.003 575.229 266.264 575.229Z" fill="#422C32"/>
<path d="M271.874 566.052C267.348 566.052 263.665 569.736 263.665 574.261V575.632C264.485 575.371 265.357 575.229 266.264 575.229C267.17 575.229 268.042 575.371 268.864 575.632V574.261C268.864 572.601 270.214 571.251 271.874 571.251H284.421V566.052H271.874Z" fill="#342329"/>
<path d="M235.997 583.808C235.997 579.654 239.365 576.284 243.521 576.284C247.677 576.284 251.045 579.654 251.045 583.808C251.045 587.964 247.677 591.334 243.521 591.334C239.365 591.334 235.997 587.964 235.997 583.808Z" fill="#342329"/>
<path d="M240.304 583.808C240.304 582.032 241.744 580.591 243.521 580.591C245.297 580.591 246.737 582.032 246.737 583.808C246.737 585.586 245.297 587.026 243.521 587.026C241.744 587.026 240.304 585.586 240.304 583.808Z" fill="#2B1E23"/>
<path d="M243.521 575.229C238.782 575.229 234.941 579.07 234.941 583.809H252.101C252.101 579.07 248.26 575.229 243.521 575.229Z" fill="#422C32"/>
<path d="M328.372 388.858H238.698V394.545L328.372 388.858Z" fill="#2E545E"/>
<path d="M537.06 288.124H444.896L429.571 361.932H521.735C523.351 361.932 524.931 360.624 525.265 359.009L539.376 291.048C539.712 289.433 538.675 288.124 537.06 288.124Z" fill="#F2F0EB"/>
<path d="M429.57 361.932C427.956 361.932 426.918 360.624 427.254 359.009L441.365 291.048C441.7 289.433 443.28 288.124 444.896 288.124C446.51 288.124 447.546 289.433 447.212 291.048L433.101 359.009C432.766 360.624 431.186 361.932 429.57 361.932Z" fill="#E4E3E3"/>
<path d="M496.22 314.178C495.165 319.254 490.197 323.367 485.123 323.367C480.047 323.367 476.787 319.254 477.84 314.178C478.895 309.102 483.863 304.988 488.937 304.988C494.013 304.988 497.273 309.102 496.22 314.178Z" fill="#E4E3E3"/>
<path d="M465.991 334.581L465.988 334.583L464.345 342.491L472.095 367.668C472.456 368.839 472.244 370.076 471.517 371.061C470.789 372.048 469.668 372.613 468.443 372.613H443.333V376.512H468.443C470.917 376.512 473.183 375.369 474.653 373.377C476.124 371.387 476.549 368.887 475.821 366.521L465.991 334.581Z" fill="#F2F0EB"/>
<path d="M507.661 366.521L497.831 334.581H465.991L475.821 366.521C476.549 368.886 476.124 371.386 474.653 373.378C473.183 375.37 470.917 376.511 468.443 376.511H500.283C502.759 376.511 505.023 375.37 506.493 373.378C507.965 371.386 508.391 368.886 507.661 366.521Z" fill="#E4E3E3"/>
<path d="M238.699 353.118H234.065C233.111 353.118 232.404 352.689 231.965 351.84C231.555 351.045 231.579 350.272 232.037 349.536L238.699 336.322V353.118ZM358.856 353.118L328.372 284.889L307.853 269.034L292.281 278.032L271.149 269.034L238.699 285.377L213.396 335.397L213.055 335.856C207.459 343.746 206.741 353.986 211.183 362.58C215.624 371.173 224.392 376.512 234.065 376.512H238.699V415.93C256.656 424.493 288.913 415.75 328.372 408.885V340.82L337.764 363.321C341.179 371.334 349.012 376.512 357.721 376.512H401.8V353.118H358.856Z" fill="#2F1847"/>
<path d="M271.149 269.034H307.853L292.281 278.031L271.149 269.034Z" fill="#B5B5A4"/>
<path d="M292.281 278.031L305.685 270.286V267.324C305.542 267.351 305.401 267.382 305.257 267.407C305.094 267.436 304.933 267.468 304.769 267.494C304.497 267.538 304.222 267.574 303.947 267.608C303.786 267.628 303.626 267.652 303.463 267.67C303.165 267.7 302.863 267.723 302.562 267.744C302.422 267.754 302.282 267.768 302.141 267.776C301.698 267.799 301.253 267.812 300.803 267.812C300.271 267.812 299.746 267.791 299.223 267.758C299.099 267.75 298.975 267.739 298.853 267.728C298.397 267.694 297.945 267.647 297.497 267.587C297.434 267.579 297.373 267.572 297.31 267.563C296.209 267.407 295.13 267.179 294.081 266.886C292.119 266.336 290.257 265.552 288.525 264.566H288.523C287.538 263.998 286.59 263.367 285.687 262.676L285.234 262.33H285.233C284.729 261.924 284.242 261.499 283.773 261.056C282.787 260.13 281.878 259.126 281.055 258.052C281.055 258.051 281.054 258.05 281.054 258.05C280.679 257.562 280.325 257.059 279.987 256.544C279.949 256.484 279.91 256.423 279.871 256.363C279.205 255.327 278.614 254.236 278.106 253.102C278.07 253.024 278.034 252.947 277.999 252.867C277.762 252.322 277.545 251.767 277.345 251.202C277.311 251.106 277.281 251.008 277.247 250.911C277.05 250.33 276.867 249.74 276.714 249.139C276.713 249.135 276.713 249.132 276.711 249.128C276.559 248.536 276.437 247.934 276.329 247.326C276.322 247.294 276.317 247.263 276.311 247.232C276.298 247.154 276.282 247.075 276.27 246.996C276.173 246.406 276.097 245.807 276.042 245.202C276.041 245.183 276.039 245.164 276.038 245.144C276.03 245.059 276.025 244.972 276.018 244.886C275.978 244.35 275.95 243.812 275.945 243.276C275.942 243.166 275.935 243.056 275.935 242.944V237.556C275.199 237.554 274.491 237.444 273.817 237.252V273.631L292.281 278.031Z" fill="#F8CB99"/>
<path d="M406.282 585.764H339.28V564.939H368.977L401.096 575.48C404.162 576.341 406.282 579.137 406.282 582.323V585.764Z" fill="#2F1847"/>
<path d="M368.977 564.939L339.281 568.651V564.939H368.977Z" fill="#4FA6CA"/>
<path d="M338.825 558.465H369.431C370.293 558.465 370.992 559.165 370.992 560.027V563.378C370.992 564.239 370.293 564.938 369.431 564.938H338.825C337.964 564.938 337.264 564.239 337.264 563.378V560.027C337.264 559.165 337.964 558.465 338.825 558.465Z" fill="#232123"/>
<path d="M406.883 591.333H338.68C337.897 591.333 337.264 590.699 337.264 589.917V587.807C337.264 586.68 338.179 585.764 339.307 585.764H406.253C407.383 585.764 408.299 586.68 408.299 587.807V589.917C408.299 590.699 407.664 591.333 406.883 591.333Z" fill="#232123"/>
<path d="M406.254 582.368H339.307C339.298 582.368 339.289 582.371 339.281 582.372V585.764H406.282V582.372C406.274 582.371 406.265 582.368 406.254 582.368Z" fill="#4FA6CA"/>
<path d="M374.193 572.148C373.549 571.948 373.187 571.264 373.387 570.619L374.633 566.592C374.833 565.948 375.518 565.587 376.163 565.787C376.807 565.986 377.167 566.671 376.969 567.316L375.722 571.343C375.522 571.987 374.837 572.347 374.193 572.148Z" fill="#232123"/>
<path d="M380.581 574.126C379.937 573.926 379.575 573.242 379.775 572.597L380.982 568.697C381.182 568.051 381.866 567.691 382.511 567.89C383.157 568.09 383.517 568.774 383.318 569.419L382.109 573.321C381.91 573.965 381.225 574.325 380.581 574.126Z" fill="#232123"/>
<path d="M386.969 576.23C386.325 576.03 385.962 575.345 386.164 574.701L387.365 570.817C387.564 570.172 388.249 569.812 388.893 570.012C389.54 570.21 389.9 570.896 389.701 571.54L388.497 575.424C388.298 576.069 387.613 576.429 386.969 576.23Z" fill="#232123"/>
<g opacity="0.5">
<g opacity="0.5">
<path opacity="0.5" d="M238.698 353.118H244.31L257.096 299.826L238.698 336.322V353.118Z" fill="#2F1847"/>
</g>
</g>
<g opacity="0.5">
<g opacity="0.5">
<path opacity="0.5" d="M358.855 353.118H351.385L357.607 350.329L358.855 353.118Z" fill="#2F1847"/>
</g>
</g>
<path d="M409.056 376.512H401.8V355.609H409.056V376.512Z" fill="#E4E3E3"/>
<path d="M319.057 376.512H311.801V355.609H319.057V376.512Z" fill="#E4E3E3"/>
<g opacity="0.5">
<path opacity="0.5" d="M404.508 376.512H401.8V355.609H404.508V376.512Z" fill="#2F1847"/>
</g>
<g opacity="0.5">
<path opacity="0.5" d="M314.509 376.512H311.801V355.609H314.509V376.512Z" fill="#2F1847"/>
</g>
<g opacity="0.5">
<g opacity="0.5">
<path opacity="0.5" d="M311.801 353.118H244.311L245.788 346.962L311.801 353.118Z" fill="#2F1847"/>
</g>
</g>
<g opacity="0.5">
<g opacity="0.5">
<path opacity="0.5" d="M328.372 408.885V401.691L282.868 417.124C296.405 415 311.745 411.777 328.372 408.885Z" fill="#2F1847"/>
</g>
</g>
<path d="M359.444 433.139C359.257 433.151 359.072 433.162 358.884 433.188L262.139 449.506L336.711 449.83C338.959 449.924 340.717 451.76 340.717 454.008V558.458H369.309V456.608C369.309 447.407 365.544 439.094 359.444 433.139Z" fill="#3D2A18"/>
<path d="M386.408 419.592C382.724 406.518 365.873 403.214 354.612 404.919L328.372 409.344V408.886C288.913 415.75 256.656 424.154 238.698 415.59V422.648C238.698 437.722 247.29 449.507 262.362 449.507C279.777 449.507 328.372 438.336 328.372 438.336L356.444 433.868C358.472 433.564 361.55 434.402 363.197 439.499C371 463.676 392.134 526.207 392.134 526.207L417.428 516.511C417.428 516.511 393.365 444.28 386.408 419.592Z" fill="#5E432E"/>
<g opacity="0.25">
<g opacity="0.25">
<path opacity="0.25" d="M392.134 526.207L417.428 516.512C417.428 516.512 417.225 515.903 416.854 514.79L388.846 516.463C390.87 522.463 392.134 526.207 392.134 526.207Z" fill="#353236"/>
</g>
</g>
<g opacity="0.25">
<g opacity="0.25">
<path opacity="0.25" d="M369.31 558.458H340.718V548.547L369.31 558.458Z" fill="#353236"/>
</g>
</g>
<path d="M416.258 360.917H409.057V376.511H428.442V373.101C428.442 366.371 422.987 360.917 416.258 360.917Z" fill="#F8CB99"/>
<path d="M326.26 360.917H319.058V376.511H338.444V373.101C338.444 366.371 332.989 360.917 326.26 360.917Z" fill="#F8CB99"/>
<path d="M416.962 368.715H409.056V376.512H416.962C419.116 376.512 420.861 374.767 420.861 372.613C420.861 370.46 419.116 368.715 416.962 368.715Z" fill="#F8CB99"/>
<path d="M307.853 269.034L292.281 278.031L301.45 288.178L307.853 269.034Z" fill="#E4E3E3"/>
<path d="M271.149 269.034L292.281 278.031L277.413 291.666L271.149 269.034Z" fill="#E4E3E3"/>
<path d="M300.411 287.029L292.28 278.031L280.8 288.545L290.605 319.979L299.396 289.481L300.411 287.029Z" fill="#CBCBCB"/>
<path d="M298.478 284.889L293.2 291.955H288.488L284.51 285.157L292.28 278.031L298.478 284.889Z" fill="#4FA6CA"/>
<path d="M462.896 528.293L399.704 550.567L392.781 530.927L420.789 521.054L454.588 520.318C457.765 520.11 460.693 522.043 461.752 525.046L462.896 528.293Z" fill="#2F1847"/>
<path d="M420.789 521.054L394.016 534.428L392.781 530.926L420.789 521.054Z" fill="#4FA6CA"/>
<path d="M390.202 524.972L419.065 514.798C419.879 514.51 420.771 514.938 421.058 515.751L422.173 518.911C422.458 519.724 422.031 520.616 421.218 520.903L392.353 531.078C391.541 531.364 390.649 530.938 390.361 530.123L389.247 526.964C388.961 526.151 389.389 525.259 390.202 524.972Z" fill="#232123"/>
<path d="M465.314 533.345L400.99 556.02C400.253 556.278 399.445 555.892 399.185 555.154L398.483 553.165C398.109 552.1 398.667 550.933 399.73 550.558L462.87 528.302C463.935 527.928 465.102 528.485 465.477 529.549L466.178 531.54C466.438 532.277 466.051 533.085 465.314 533.345Z" fill="#232123"/>
<path d="M461.741 525.1L398.602 547.356C398.593 547.359 398.586 547.364 398.577 547.368L399.705 550.568L462.896 528.293L461.769 525.093C461.76 525.096 461.75 525.096 461.741 525.1Z" fill="#4FA6CA"/>
<path d="M428.147 526.238C427.473 526.265 426.905 525.738 426.879 525.063L426.717 520.853C426.69 520.178 427.217 519.609 427.891 519.583C428.565 519.557 429.133 520.083 429.159 520.758L429.322 524.97C429.347 525.645 428.822 526.211 428.147 526.238Z" fill="#232123"/>
<path d="M434.829 525.98C434.155 526.007 433.587 525.48 433.561 524.806L433.403 520.727C433.376 520.052 433.903 519.483 434.577 519.456C435.251 519.431 435.82 519.956 435.847 520.631L436.004 524.711C436.029 525.386 435.504 525.952 434.829 525.98Z" fill="#232123"/>
<path d="M441.512 525.721C440.837 525.748 440.268 525.221 440.242 524.547L440.086 520.485C440.06 519.809 440.585 519.243 441.26 519.216C441.934 519.191 442.502 519.716 442.529 520.391L442.685 524.453C442.71 525.128 442.186 525.695 441.512 525.721Z" fill="#232123"/>
<path d="M293.201 291.955L296.094 300.939L290.606 319.979L284.833 301.471L288.489 291.955H293.201Z" fill="#4FA6CA"/>
<g opacity="0.5">
<g opacity="0.5">
<path opacity="0.5" d="M291.936 281.821L299.904 290.029L300.918 287.577L292.28 278.031L278.215 290.887L278.978 294.895L291.936 281.821Z" fill="#2F1847"/>
</g>
</g>
<path d="M300.803 267.812C287.069 267.812 275.935 256.679 275.935 242.945V219.182C275.935 205.449 287.069 194.314 300.803 194.314C314.537 194.314 325.671 205.449 325.671 219.182V242.945C325.671 256.679 314.537 267.812 300.803 267.812Z" fill="#F8CB99"/>
<path d="M275.954 237.557V218.35H272.898C270.303 218.35 268.199 220.454 268.199 223.049V229.802C268.199 234.085 271.671 237.557 275.954 237.557Z" fill="#F8CB99"/>
<path d="M325.608 217.494C325.6 217.369 325.589 217.245 325.58 217.119C325.533 216.569 325.476 216.022 325.395 215.481V232.769C325.395 237.871 323.339 244.262 320.045 248.13C319.497 248.773 318.433 248.522 318.259 247.694C317.217 242.737 312.32 240.734 308.264 240.734H305.316C300.249 240.734 295.972 244.09 294.573 248.699C294.257 249.737 293.125 250.222 292.152 249.745C285.879 246.665 281.555 240.229 281.555 232.769V203.439C281.133 203.954 280.735 204.489 280.355 205.035C280.343 205.054 280.329 205.071 280.316 205.09C280.305 205.105 280.295 205.119 280.285 205.134C279.925 205.659 279.588 206.199 279.268 206.751C279.225 206.826 279.183 206.901 279.14 206.974C278.832 207.521 278.543 208.078 278.275 208.649C278.273 208.653 278.272 208.658 278.269 208.662C278.239 208.73 278.208 208.798 278.177 208.866C277.907 209.458 277.653 210.061 277.429 210.677C277.428 210.678 277.428 210.679 277.428 210.679C277.428 210.681 277.427 210.683 277.427 210.685C277.204 211.297 277.009 211.923 276.835 212.557C276.831 212.575 276.825 212.593 276.82 212.61C276.804 212.669 276.785 212.726 276.771 212.785C276.608 213.391 276.473 214.009 276.357 214.633C276.355 214.654 276.351 214.675 276.347 214.695C276.331 214.789 276.313 214.881 276.297 214.971C276.191 215.594 276.107 216.222 276.047 216.859C276.045 216.877 276.045 216.893 276.043 216.91C276.036 216.994 276.031 217.079 276.024 217.165C275.971 217.803 275.936 218.85 275.936 219.491V242.945C275.936 243.055 275.941 243.165 275.944 243.275C275.951 243.813 275.979 244.35 276.019 244.886C276.024 244.971 276.029 245.058 276.037 245.145C276.039 245.163 276.04 245.183 276.043 245.202C276.096 245.807 276.172 246.406 276.269 246.997C276.281 247.075 276.297 247.154 276.311 247.233C276.317 247.263 276.323 247.294 276.328 247.326C276.436 247.934 276.56 248.537 276.711 249.129C276.712 249.133 276.713 249.135 276.713 249.139C276.868 249.741 277.051 250.329 277.247 250.911C277.28 251.009 277.311 251.105 277.345 251.202C277.544 251.767 277.761 252.322 277.999 252.867C278.035 252.949 278.073 253.029 278.109 253.11C278.62 254.258 279.231 255.357 279.905 256.417C279.933 256.459 279.96 256.502 279.988 256.545C280.325 257.059 280.68 257.562 281.053 258.05L281.055 258.051C281.664 258.817 282.285 259.574 282.969 260.271C283.684 260.998 284.437 261.689 285.233 262.329V262.33L285.981 262.901C286.787 263.517 287.636 264.074 288.523 264.566H288.524C290.256 265.551 292.119 266.335 294.08 266.885C295.131 267.179 296.209 267.407 297.311 267.563C297.372 267.573 297.435 267.578 297.496 267.587C297.944 267.647 298.397 267.693 298.853 267.729C298.976 267.739 299.099 267.75 299.223 267.758C299.745 267.791 300.272 267.813 300.803 267.813C301.252 267.813 301.697 267.799 302.14 267.775C302.283 267.769 302.421 267.754 302.563 267.745C302.864 267.722 303.164 267.701 303.464 267.669C303.625 267.653 303.785 267.629 303.947 267.607C304.221 267.574 304.496 267.538 304.768 267.494C304.932 267.467 305.095 267.437 305.257 267.407C305.525 267.358 305.793 267.309 306.057 267.251C306.217 267.217 306.373 267.179 306.531 267.142C306.797 267.079 307.064 267.014 307.328 266.942C307.476 266.902 307.625 266.858 307.773 266.815C308.045 266.737 308.315 266.653 308.583 266.565C308.717 266.521 308.852 266.475 308.985 266.429C309.267 266.33 309.547 266.226 309.823 266.118C309.939 266.074 310.055 266.029 310.169 265.982C310.469 265.859 310.765 265.731 311.059 265.598C311.145 265.558 311.235 265.521 311.321 265.479C311.655 265.323 311.984 265.159 312.309 264.99C312.353 264.966 312.399 264.945 312.441 264.921C315.124 263.497 317.515 261.595 319.5 259.331C321.4 257.166 322.927 254.666 323.988 251.935C324.007 251.887 324.027 251.841 324.045 251.793C324.287 251.161 324.5 250.513 324.691 249.855C324.715 249.775 324.737 249.694 324.76 249.613C324.939 248.969 325.093 248.314 325.22 247.649C325.239 247.559 325.252 247.469 325.269 247.378C325.391 246.707 325.488 246.027 325.553 245.339C325.56 245.27 325.564 245.198 325.571 245.127C325.633 244.409 325.671 243.681 325.671 242.945V219.182C325.671 218.614 325.645 218.053 325.608 217.494Z" fill="#2C2A2D"/>
<path d="M323.88 210.038C324.588 211.829 325.118 213.709 325.395 215.675V215.481C325.432 215.722 325.45 215.969 325.478 216.211C325.506 216.447 325.535 216.682 325.556 216.919C325.563 216.986 325.574 217.053 325.579 217.119C325.59 217.243 325.6 217.369 325.608 217.494C325.646 218.053 325.671 218.614 325.671 219.182V240.613C330.034 239.598 333.288 235.694 333.288 231.023V219.871C333.288 214.579 329.114 210.274 323.88 210.038Z" fill="#4FA6CA"/>
<path d="M302.339 225.586C302.339 227.05 301.153 228.237 299.689 228.237C298.225 228.237 297.038 227.05 297.038 225.586C297.038 224.122 298.225 222.935 299.689 222.935C301.153 222.935 302.339 224.122 302.339 225.586Z" fill="#353236"/>
<path d="M302.624 216.314C300.277 214.329 296.806 214.329 294.46 216.314C294.04 216.666 293.441 216.781 293.062 216.48C292.689 216.178 292.777 215.452 293.336 214.98C296.329 212.448 300.754 212.448 303.749 214.98C304.309 215.452 304.397 216.178 304.021 216.48C303.644 216.782 303.045 216.668 302.624 216.314Z" fill="#353236"/>
<path d="M323.761 225.586C323.761 227.05 322.574 228.237 321.11 228.237C319.646 228.237 318.46 227.05 318.46 225.586C318.46 224.122 319.646 222.935 321.11 222.935C322.574 222.935 323.761 224.122 323.761 225.586Z" fill="#353236"/>
<path d="M324.046 216.314C321.7 214.329 318.228 214.329 315.883 216.314C315.462 216.666 314.863 216.781 314.484 216.48C314.111 216.178 314.199 215.452 314.758 214.98C317.751 212.448 322.178 212.448 325.171 214.98C325.731 215.452 325.819 216.178 325.443 216.48C325.066 216.782 324.467 216.668 324.046 216.314Z" fill="#353236"/>
<path d="M286.683 198.482L272.076 188.373C268.83 187.797 265.85 190.294 265.85 193.592V218.837C265.85 220.941 266.551 222.985 267.843 224.648L268.199 225.106V223.049C268.199 220.454 270.303 218.349 272.898 218.349H275.954C286.035 215.998 290.802 210.89 289.31 202.536C289.016 200.89 288.056 199.433 286.683 198.482Z" fill="#353236"/>
<path d="M299.606 178.473C271.791 178.473 272.077 188.374 272.077 188.374L286.849 198.597C289.75 201.178 296.418 204.809 301.59 204.809C315.325 204.809 325.671 205.447 325.671 219.182C325.671 219.182 331.106 212.827 331.106 200.025C331.106 194.867 327.421 178.473 299.606 178.473Z" fill="#2C2A2D"/>
<path d="M304.768 267.494C304.496 267.538 304.222 267.574 303.947 267.607C303.786 267.629 303.626 267.653 303.463 267.669C303.164 267.701 302.864 267.722 302.563 267.743C302.422 267.754 302.283 267.769 302.14 267.775C301.698 267.799 301.252 267.813 300.803 267.813C300.272 267.813 299.746 267.791 299.223 267.758C299.099 267.75 298.976 267.739 298.852 267.729C298.398 267.693 297.944 267.647 297.496 267.587C297.435 267.578 297.372 267.573 297.311 267.563C296.21 267.407 295.13 267.179 294.08 266.885C292.119 266.335 290.256 265.551 288.524 264.566H288.523C287.538 263.998 286.591 263.367 285.687 262.677L285.234 262.33V262.329C284.73 261.923 284.242 261.498 283.772 261.057C282.788 260.13 281.879 259.126 281.055 258.051L281.054 258.05C280.68 257.562 280.324 257.059 279.988 256.545C279.948 256.485 279.91 256.423 279.871 256.363C279.206 255.327 278.615 254.237 278.106 253.102C278.071 253.023 278.034 252.946 277.999 252.867C277.762 252.322 277.544 251.767 277.346 251.202C277.311 251.105 277.28 251.009 277.247 250.911C277.05 250.329 276.868 249.741 276.714 249.139C276.712 249.135 276.712 249.133 276.711 249.129C276.56 248.537 276.436 247.934 276.328 247.326C276.323 247.294 276.318 247.263 276.311 247.233C276.298 247.154 276.283 247.075 276.27 246.997C276.172 246.406 276.096 245.807 276.043 245.202C276.04 245.183 276.039 245.163 276.038 245.145C276.03 245.058 276.024 244.971 276.019 244.885C275.979 244.35 275.951 243.813 275.944 243.275C275.943 243.165 275.935 243.055 275.935 242.945V237.555C275.2 237.554 274.491 237.445 273.818 237.251V240.381C274.15 240.425 274.486 240.457 274.83 240.457V245.846C274.83 245.957 274.838 246.066 274.839 246.177C274.846 246.714 274.874 247.25 274.912 247.787C274.919 247.873 274.926 247.961 274.932 248.046C274.935 248.065 274.935 248.085 274.936 248.103C274.991 248.709 275.067 249.306 275.164 249.898C275.178 249.977 275.192 250.054 275.206 250.133C275.212 250.165 275.218 250.195 275.223 250.226C275.331 250.834 275.455 251.438 275.606 252.029C275.607 252.033 275.607 252.037 275.608 252.041C275.763 252.641 275.944 253.23 276.142 253.813C276.175 253.91 276.206 254.007 276.24 254.103C276.439 254.667 276.658 255.223 276.895 255.769C276.93 255.847 276.966 255.925 277 256.003C277.51 257.138 278.1 258.227 278.767 259.265C278.804 259.325 278.843 259.386 278.882 259.446C279.22 259.961 279.574 260.463 279.948 260.95C279.948 260.951 279.95 260.953 279.95 260.953C280.774 262.027 281.683 263.031 282.667 263.958C283.138 264.399 283.624 264.826 284.128 265.23L284.13 265.231L284.582 265.578C285.486 266.269 286.432 266.899 287.418 267.467H287.419C289.152 268.454 291.015 269.237 292.975 269.786C294.026 270.081 295.104 270.307 296.206 270.465C296.267 270.473 296.33 270.481 296.391 270.489C296.839 270.549 297.292 270.594 297.747 270.631C297.871 270.639 297.994 270.651 298.118 270.659C298.64 270.691 299.167 270.714 299.698 270.714C300.147 270.714 300.592 270.701 301.036 270.677C301.178 270.67 301.316 270.655 301.458 270.645C301.759 270.625 302.06 270.602 302.358 270.571C302.52 270.553 302.68 270.53 302.842 270.509C303.116 270.474 303.391 270.439 303.663 270.395C303.827 270.369 303.99 270.338 304.152 270.309C304.42 270.259 304.688 270.21 304.954 270.153C305.111 270.118 305.268 270.081 305.426 270.043C305.512 270.023 305.599 269.999 305.684 269.978V267.325C305.543 267.351 305.4 267.382 305.258 267.407C305.095 267.437 304.932 267.467 304.768 267.494Z" fill="#F8CB99"/>
<path d="M328.535 226.086C328.535 230.124 325.25 233.41 321.213 233.41H318.587C314.549 233.41 311.265 230.124 311.265 226.086V220.144H328.535V226.086ZM305.645 226.086C305.645 230.124 302.359 233.41 298.321 233.41H295.695C291.658 233.41 288.373 230.124 288.373 226.086V220.144H305.645V226.086ZM310.367 218.35H309.47H307.438H306.541H287.475H286.578H275.87V220.144H286.578V226.086C286.578 231.114 290.669 235.203 295.695 235.203H298.321C303.347 235.203 307.438 231.114 307.438 226.086V220.144H309.47V226.086C309.47 231.114 313.561 235.203 318.587 235.203H321.213C326.239 235.203 330.33 231.114 330.33 226.086V218.35H310.367Z" fill="#2F1847"/>
<path d="M309.068 253.945H303.982C301.819 253.945 300.067 252.193 300.067 250.03V247.866H312.983V250.03C312.983 252.193 311.231 253.945 309.068 253.945Z" fill="#E4E3E3"/>
<path d="M273.35 207.11H274.284C275.21 207.11 275.961 207.86 275.961 208.788V242.383C275.961 243.31 275.21 244.062 274.284 244.062H273.35C272.424 244.062 271.672 243.31 271.672 242.383V208.788C271.672 207.86 272.424 207.11 273.35 207.11Z" fill="#2F1847"/>
<path d="M268.933 241.156H271.672V210.293H268.933C263.489 210.293 259.077 214.705 259.077 220.149V231.3C259.077 236.742 263.489 241.156 268.933 241.156Z" fill="#4FA6CA"/>
<path d="M268.933 210.293H270.148V189.84C270.148 187.548 271.653 185.622 273.717 184.937C274.954 183.553 277.124 181.996 280.941 180.756H275.334C270.324 180.756 266.249 184.83 266.249 189.84V210.673C267.104 210.432 268.001 210.293 268.933 210.293Z" fill="#2F1847"/>
<g opacity="0.5">
<g opacity="0.5">
<path opacity="0.5" d="M270.327 188.559C270.375 188.375 270.427 188.195 270.493 188.019C270.511 187.974 270.532 187.931 270.551 187.887C270.724 187.468 270.943 187.074 271.216 186.719C271.216 186.718 271.217 186.718 271.217 186.718C271.371 186.519 271.536 186.33 271.716 186.155C271.825 186.048 271.947 185.955 272.065 185.858C272.145 185.794 272.217 185.722 272.301 185.662C272.508 185.512 272.727 185.378 272.956 185.26C272.961 185.256 272.965 185.254 272.971 185.251C273.211 185.128 273.459 185.022 273.719 184.936C273.88 184.756 274.057 184.572 274.252 184.388C274.26 184.382 274.269 184.374 274.276 184.367C274.859 183.815 275.601 183.25 276.535 182.695H275.992C271.781 182.695 268.368 186.108 268.368 190.318V210.334C268.556 210.322 268.741 210.292 268.933 210.292H270.148V189.839C270.148 189.479 270.197 189.134 270.268 188.795C270.287 188.716 270.307 188.638 270.327 188.559Z" fill="#2F1847"/>
</g>
</g>
<g opacity="0.5">
<g opacity="0.5">
<path opacity="0.5" d="M275.217 237.554C275.07 237.037 274.531 236.735 274.013 236.882C273.495 237.029 273.194 237.567 273.341 238.086L274.986 243.895C275.559 243.629 275.962 243.057 275.962 242.383V240.185L275.217 237.554Z" fill="#2F1847"/>
</g>
</g>
<path d="M296.234 257.638H290.524C287.318 257.638 284.396 256.01 282.708 253.285L273.45 238.333C273.166 237.874 273.308 237.274 273.765 236.992C274.224 236.708 274.824 236.849 275.108 237.306L284.365 252.258C285.696 254.406 287.998 255.689 290.524 255.689H296.234C296.773 255.689 297.209 256.125 297.209 256.664C297.209 257.201 296.773 257.638 296.234 257.638Z" fill="#4FA6CA"/>
<path d="M301 259.913H297.751C295.956 259.913 294.501 258.458 294.501 256.663C294.501 254.87 295.956 253.414 297.751 253.414H301C302.795 253.414 304.249 254.87 304.249 256.663C304.249 258.458 302.795 259.913 301 259.913Z" fill="#2F1847"/>
<g opacity="0.5">
<g opacity="0.5">
<path opacity="0.5" d="M328.372 340.82V313.481L333.082 325.015L328.372 340.82Z" fill="#2F1847"/>
</g>
</g>
<path d="M533.375 376.511H517.479L514.019 357.082H536.835L533.375 376.511Z" fill="#F2F0EB"/>
<path d="M539.439 352.096H511.415V357.081H539.439V352.096Z" fill="#E4E3E3"/>
<path d="M529.376 345.374C525.664 345.374 522.655 348.383 522.655 352.096H536.099C536.099 348.383 533.09 345.374 529.376 345.374Z" fill="#394B45"/>
<path d="M518.052 348.233C515.917 348.233 514.189 349.962 514.189 352.096H521.913C521.913 349.962 520.185 348.233 518.052 348.233Z" fill="#2A3B34"/>
<path d="M530.277 318.008C529.428 318.008 528.74 318.698 528.74 319.547V352.096H531.816V319.547C531.816 318.698 531.128 318.008 530.277 318.008Z" fill="#71AE50"/>
<path d="M526.097 329.282C525.246 329.282 524.558 329.971 524.558 330.82V352.096H527.635V330.82C527.635 329.971 526.947 329.282 526.097 329.282Z" fill="#4F8C45"/>
<path d="M521.914 323.16C521.065 323.16 520.375 323.849 520.375 324.699V352.096H523.453V324.699C523.453 323.849 522.765 323.16 521.914 323.16Z" fill="#71AE50"/>
<path d="M517.733 327.074C516.882 327.074 516.194 327.763 516.194 328.613V352.097H519.272V328.613C519.272 327.763 518.582 327.074 517.733 327.074Z" fill="#4F8C45"/>
<path d="M182.828 376.512H159.752V344.537H182.828V376.512Z" fill="#E4E3E3"/>
<path d="M184.939 347.198H182.828V351.763H184.939C185.771 351.763 186.699 352.836 186.699 354.379V367.784C186.699 369.327 185.771 370.4 184.939 370.4H182.828V374.964H184.939C188.427 374.964 191.263 371.743 191.263 367.784V354.379C191.263 350.419 188.427 347.198 184.939 347.198Z" fill="#E4E3E3"/>
<g opacity="0.600006">
<g opacity="0.600006">
<g opacity="0.600006">
<g opacity="0.600006">
<g opacity="0.600006">
<g opacity="0.600006">
<path opacity="0.600006" d="M176.808 311.53C178.071 300.556 185.681 289.581 170.573 278.606C181.195 289.581 170.144 300.556 165.44 311.532C159.325 322.506 159.409 333.481 160.025 344.456C167.604 344.457 175.183 344.457 182.761 344.456C177.66 333.481 174.135 322.506 176.808 311.53" fill="url(#paint0_linear)"/>
</g>
</g>
</g>
</g>
</g>
</g>
<path d="M568.8 388.858H104.839V376.512H568.8V388.858Z" fill="#FEAD65"/>
<path d="M264.365 388.858H104.837V376.512H264.365V388.858Z" fill="#FED182"/>
<path d="M123.567 591.333L162.026 398.427H190.306H218.584L257.044 591.333H266.418L226.051 388.859H190.306H154.56L114.194 591.333H123.567Z" fill="#011627"/>
<path d="M432.773 372.613H369.309V376.512H432.773V372.613Z" fill="#F2F0EB"/>
<path d="M354.27 369.703H348.394C344.632 369.703 341.584 372.751 341.584 376.511H361.078C361.078 372.751 358.03 369.703 354.27 369.703Z" fill="#F2F0EB"/>
<path d="M248.497 84.4653H154.993C145.409 84.4653 137.64 92.2346 137.64 101.82V156.248C137.64 165.832 145.409 173.601 154.993 173.601H192.886C195.858 183.389 204.901 190.561 215.672 190.677C217.774 190.7 219.817 190.451 221.766 189.965C216.341 186.253 212.528 180.38 211.532 173.601H248.497C258.081 173.601 265.85 165.832 265.85 156.248V101.82C265.85 92.2346 258.081 84.4653 248.497 84.4653Z" fill="white"/>
<path d="M216.122 119.957C215.606 121.329 214.824 122.637 213.782 123.881C212.736 125.125 210.936 126.744 208.379 128.737C206.196 130.45 204.736 131.87 203.998 132.996C203.258 134.122 202.888 135.636 202.888 137.536V139.12H195.991V136.868C195.991 134.286 196.459 132.14 197.399 130.428C198.336 128.714 199.979 126.942 202.326 125.113C205.118 122.908 206.918 121.194 207.728 119.974C208.538 118.754 208.942 117.3 208.942 115.61C208.942 113.64 208.286 112.126 206.971 111.07C205.656 110.014 203.768 109.486 201.306 109.486C199.075 109.486 197.011 109.804 195.111 110.437C193.21 111.07 191.356 111.833 189.55 112.725L186.594 106.53C191.356 103.878 196.459 102.553 201.903 102.553C206.502 102.553 210.15 103.68 212.848 105.932C215.546 108.185 216.896 111.293 216.896 115.258C216.896 117.018 216.638 118.584 216.122 119.957ZM203.575 154.305C202.671 155.28 201.387 155.766 199.722 155.766C198.055 155.766 196.776 155.29 195.884 154.341C194.992 153.39 194.547 152.06 194.547 150.346C194.547 146.804 196.272 145.033 199.722 145.033C201.411 145.033 202.7 145.496 203.592 146.422C204.483 147.349 204.93 148.657 204.93 150.346C204.93 152.013 204.478 153.333 203.575 154.305" fill="#2F1847"/>
<path d="M419.027 249.734H365.125C359.599 249.734 355.119 254.213 355.119 259.738V291.116C355.119 296.641 359.599 301.12 365.125 301.12H386.434C385.859 305.028 383.662 308.413 380.534 310.553C381.658 310.833 382.834 310.977 384.047 310.964C390.257 310.897 395.469 306.762 397.182 301.12H419.027C424.553 301.12 429.031 296.641 429.031 291.116V259.738C429.031 254.213 424.553 249.734 419.027 249.734Z" fill="white"/>
<path d="M409.135 279.948C406.691 279.948 404.711 277.966 404.711 275.524C404.711 273.08 406.691 271.1 409.135 271.1C411.579 271.1 413.559 273.08 413.559 275.524C413.559 277.966 411.579 279.948 409.135 279.948ZM393.165 279.948C390.721 279.948 388.741 277.966 388.741 275.524C388.741 273.08 390.721 271.1 393.165 271.1C395.607 271.1 397.59 273.08 397.59 275.524C397.59 277.966 395.607 279.948 393.165 279.948ZM377.195 279.948C374.751 279.948 372.771 277.966 372.771 275.524C372.771 273.08 374.751 271.1 377.195 271.1C379.638 271.1 381.619 273.08 381.619 275.524C381.619 277.966 379.638 279.948 377.195 279.948Z" fill="#2F1847"/>
<path d="M462.939 142.289H391.649C384.343 142.289 378.417 148.383 378.417 155.899V198.584C378.417 206.1 384.343 212.193 391.649 212.193H419.832C419.073 217.508 416.165 222.115 412.028 225.025C413.516 225.407 415.072 225.601 416.676 225.584C424.888 225.493 431.781 219.869 434.048 212.193H462.939C470.245 212.193 476.169 206.1 476.169 198.584V155.899C476.169 148.383 470.245 142.289 462.939 142.289Z" fill="white"/>
<path d="M414.638 190.114C410.791 190.114 407.671 186.906 407.671 182.948C407.671 178.991 410.791 175.783 414.638 175.783C418.486 175.783 421.605 178.991 421.605 182.948C421.605 186.906 418.486 190.114 414.638 190.114ZM432.997 186.078V179.819L428.661 178.794C428.354 177.7 427.938 176.658 427.413 175.683L429.771 171.81L425.467 167.384L421.702 169.808C420.754 169.268 419.739 168.84 418.678 168.527L417.681 164.066H411.597L410.599 168.527C409.537 168.84 408.522 169.268 407.574 169.808L403.81 167.384L399.506 171.81L401.865 175.683C401.338 176.658 400.923 177.7 400.617 178.794L396.281 179.819V186.078L400.617 187.103C400.923 188.196 401.338 189.239 401.865 190.214L399.506 194.087L403.81 198.512L407.574 196.087C408.522 196.628 409.537 197.056 410.599 197.37L411.597 201.831H417.681L418.678 197.37C419.739 197.056 420.754 196.628 421.702 196.087L425.467 198.512L429.771 194.087L427.413 190.214C427.938 189.239 428.354 188.196 428.661 187.103L432.997 186.078Z" fill="#2F1847"/>
<path d="M444.658 169.394C441.796 169.394 439.478 167.008 439.478 164.066C439.478 161.124 441.796 158.739 444.658 158.739C447.519 158.739 449.838 161.124 449.838 164.066C449.838 167.008 447.519 169.394 444.658 169.394ZM458.306 166.394V161.739L455.083 160.978C454.855 160.164 454.546 159.39 454.155 158.664L455.908 155.784L452.71 152.494L449.91 154.296C449.204 153.895 448.451 153.576 447.662 153.343L446.919 150.027H442.396L441.654 153.343C440.864 153.576 440.111 153.895 439.406 154.296L436.606 152.494L433.407 155.784L435.16 158.664C434.77 159.39 434.46 160.164 434.232 160.978L431.01 161.739V166.394L434.232 167.155C434.46 167.968 434.77 168.743 435.16 169.468L433.407 172.348L436.606 175.639L439.406 173.836C440.111 174.238 440.864 174.556 441.654 174.79L442.396 178.106H446.919L447.662 174.79C448.451 174.556 449.204 174.238 449.91 173.836L452.71 175.639L455.908 172.348L454.155 169.468C454.546 168.743 454.855 167.968 455.083 167.155L458.306 166.394Z" fill="#2F1847"/>
<path d="M107.689 206.956V252.457C107.689 260.47 114.184 266.965 122.196 266.965H153.875C156.36 275.148 163.919 281.144 172.924 281.24C174.681 281.26 176.388 281.052 178.019 280.645C173.483 277.542 170.295 272.632 169.463 266.965H200.364C208.377 266.965 214.872 260.47 214.872 252.457V206.956C214.872 198.944 208.377 192.449 200.364 192.449H122.196C114.184 192.449 107.689 198.944 107.689 206.956Z" fill="white"/>
<path d="M191.627 247.695H130.935V210.775H191.627V247.695Z" fill="#2F1847"/>
<path d="M191.626 247.695L161.281 220.517L130.934 247.695H191.626Z" fill="#537996"/>
<path d="M130.935 210.775L161.28 230.259L191.627 210.775H130.935Z" fill="#B1E5F3"/>
<path d="M388.569 52.8905H308.693C300.505 52.8905 293.868 59.5278 293.868 67.7158V114.212C293.868 122.398 300.505 129.036 308.693 129.036H340.269C339.42 134.826 336.161 139.844 331.526 143.014C333.192 143.429 334.936 143.642 336.733 143.622C345.934 143.524 353.658 137.397 356.198 129.036H388.569C396.757 129.036 403.393 122.398 403.393 114.212V67.7158C403.393 59.5278 396.757 52.8905 388.569 52.8905Z" fill="white"/>
<path d="M328.813 102.139H313.239V98.3218L318.479 93.0232C319.977 91.4565 320.955 90.3885 321.415 89.8152C321.875 89.2432 322.195 88.7512 322.376 88.3392C322.559 87.9285 322.648 87.4992 322.648 87.0485C322.648 86.4898 322.467 86.0498 322.105 85.7258C321.743 85.4032 321.233 85.2432 320.579 85.2432C319.903 85.2432 319.22 85.4352 318.529 85.8232C317.841 86.2085 317.06 86.7778 316.189 87.5325L313.004 83.8045C314.109 82.8152 315.037 82.1085 315.792 81.6832C316.545 81.2565 317.367 80.9312 318.252 80.7058C319.137 80.4805 320.132 80.3685 321.239 80.3685C322.629 80.3685 323.869 80.6125 324.96 81.1032C326.052 81.5912 326.899 82.2885 327.5 83.1952C328.101 84.0992 328.403 85.1152 328.403 86.2405C328.403 87.0818 328.297 87.8605 328.088 88.5752C327.877 89.2885 327.551 89.9912 327.111 90.6818C326.671 91.3712 326.087 92.0978 325.356 92.8618C324.628 93.6245 323.073 95.0738 320.696 97.2072V97.3538H328.813V102.139Z" fill="#2F1847"/>
<path d="M341.285 93.6541V91.1581C341.285 90.6887 341.304 90.0554 341.337 89.2581C341.37 88.4594 341.398 88.0421 341.42 88.0021H341.257C340.924 88.7567 340.546 89.4607 340.126 90.1154L337.749 93.6541H341.285ZM349.374 97.9847H347.012V102.139H341.285V97.9847H332.728V93.7274L341.653 80.6767H347.012V93.6541H349.374V97.9847Z" fill="#2F1847"/>
<path d="M365.311 80.3684L357.311 102.434H352.231L360.233 80.3684H365.311Z" fill="#2F1847"/>
<path d="M370.694 102.139L378.062 85.5058H368.77V80.7058H384.258V84.1272L376.698 102.139H370.694Z" fill="#2F1847"/>
<path d="M328.99 74.9392C333.699 69.3299 340.752 65.7539 348.631 65.7539C356.511 65.7539 363.564 69.3299 368.272 74.9392H373.154C367.844 67.0525 358.834 61.8552 348.631 61.8552C338.428 61.8552 329.419 67.0525 324.107 74.9392H328.99Z" fill="#2F1847"/>
<path d="M368.272 107.863C363.564 113.472 356.511 117.048 348.632 117.048C340.752 117.048 333.699 113.472 328.99 107.863H324.107C329.419 115.749 338.428 120.947 348.632 120.947C358.834 120.947 367.844 115.749 373.154 107.863H368.272Z" fill="#2F1847"/>
<defs>
<linearGradient id="paint0_linear" x1="171.257" y1="238.287" x2="171.257" y2="392.373" gradientUnits="userSpaceOnUse">
<stop stop-color="#FCFCFD"/>
<stop offset="0.584962" stop-color="#FCFCFD"/>
<stop offset="1" stop-color="#FCFCFD"/>
</linearGradient>
</defs>
</svg>
