<svg width="46" height="46" viewBox="0 0 46 46" fill="none" xmlns="http://www.w3.org/2000/svg">
<path fill-rule="evenodd" clip-rule="evenodd" d="M6.5702 0.24292C2.94158 0.24292 0 3.18449 0 6.81311V29.0246C0 31.1166 0.977685 32.9802 2.50105 34.1834C3.67078 35.9955 5.70783 37.1951 8.02508 37.1951H37.0742C40.7028 37.1951 43.6444 34.2535 43.6444 30.6249V8.41341C43.6444 6.32146 42.6667 4.45787 41.1434 3.25462C39.9736 1.44254 37.9366 0.24292 35.6193 0.24292H6.5702ZM41.1434 3.25462C40.0243 2.37076 38.6109 1.84322 37.0742 1.84322H8.02509C4.39647 1.84322 1.4549 4.78479 1.4549 8.41341V30.6249C1.4549 31.9363 1.83909 33.1579 2.50105 34.1834C3.62007 35.0673 5.03352 35.5948 6.57019 35.5948H35.6193C39.2479 35.5948 42.1895 32.6532 42.1895 29.0246V6.81312C42.1895 5.50175 41.8053 4.28011 41.1434 3.25462Z" fill="#FFB238"/>
<path d="M6.23143 3.0423C4.8318 3.38844 3.26663 4.83322 2.66464 6.33819L2.31849 7.19603L2.27334 20.3947C2.22819 35.0532 2.21314 34.8274 3.20643 36.3625C3.71812 37.1752 4.50071 37.8825 5.32845 38.319C6.33678 38.8306 7.45046 38.8758 18.4518 38.8758H29.3328V42.1115C29.3328 45.1666 29.3479 45.3472 29.6037 45.2117C29.7392 45.1214 30.7475 44.3088 31.816 43.3757C32.8996 42.4576 34.525 41.058 35.4581 40.2905L37.1286 38.8758H38.8443C41.7639 38.8758 43.1034 38.4695 44.3374 37.1902C44.6836 36.8441 45.1652 36.1367 45.3909 35.6401L45.8123 34.7371V20.8161V6.89504L45.3157 5.8867C44.7739 4.77302 43.8408 3.83993 42.7271 3.31319L42.0499 2.9821L24.3664 2.952C14.6443 2.952 6.48728 2.9821 6.23143 3.0423ZM21.2361 11.7862L21.2812 16.7526L24.2912 13.4116C27.6774 9.64914 28.6556 8.56556 29.6338 7.52713L30.3111 6.80474L32.0869 6.84989L33.8478 6.89504L32.4632 8.47526C30.7174 10.4618 24.2912 17.7459 23.8096 18.2727L23.4484 18.664L25.9617 22.1104C30.5669 28.4162 34.3895 33.6836 34.5099 33.8642C34.6002 34.0147 34.209 34.0599 32.7491 34.0599H30.883L28.5954 31.0198C27.3312 29.3342 25.164 26.4597 23.7795 24.6237L21.2812 21.2826L21.2361 27.6637L21.206 34.0599H19.701H18.196V29.3192V24.5785H15.8633H13.5306V22.9983V21.4181H15.8633H18.196V19.8378V18.2576H15.8633H13.5306V16.6021V14.9467H15.8633H18.196V10.8832V6.81979H19.701H21.206L21.2361 11.7862Z" fill="#FFB238"/>
</svg>
