<svg width="50" height="50" viewBox="0 0 50 50" fill="none" xmlns="http://www.w3.org/2000/svg">
<g clip-path="url(#clip0)">
<path d="M33.3333 23.9583C33.3333 22.577 33.8821 21.2522 34.8588 20.2755C35.8356 19.2987 37.1603 18.75 38.5417 18.75C39.923 18.75 41.2478 19.2987 42.2245 20.2755C43.2013 21.2522 43.75 22.577 43.75 23.9583C43.75 25.3397 43.2013 26.6644 42.2245 27.6412C41.2478 28.6179 39.923 29.1667 38.5417 29.1667C37.1603 29.1667 35.8356 28.6179 34.8588 27.6412C33.8821 26.6644 33.3333 25.3397 33.3333 23.9583V23.9583ZM27.0833 6.25V41.6667H50V6.25H27.0833ZM45.8333 33.3333C43.5417 33.3333 41.6667 35.2083 41.6667 37.5H35.4167C35.4167 36.3949 34.9777 35.3351 34.1963 34.5537C33.4149 33.7723 32.3551 33.3333 31.25 33.3333V14.5833C33.5625 14.5833 35.4167 12.7292 35.4167 10.4167H41.6667C41.6667 11.5217 42.1057 12.5815 42.8871 13.3629C43.6685 14.1443 44.7283 14.5833 45.8333 14.5833V33.3333ZM14.5833 12.5C16.875 12.5 18.75 14.375 18.75 16.6667C18.75 18.9583 16.875 20.8333 14.5833 20.8333C12.2917 20.8333 10.4167 18.9583 10.4167 16.6667C10.4167 14.375 12.2917 12.5 14.5833 12.5ZM14.5833 8.33333C9.97917 8.33333 6.25 12.0625 6.25 16.6667C6.25 21.2708 9.97917 25 14.5833 25C19.1875 25 22.9167 21.2708 22.9167 16.6667C22.9167 12.0625 19.1875 8.33333 14.5833 8.33333ZM14.5833 29.1667C6.52083 29.1667 0 32.8958 0 37.5V41.6667H22.9167V37.5H4.16667C4.16667 36.2917 7.8125 33.3333 14.5833 33.3333C18.3958 33.3333 21.1875 34.2708 22.9167 35.3125V30.6667C20.5625 29.7292 17.7083 29.1667 14.5833 29.1667Z" fill="#FFB238"/>
</g>
<defs>
<clipPath id="clip0">
<rect width="50" height="50" fill="white"/>
</clipPath>
</defs>
</svg>
