<svg width="480" height="480" viewBox="0 0 480 480" fill="none" xmlns="http://www.w3.org/2000/svg">
<path d="M240 480C107.452 480 0 372.548 0 240C0 107.452 107.452 0 240 0C372.548 0 480 107.452 480 240C479.85 372.486 372.486 479.85 240 480ZM240 16C116.288 16 16 116.288 16 240C16 363.712 116.288 464 240 464C363.712 464 464 363.712 464 240C463.859 116.347 363.653 16.141 240 16Z" fill="#FFB238"/>
<path d="M336 248H144C139.582 248 136 244.418 136 240C136 235.582 139.582 232 144 232H336C340.418 232 344 235.582 344 240C344 244.418 340.418 248 336 248Z" fill="#FAFAFA"/>
<path d="M336 328H144C139.582 328 136 324.418 136 320C136 315.582 139.582 312 144 312H336C340.418 312 344 315.582 344 320C344 324.418 340.418 328 336 328Z" fill="#FAFAFA"/>
<path d="M336 168H144C139.582 168 136 164.418 136 160C136 155.582 139.582 152 144 152H336C340.418 152 344 155.582 344 160C344 164.418 340.418 168 336 168Z" fill="#FAFAFA"/>
</svg>
