<svg width="553" height="424" viewBox="0 0 553 424" fill="none" xmlns="http://www.w3.org/2000/svg">
<path opacity="0.4" d="M380.539 106.584L374.809 113.835L343.435 153.452L337.705 135.506L187.725 174.762C179.23 176.966 170.255 175.684 162.722 171.197L161.84 170.676C152.344 164.988 140.483 164.948 130.947 170.636L76.6527 202.963L68.8792 181.292L64.9124 170.236L140.083 138.27C150.3 133.904 162.001 134.785 171.497 140.553C177.948 145.721 186.002 148.164 194.096 147.603C195.939 147.483 197.783 147.203 199.626 146.722L327.367 115.317L319.153 96.8904L380.539 106.584Z" fill="#6457A4"/>
<path opacity="0.4" d="M503.182 6.99206L498.398 57.3008L483.83 45.3569L379.317 159.865C373.386 166.333 365.157 170.139 356.395 170.471L355.372 170.513C344.309 170.904 334.334 177.321 329.425 187.28L301.442 243.936L283.133 229.977L328.128 161.629C334.342 152.208 344.729 146.574 356.111 146.454C364.533 147.44 372.808 145.18 379.329 140.286C380.844 139.161 382.217 137.889 383.524 136.517L474.067 38.9864L456.517 27.3042L503.182 6.99206Z" fill="white"/>
<path opacity="0.5" d="M243.903 396.961C243.903 396.961 245.706 388.549 236.33 387.707C236.33 387.707 234.687 394.717 243.903 396.961Z" fill="#6457A4"/>
<path d="M244.303 400.085C244.303 400.085 251.436 401.608 252.117 393.636C252.117 393.596 246.147 392.234 244.303 400.085Z" fill="#6457A4"/>
<path d="M243.782 395.839C243.782 395.839 245.786 406.214 244.223 411.382" stroke="#6457A4" stroke-width="1.6236" stroke-miterlimit="10" stroke-linecap="round" stroke-linejoin="round"/>
<path d="M335.181 383.622C335.181 383.622 326.726 382.019 329.611 373.006C329.611 373.006 336.703 374.248 335.181 383.622Z" fill="#6457A4"/>
<path opacity="0.5" d="M336.182 373.447C336.503 373.086 335.581 371.003 335.421 370.563C333.979 365.996 335.301 359.827 339.388 356.943C339.548 358.826 339.669 360.628 340.109 362.471C340.831 365.355 340.51 366.958 338.907 369.361C338.026 370.803 337.344 372.165 336.182 373.447Z" fill="#6457A4"/>
<path opacity="0.5" d="M335.06 392.235C335.06 392.235 333.257 383.823 342.633 382.981C342.633 382.981 344.316 389.991 335.06 392.235Z" fill="#6457A4"/>
<path d="M334.98 400.005C334.98 400.005 327.848 401.527 327.167 393.556C327.127 393.516 333.097 392.154 334.98 400.005Z" fill="#6457A4"/>
<path d="M338.306 359.827C338.306 359.827 333.538 381.298 335.1 411.301" stroke="#6457A4" stroke-width="1.6236" stroke-miterlimit="10" stroke-linecap="round" stroke-linejoin="round"/>
<path d="M428.142 329.583C428.142 329.583 431.708 321.732 422.692 318.928C422.692 318.928 419.607 325.417 428.142 329.583Z" fill="#6457A4"/>
<path opacity="0.5" d="M430.145 345.807C430.065 345.447 431.548 344.405 431.788 344.165C434.553 341.682 436.155 336.995 434.553 333.43C433.671 334.631 432.91 335.793 431.828 336.875C430.185 338.517 429.744 339.719 429.865 342.002C429.985 343.284 429.865 344.486 430.145 345.807Z" fill="#6457A4"/>
<path opacity="0.5" d="M431.989 390.552C431.989 390.552 433.792 382.14 424.415 381.299C424.415 381.299 422.773 388.309 431.989 390.552Z" fill="#6457A4"/>
<path d="M431.708 360.909C431.708 360.909 431.508 352.297 422.171 353.699C422.131 353.739 422.211 360.949 431.708 360.909Z" fill="#6457A4"/>
<path d="M432.229 377.092C432.229 377.092 440.684 375.45 437.758 366.477C437.798 366.477 430.706 367.718 432.229 377.092Z" fill="#6457A4"/>
<path d="M432.109 397.882C432.109 397.882 439.241 399.404 439.922 391.433C439.922 391.433 433.952 390.071 432.109 397.882Z" fill="#6457A4"/>
<path d="M427.501 327.422C427.501 327.422 435.274 361.951 431.267 411.302" stroke="#6457A4" stroke-width="1.6236" stroke-miterlimit="10" stroke-linecap="round" stroke-linejoin="round"/>
<path d="M538.813 329.583C538.813 329.583 535.247 321.732 544.263 318.928C544.223 318.928 547.348 325.417 538.813 329.583Z" fill="#6457A4"/>
<path opacity="0.5" d="M536.81 345.807C536.89 345.447 535.407 344.405 535.167 344.165C532.402 341.682 530.8 336.995 532.402 333.43C533.284 334.631 534.045 335.793 535.127 336.875C536.77 338.517 539.174 339.719 539.054 342.002C538.934 343.284 537.05 344.486 536.81 345.807Z" fill="#6457A4"/>
<path opacity="0.5" d="M541.698 311.799C541.778 311.439 540.296 310.397 540.056 310.157C537.291 307.673 535.688 302.986 537.291 299.421C538.172 300.623 538.934 301.785 540.015 302.866C541.658 304.509 542.099 305.71 541.979 307.994C541.859 309.316 541.979 310.517 541.698 311.799Z" fill="#6457A4"/>
<path opacity="0.5" d="M534.967 390.552C534.967 390.552 533.163 382.14 542.54 381.299C542.54 381.299 544.183 388.309 534.967 390.552Z" fill="#6457A4"/>
<path d="M535.568 360.909C535.568 360.909 535.768 352.297 545.104 353.699C545.104 353.739 545.946 360.949 535.568 360.909Z" fill="#6457A4"/>
<path d="M543.421 296.777C543.421 296.777 541.218 288.445 550.554 287.164C550.554 287.204 553.359 293.853 543.421 296.777Z" fill="#6457A4"/>
<path d="M534.686 377.092C534.686 377.092 526.232 375.45 529.157 366.477C529.157 366.477 536.249 367.718 534.686 377.092Z" fill="#6457A4"/>
<path d="M534.847 397.882C534.847 397.882 527.714 399.404 527.033 391.433C526.993 391.433 532.963 390.071 534.847 397.882Z" fill="#6457A4"/>
<path opacity="0.5" d="M546.387 276.428C546.387 276.428 543.021 268.777 551.796 266.173C551.796 266.173 554.721 272.502 546.387 276.428Z" fill="#6457A4"/>
<path d="M547.068 274.545C547.068 274.545 531.641 361.991 535.648 411.301" stroke="#6457A4" stroke-width="1.6236" stroke-miterlimit="10" stroke-linecap="round" stroke-linejoin="round"/>
<path opacity="0.2" d="M222.786 341.922H171.657V411.382H222.786V341.922Z" fill="#6457A4"/>
<path opacity="0.5" d="M183.959 333.59L171.657 341.922H222.746L235.047 333.59H183.959Z" fill="#6457A4"/>
<path d="M222.746 411.381L235.047 403.049V333.59L222.746 341.922V411.381Z" fill="#4E4688"/>
<path opacity="0.2" d="M307.653 310.357H256.524V411.382H307.653V310.357Z" fill="#6457A4"/>
<path opacity="0.5" d="M268.826 302.506L256.524 310.357H307.613L319.914 302.506H268.826Z" fill="#6457A4"/>
<path d="M307.613 411.382L319.914 400.166V306.431V302.506L307.613 310.357V411.382Z" fill="#4E4688"/>
<path opacity="0.2" d="M405.142 262.888H354.013V411.182H405.142V262.888Z" fill="#6457A4"/>
<path opacity="0.5" d="M366.315 254.997L354.013 262.888H405.142L417.443 254.997H366.315Z" fill="#6457A4"/>
<path d="M405.142 411.382L417.443 400.165V258.962V254.997L405.142 262.888V411.382Z" fill="#4E4688"/>
<path opacity="0.2" d="M501.429 205.286H450.3V411.382H501.429V205.286Z" fill="#6457A4"/>
<path d="M462.602 197.435L450.3 205.286H501.389L513.69 197.435H462.602Z" fill="#4E4688"/>
<path d="M501.389 411.382L513.69 400.166V201.36V197.435L501.389 205.286V411.382Z" fill="#4E4688"/>
<path d="M475.303 323.936C483.336 323.936 489.849 317.426 489.849 309.395C489.849 301.364 483.336 294.854 475.303 294.854C467.27 294.854 460.758 301.364 460.758 309.395C460.758 317.426 467.27 323.936 475.303 323.936Z" fill="#FFB238"/>
<path d="M474.622 317.927C473.981 317.887 473.42 317.767 472.939 317.646C472.459 317.486 472.018 317.326 471.657 317.126C471.296 316.925 470.976 316.765 470.776 316.565C470.535 316.365 470.375 316.244 470.255 316.164C470.134 316.044 470.054 315.964 470.054 315.884C470.014 315.804 470.054 315.643 470.175 315.483L471.056 314.081C471.136 313.921 471.256 313.841 471.417 313.841C471.577 313.841 471.737 313.921 471.978 314.121C472.338 314.402 472.739 314.682 473.22 314.922C473.701 315.163 474.181 315.323 474.662 315.403V310.917C474.141 310.716 473.58 310.436 473.06 310.196C472.539 309.915 472.018 309.595 471.577 309.194C471.136 308.794 470.776 308.313 470.495 307.792C470.215 307.231 470.094 306.59 470.094 305.829C470.094 305.269 470.175 304.748 470.375 304.267C470.535 303.786 470.816 303.306 471.216 302.945C471.577 302.545 472.058 302.224 472.659 301.984C473.22 301.703 473.901 301.543 474.702 301.503V300.782C474.702 300.662 474.742 300.542 474.823 300.462C474.903 300.382 475.023 300.341 475.143 300.341H475.424C475.544 300.341 475.664 300.382 475.744 300.462C475.824 300.542 475.864 300.662 475.864 300.782V301.543C476.385 301.583 476.866 301.663 477.307 301.824C477.748 301.944 478.148 302.104 478.509 302.264C478.87 302.424 479.15 302.585 479.391 302.745C479.631 302.905 479.791 302.985 479.911 303.065C480.032 303.146 480.112 303.266 480.112 303.426C480.152 303.586 480.112 303.706 480.032 303.826L479.11 305.148C478.91 305.429 478.709 305.469 478.469 305.349C478.148 305.148 477.748 304.908 477.307 304.668C476.866 304.427 476.385 304.227 475.824 304.107V308.313C476.345 308.513 476.866 308.794 477.427 309.074C477.988 309.354 478.509 309.715 478.99 310.116C479.471 310.516 479.831 311.037 480.152 311.598C480.472 312.158 480.633 312.799 480.633 313.56C480.633 314.802 480.232 315.884 479.391 316.725C478.549 317.566 477.387 318.047 475.824 318.127V320.53C475.824 320.651 475.784 320.771 475.704 320.811C475.624 320.891 475.504 320.931 475.384 320.931C475.263 320.931 475.103 320.931 474.903 320.891C474.742 320.851 474.662 320.731 474.662 320.53V317.927H474.622ZM474.622 303.907C474.021 303.987 473.58 304.187 473.3 304.467C473.019 304.788 472.859 305.148 472.859 305.589C472.859 306.07 473.019 306.43 473.3 306.751C473.58 307.031 474.021 307.352 474.622 307.672V303.907ZM475.784 315.403C476.305 315.323 476.746 315.163 477.066 314.882C477.387 314.602 477.547 314.201 477.547 313.681C477.547 313.24 477.427 312.799 477.147 312.399C476.866 311.998 476.425 311.638 475.784 311.317V315.403Z" fill="#F6F7F7"/>
<path opacity="0.9" d="M393.682 308.193C393.682 316.766 389.034 323.696 383.304 323.696C383.104 323.696 382.903 323.696 382.663 323.655H378.095C378.976 323.655 379.818 323.495 380.659 323.175C381.821 322.734 382.903 322.013 383.865 321.012C386.63 318.248 388.433 313.521 388.433 308.153C388.433 302.785 386.63 298.099 383.865 295.295C382.903 294.333 381.821 293.612 380.659 293.132C379.818 292.811 378.976 292.651 378.055 292.651H383.224C383.424 292.651 383.624 292.651 383.825 292.691C389.354 293.172 393.682 299.941 393.682 308.193Z" fill="#F37C20"/>
<path d="M388.513 308.194C388.513 313.562 386.71 318.248 383.945 321.052C382.984 322.014 381.902 322.775 380.74 323.216C379.938 323.536 379.057 323.696 378.175 323.696C378.015 323.696 377.855 323.696 377.694 323.696C372.205 323.336 367.797 316.526 367.797 308.234C367.797 299.942 372.165 293.132 377.694 292.772C377.855 292.772 378.015 292.772 378.175 292.772C379.057 292.772 379.938 292.932 380.78 293.253C381.942 293.693 383.024 294.414 383.985 295.416C386.67 298.099 388.513 302.826 388.513 308.194Z" fill="#FFB238"/>
<path d="M377.654 317.247C377.214 317.207 376.813 317.086 376.452 316.926C376.092 316.766 375.811 316.566 375.531 316.405C375.25 316.245 375.05 316.005 374.89 315.805C374.729 315.604 374.609 315.444 374.529 315.364C374.449 315.244 374.409 315.124 374.369 315.043C374.329 314.963 374.369 314.803 374.449 314.643L375.09 313.161C375.17 313.001 375.25 312.92 375.33 312.92C375.451 312.92 375.571 313.001 375.731 313.241C375.971 313.561 376.292 313.842 376.613 314.082C376.933 314.322 377.294 314.483 377.654 314.563V309.756C377.254 309.516 376.893 309.275 376.492 308.955C376.092 308.674 375.771 308.314 375.45 307.873C375.13 307.473 374.89 306.952 374.689 306.391C374.489 305.83 374.409 305.109 374.409 304.308C374.409 303.707 374.489 303.146 374.609 302.626C374.729 302.105 374.93 301.624 375.21 301.184C375.491 300.783 375.811 300.422 376.212 300.142C376.613 299.862 377.093 299.701 377.654 299.621V298.82C377.654 298.7 377.694 298.58 377.734 298.5C377.815 298.42 377.855 298.38 377.975 298.38H378.175C378.255 298.38 378.335 298.42 378.416 298.5C378.456 298.58 378.496 298.7 378.496 298.82V299.621C378.856 299.661 379.217 299.782 379.538 299.902C379.858 300.022 380.139 300.182 380.419 300.382C380.66 300.543 380.9 300.703 381.06 300.863C381.22 301.023 381.341 301.144 381.421 301.224C381.501 301.304 381.541 301.424 381.581 301.584C381.581 301.744 381.581 301.905 381.541 302.025L380.9 303.467C380.74 303.747 380.619 303.827 380.459 303.667C380.219 303.427 379.938 303.186 379.618 302.946C379.297 302.666 378.937 302.505 378.576 302.345V306.832C378.937 307.072 379.337 307.312 379.738 307.633C380.139 307.953 380.499 308.314 380.82 308.754C381.14 309.195 381.421 309.716 381.661 310.317C381.902 310.918 381.982 311.599 381.982 312.4C381.982 313.762 381.701 314.843 381.1 315.765C380.499 316.646 379.658 317.167 378.576 317.247V319.81C378.576 319.931 378.536 320.051 378.496 320.131C378.416 320.211 378.335 320.251 378.255 320.251C378.175 320.251 378.055 320.211 377.935 320.171C377.815 320.131 377.734 320.011 377.734 319.81V317.247H377.654ZM377.654 302.345C377.254 302.425 376.933 302.626 376.733 302.946C376.532 303.267 376.412 303.667 376.412 304.148C376.412 304.629 376.532 305.029 376.733 305.35C376.933 305.67 377.254 305.99 377.654 306.311V302.345ZM378.496 314.603C378.856 314.523 379.177 314.363 379.417 314.082C379.658 313.802 379.778 313.361 379.778 312.8C379.778 312.32 379.698 311.879 379.497 311.438C379.297 310.998 378.977 310.637 378.536 310.277V314.603H378.496Z" fill="#F6F7F7"/>
<path opacity="0.9" d="M487.645 371.805C487.645 380.377 482.997 387.307 477.267 387.307C477.066 387.307 476.866 387.307 476.626 387.267H472.058C472.939 387.267 473.781 387.107 474.622 386.786C475.784 386.346 476.866 385.625 477.828 384.623C480.593 381.859 482.396 377.133 482.396 371.765C482.396 366.397 480.593 361.71 477.828 358.906C476.866 357.945 475.784 357.224 474.622 356.743C473.781 356.423 472.939 356.263 472.018 356.263H477.187C477.387 356.263 477.587 356.263 477.788 356.303C483.317 356.783 487.645 363.553 487.645 371.805Z" fill="#F37C20"/>
<path d="M482.476 371.806C482.476 377.173 480.673 381.86 477.908 384.664C476.946 385.626 475.865 386.387 474.703 386.827C473.901 387.148 473.02 387.308 472.138 387.308C471.978 387.308 471.818 387.308 471.657 387.308C466.168 386.947 461.76 380.138 461.76 371.846C461.76 363.554 466.128 356.744 471.657 356.383C471.818 356.383 471.978 356.383 472.138 356.383C473.02 356.383 473.901 356.544 474.743 356.864C475.905 357.305 476.987 358.026 477.948 359.027C480.673 361.711 482.476 366.438 482.476 371.806Z" fill="#FFB238"/>
<path d="M471.617 380.859C471.177 380.819 470.776 380.699 470.415 380.538C470.055 380.378 469.774 380.178 469.494 380.018C469.213 379.817 469.013 379.617 468.853 379.417C468.692 379.217 468.572 379.056 468.492 378.976C468.412 378.856 468.372 378.736 468.332 378.656C468.292 378.576 468.332 378.415 468.412 378.255L469.053 376.773C469.133 376.613 469.213 376.533 469.293 376.533C469.414 376.533 469.534 376.613 469.694 376.853C469.934 377.174 470.255 377.454 470.576 377.694C470.896 377.935 471.257 378.095 471.617 378.175V373.368C471.217 373.128 470.856 372.887 470.455 372.567C470.055 372.287 469.734 371.926 469.414 371.485C469.093 371.085 468.853 370.564 468.652 370.003C468.452 369.442 468.372 368.721 468.372 367.92C468.372 367.319 468.452 366.759 468.572 366.238C468.692 365.717 468.893 365.236 469.173 364.796C469.454 364.395 469.774 364.035 470.175 363.754C470.576 363.474 471.056 363.314 471.617 363.234V362.432C471.617 362.312 471.657 362.192 471.698 362.112C471.778 362.032 471.818 361.992 471.938 361.992H472.138C472.218 361.992 472.299 362.032 472.379 362.112C472.419 362.192 472.459 362.312 472.459 362.432V363.234C472.819 363.274 473.18 363.394 473.501 363.514C473.821 363.634 474.102 363.794 474.382 363.995C474.663 364.195 474.863 364.315 475.023 364.475C475.184 364.636 475.304 364.756 475.384 364.836C475.464 364.916 475.504 365.036 475.544 365.196C475.544 365.357 475.544 365.517 475.504 365.637L474.863 367.079C474.703 367.359 474.583 367.44 474.422 367.279C474.182 367.039 473.901 366.799 473.581 366.558C473.26 366.278 472.9 366.118 472.539 365.957V370.444C472.9 370.684 473.3 370.925 473.701 371.245C474.102 371.566 474.462 371.926 474.783 372.367C475.103 372.807 475.384 373.328 475.624 373.929C475.865 374.53 475.945 375.211 475.945 376.012C475.945 377.374 475.664 378.455 475.063 379.377C474.462 380.258 473.621 380.779 472.539 380.859V383.423C472.539 383.543 472.499 383.663 472.459 383.743C472.379 383.823 472.299 383.863 472.218 383.863C472.138 383.863 472.018 383.823 471.898 383.783C471.778 383.743 471.698 383.623 471.698 383.423V380.859H471.617ZM471.617 365.957C471.217 366.038 470.896 366.238 470.696 366.558C470.495 366.879 470.375 367.279 470.375 367.76C470.375 368.241 470.495 368.641 470.696 368.962C470.896 369.282 471.217 369.603 471.617 369.923V365.957ZM472.459 378.175C472.819 378.095 473.14 377.935 473.38 377.654C473.621 377.374 473.741 376.933 473.741 376.372C473.741 375.892 473.661 375.451 473.461 375.01C473.26 374.57 472.94 374.209 472.499 373.849V378.175H472.459Z" fill="#F6F7F7"/>
<path opacity="0.9" d="M291.745 359.828C291.745 368.961 289.261 376.372 286.216 376.372H281.087C282.009 376.372 282.93 375.731 283.692 374.569C284.773 373.007 285.655 370.523 286.216 367.479C286.617 365.196 286.857 362.592 286.857 359.828C286.857 357.064 286.617 354.46 286.216 352.177C285.655 349.132 284.773 346.649 283.692 345.087C282.93 343.965 282.009 343.284 281.087 343.284H286.216C289.261 343.284 291.745 350.695 291.745 359.828Z" fill="#F37C20"/>
<path d="M286.857 359.828C286.857 362.592 286.617 365.196 286.216 367.479C285.655 370.523 284.773 373.007 283.691 374.569C282.93 375.691 282.009 376.372 281.087 376.372H281.047C277.841 376.372 275.237 368.961 275.237 359.828C275.237 350.695 277.841 343.284 281.047 343.284H281.087C282.009 343.284 282.93 343.925 283.691 345.087C284.773 346.649 285.655 349.133 286.216 352.177C286.617 354.46 286.857 357.064 286.857 359.828Z" fill="#FFB238"/>
<path d="M280.766 369.523C280.526 369.482 280.285 369.362 280.085 369.162C279.885 369.002 279.725 368.802 279.564 368.601C279.404 368.401 279.284 368.201 279.204 367.96C279.123 367.76 279.043 367.6 279.003 367.48C278.963 367.359 278.923 367.239 278.923 367.119C278.923 366.999 278.923 366.879 278.963 366.678L279.324 365.116C279.364 364.956 279.404 364.836 279.484 364.836C279.524 364.836 279.604 364.956 279.725 365.156C279.885 365.477 280.045 365.797 280.205 366.038C280.406 366.318 280.566 366.478 280.766 366.558V361.431C280.566 361.191 280.326 360.91 280.125 360.59C279.925 360.269 279.725 359.909 279.524 359.468C279.364 359.027 279.204 358.507 279.083 357.866C278.963 357.265 278.923 356.504 278.923 355.623C278.923 354.982 278.963 354.381 279.043 353.82C279.123 353.259 279.244 352.738 279.364 352.298C279.524 351.857 279.684 351.497 279.925 351.176C280.165 350.896 280.446 350.696 280.726 350.615V349.774C280.726 349.654 280.726 349.534 280.766 349.414C280.806 349.334 280.846 349.253 280.887 349.253H281.007C281.047 349.253 281.087 349.293 281.127 349.414C281.167 349.494 281.167 349.614 281.167 349.774V350.655C281.367 350.695 281.568 350.816 281.728 350.976C281.928 351.136 282.089 351.296 282.209 351.457C282.369 351.657 282.449 351.817 282.57 351.977C282.65 352.138 282.73 352.258 282.77 352.338C282.81 352.418 282.85 352.538 282.85 352.738C282.85 352.899 282.85 353.059 282.81 353.219L282.449 354.741C282.369 355.062 282.289 355.142 282.209 354.942C282.089 354.701 281.928 354.421 281.768 354.14C281.608 353.86 281.407 353.66 281.167 353.5V358.306C281.367 358.547 281.568 358.827 281.808 359.148C282.049 359.468 282.249 359.869 282.409 360.349C282.61 360.83 282.77 361.391 282.89 362.032C283.01 362.673 283.09 363.434 283.09 364.275C283.09 365.717 282.93 366.919 282.61 367.84C282.289 368.802 281.808 369.322 281.207 369.442V372.166C281.207 372.287 281.207 372.407 281.167 372.527C281.127 372.607 281.087 372.647 281.047 372.647C281.007 372.647 280.927 372.607 280.846 372.567C280.766 372.527 280.726 372.407 280.726 372.166V369.523H280.766ZM280.766 353.62C280.526 353.7 280.366 353.94 280.245 354.261C280.125 354.621 280.085 355.022 280.085 355.542C280.085 356.063 280.125 356.504 280.245 356.824C280.366 357.185 280.526 357.505 280.766 357.866V353.62ZM281.247 366.678C281.448 366.598 281.608 366.398 281.768 366.118C281.888 365.797 281.968 365.357 281.968 364.756C281.968 364.235 281.928 363.754 281.808 363.314C281.688 362.873 281.528 362.432 281.247 362.072V366.678Z" fill="#F6F7F7"/>
<path opacity="0.9" d="M386.83 370.723C386.83 379.856 384.346 387.267 381.301 387.267H376.172C377.093 387.267 378.015 386.626 378.776 385.464C379.858 383.902 380.74 381.419 381.301 378.374C381.701 376.091 381.942 373.487 381.942 370.723C381.942 367.959 381.701 365.356 381.301 363.072C380.74 360.028 379.858 357.544 378.776 355.982C378.015 354.86 377.093 354.179 376.172 354.179H381.301C384.386 354.179 386.83 361.59 386.83 370.723Z" fill="#F37C20"/>
<path d="M381.982 370.723C381.982 373.487 381.742 376.091 381.341 378.374C380.78 381.419 379.898 383.902 378.816 385.465C378.055 386.586 377.134 387.267 376.212 387.267H376.172C372.966 387.267 370.362 379.857 370.362 370.723C370.362 361.59 372.966 354.18 376.172 354.18H376.212C377.134 354.18 378.055 354.821 378.816 355.982C379.898 357.545 380.78 360.028 381.341 363.072C381.742 365.356 381.982 367.959 381.982 370.723Z" fill="#FFB238"/>
<path d="M375.891 380.418C375.651 380.378 375.411 380.258 375.21 380.057C375.01 379.897 374.85 379.697 374.689 379.497C374.529 379.296 374.409 379.096 374.329 378.856C374.249 378.655 374.168 378.495 374.128 378.375C374.088 378.255 374.048 378.135 374.048 378.015C374.048 377.894 374.048 377.774 374.088 377.574L374.449 376.012C374.489 375.851 374.529 375.731 374.609 375.731C374.649 375.731 374.729 375.851 374.85 376.052C375.01 376.372 375.17 376.693 375.33 376.933C375.531 377.213 375.691 377.374 375.891 377.454V372.326C375.691 372.086 375.451 371.806 375.25 371.485C375.05 371.165 374.85 370.804 374.649 370.364C374.489 369.923 374.329 369.402 374.209 368.761C374.088 368.16 374.048 367.399 374.048 366.518C374.048 365.877 374.088 365.276 374.168 364.715C374.249 364.155 374.369 363.634 374.489 363.193C374.649 362.753 374.81 362.392 375.05 362.072C375.29 361.791 375.571 361.591 375.851 361.511V360.67C375.851 360.549 375.851 360.429 375.891 360.309C375.931 360.229 375.972 360.149 376.012 360.149H376.132C376.172 360.149 376.212 360.189 376.252 360.309C376.292 360.389 376.292 360.509 376.292 360.67V361.551C376.492 361.591 376.693 361.711 376.853 361.871C377.053 362.032 377.214 362.192 377.334 362.352C377.494 362.552 377.574 362.713 377.695 362.873C377.775 363.033 377.855 363.153 377.895 363.233C377.935 363.313 377.975 363.434 377.975 363.634C377.975 363.794 377.975 363.954 377.935 364.115L377.574 365.637C377.494 365.957 377.414 366.037 377.334 365.837C377.214 365.597 377.053 365.316 376.893 365.036C376.733 364.755 376.533 364.555 376.292 364.395V369.202C376.492 369.442 376.693 369.723 376.933 370.043C377.174 370.364 377.374 370.764 377.534 371.245C377.735 371.726 377.895 372.286 378.015 372.927C378.135 373.568 378.215 374.329 378.215 375.17C378.215 376.613 378.055 377.814 377.735 378.736C377.414 379.697 376.933 380.218 376.332 380.338V383.062C376.332 383.182 376.332 383.302 376.292 383.422C376.252 383.502 376.212 383.542 376.172 383.542C376.132 383.542 376.052 383.502 375.972 383.462C375.891 383.422 375.851 383.302 375.851 383.062V380.418H375.891ZM375.891 364.475C375.651 364.555 375.491 364.796 375.371 365.116C375.25 365.477 375.21 365.877 375.21 366.398C375.21 366.919 375.25 367.359 375.371 367.68C375.491 368.04 375.651 368.361 375.891 368.721V364.475ZM376.372 377.534C376.573 377.454 376.733 377.253 376.893 376.973C377.013 376.653 377.093 376.212 377.093 375.611C377.093 375.09 377.053 374.61 376.933 374.169C376.813 373.728 376.653 373.288 376.372 372.927V377.534Z" fill="#F6F7F7"/>
<path opacity="0.9" d="M486.362 248.306C486.362 257.44 483.878 264.85 480.833 264.85H475.704C476.625 264.85 477.547 264.209 478.308 263.048C479.39 261.485 480.272 259.002 480.833 255.957C481.233 253.674 481.474 251.07 481.474 248.306C481.474 245.543 481.233 242.939 480.833 240.655C480.272 237.611 479.39 235.128 478.308 233.565C477.547 232.444 476.625 231.763 475.704 231.763H480.833C483.878 231.763 486.362 239.173 486.362 248.306Z" fill="#F37C20"/>
<path d="M481.474 248.307C481.474 251.071 481.234 253.675 480.833 255.958C480.272 259.002 479.39 261.486 478.309 263.048C477.547 264.17 476.626 264.851 475.704 264.851H475.664C472.458 264.851 469.854 257.44 469.854 248.307C469.854 239.174 472.458 231.763 475.664 231.763H475.704C476.626 231.763 477.547 232.404 478.309 233.566C479.39 235.128 480.272 237.612 480.833 240.656C481.234 242.939 481.474 245.543 481.474 248.307Z" fill="#FFB238"/>
<path d="M475.424 258.001C475.183 257.961 474.943 257.84 474.742 257.64C474.542 257.48 474.382 257.28 474.222 257.079C474.061 256.879 473.941 256.679 473.861 256.438C473.781 256.238 473.701 256.078 473.661 255.958C473.62 255.838 473.58 255.717 473.58 255.597C473.58 255.477 473.58 255.357 473.621 255.157L473.981 253.594C474.021 253.434 474.061 253.314 474.141 253.314C474.181 253.314 474.262 253.434 474.382 253.634C474.542 253.955 474.702 254.275 474.863 254.516C475.063 254.796 475.223 254.956 475.424 255.036V249.909C475.223 249.669 474.983 249.388 474.782 249.068C474.582 248.747 474.382 248.387 474.181 247.946C474.021 247.506 473.861 246.985 473.741 246.344C473.621 245.743 473.58 244.982 473.58 244.101C473.58 243.46 473.62 242.859 473.701 242.298C473.781 241.737 473.901 241.217 474.021 240.776C474.181 240.335 474.342 239.975 474.582 239.654C474.823 239.374 475.103 239.174 475.383 239.094V238.252C475.383 238.132 475.383 238.012 475.424 237.892C475.464 237.812 475.504 237.732 475.544 237.732H475.664C475.704 237.732 475.744 237.772 475.784 237.892C475.824 237.972 475.824 238.092 475.824 238.252V239.134C476.025 239.174 476.225 239.294 476.385 239.454C476.586 239.614 476.746 239.775 476.866 239.935C477.026 240.135 477.106 240.295 477.227 240.455C477.307 240.616 477.387 240.736 477.427 240.816C477.467 240.896 477.507 241.016 477.507 241.217C477.507 241.377 477.507 241.537 477.467 241.697L477.106 243.219C477.026 243.54 476.946 243.62 476.866 243.42C476.746 243.179 476.585 242.899 476.425 242.619C476.265 242.338 476.065 242.138 475.824 241.978V246.785C476.025 247.025 476.225 247.305 476.465 247.626C476.706 247.946 476.906 248.347 477.066 248.828C477.267 249.308 477.427 249.869 477.547 250.51C477.667 251.151 477.747 251.912 477.747 252.753C477.747 254.195 477.587 255.397 477.267 256.318C476.946 257.28 476.465 257.8 475.864 257.921V260.644C475.864 260.765 475.864 260.885 475.824 261.005C475.784 261.085 475.744 261.125 475.704 261.125C475.664 261.125 475.584 261.085 475.504 261.045C475.424 261.005 475.383 260.885 475.383 260.644V258.001H475.424ZM475.424 242.098C475.183 242.178 475.023 242.418 474.903 242.739C474.782 243.099 474.742 243.5 474.742 244.021C474.742 244.541 474.782 244.982 474.903 245.302C475.023 245.663 475.183 245.983 475.424 246.344V242.098ZM475.864 255.157C476.065 255.076 476.225 254.876 476.385 254.596C476.505 254.275 476.586 253.835 476.586 253.234C476.586 252.713 476.545 252.232 476.425 251.792C476.305 251.351 476.145 250.911 475.864 250.55V255.157V255.157Z" fill="#F6F7F7"/>
<path d="M197.222 389.711C205.255 389.711 211.767 383.201 211.767 375.17C211.767 367.14 205.255 360.63 197.222 360.63C189.189 360.63 182.677 367.14 182.677 375.17C182.677 383.201 189.189 389.711 197.222 389.711Z" fill="#FFB238"/>
<path d="M196.541 383.704C195.899 383.664 195.338 383.544 194.858 383.423C194.377 383.263 193.936 383.103 193.575 382.903C193.215 382.702 192.894 382.542 192.694 382.342C192.453 382.142 192.293 382.021 192.173 381.941C192.053 381.821 191.973 381.741 191.973 381.661C191.933 381.581 191.973 381.421 192.093 381.26L192.974 379.858C193.054 379.698 193.175 379.618 193.335 379.618C193.495 379.618 193.656 379.698 193.896 379.898C194.257 380.179 194.657 380.459 195.138 380.7C195.619 380.94 196.1 381.1 196.581 381.18V376.694C196.06 376.494 195.499 376.213 194.978 375.973C194.457 375.692 193.936 375.372 193.495 374.971C193.054 374.571 192.694 374.09 192.413 373.569C192.133 373.009 192.013 372.368 192.013 371.606C192.013 371.046 192.093 370.525 192.293 370.044C192.453 369.564 192.734 369.083 193.135 368.722C193.495 368.322 193.976 368.001 194.577 367.761C195.138 367.481 195.819 367.32 196.621 367.28V366.559C196.621 366.439 196.661 366.319 196.741 366.239C196.821 366.159 196.941 366.119 197.061 366.119H197.342C197.462 366.119 197.582 366.159 197.662 366.239C197.743 366.319 197.783 366.439 197.783 366.559V367.32C198.304 367.36 198.784 367.44 199.225 367.601C199.666 367.721 200.067 367.881 200.427 368.041C200.788 368.202 201.068 368.362 201.309 368.522C201.549 368.682 201.709 368.762 201.83 368.843C201.95 368.923 202.03 369.043 202.03 369.203C202.07 369.363 202.03 369.483 201.95 369.604L201.028 370.925C200.828 371.206 200.628 371.246 200.387 371.126C200.067 370.925 199.666 370.685 199.225 370.445C198.784 370.204 198.304 370.004 197.743 369.884V374.09C198.264 374.29 198.784 374.571 199.345 374.851C199.906 375.132 200.427 375.492 200.908 375.893C201.389 376.293 201.75 376.814 202.07 377.375C202.391 377.936 202.551 378.576 202.551 379.338C202.551 380.579 202.15 381.661 201.309 382.502C200.467 383.343 199.305 383.824 197.743 383.904V386.308C197.743 386.428 197.703 386.548 197.622 386.588C197.542 386.668 197.422 386.708 197.302 386.708C197.182 386.708 197.021 386.708 196.821 386.668C196.661 386.628 196.581 386.508 196.581 386.308V383.704H196.541ZM196.541 369.684C195.939 369.764 195.499 369.964 195.218 370.245C194.938 370.565 194.777 370.926 194.777 371.366C194.777 371.847 194.938 372.207 195.218 372.528C195.499 372.808 195.939 373.129 196.541 373.449V369.684ZM197.703 381.18C198.223 381.1 198.664 380.94 198.985 380.66C199.305 380.379 199.466 379.979 199.466 379.458C199.466 379.017 199.345 378.577 199.065 378.176C198.784 377.775 198.344 377.415 197.703 377.094V381.18Z" fill="#F6F7F7"/>
<path d="M251.756 159.138C251.395 160.02 250.875 160.781 250.193 161.422C249.552 162.063 248.751 162.583 247.869 162.944L237.692 166.95C237.211 167.15 237.291 167.871 237.812 167.951L241.578 168.552C242.7 168.712 243.181 170.034 242.46 170.915C242.34 171.076 242.139 171.156 241.939 171.156H241.899L231.561 170.515L229.678 170.395C228.075 170.314 226.472 170.515 224.95 171.036L220.542 172.518L221.383 163.785L221.504 162.583L238.653 157.496C239.575 157.216 240.537 157.095 241.498 157.095L250.474 157.216C251.476 157.176 252.117 158.217 251.756 159.138Z" fill="#F28389"/>
<path d="M231.561 170.476L229.678 170.355C228.075 170.275 226.472 170.476 224.95 170.996L223.147 171.597C223.908 170.435 224.389 169.033 224.389 167.551V163.025C225.35 164.026 225.831 166.39 227.033 167.031C227.755 167.431 228.636 167.471 229.317 167.872C229.758 168.152 230.119 168.553 230.439 168.953C230.88 169.434 231.281 169.955 231.561 170.476Z" fill="#F16B6C"/>
<path d="M201.629 305.149L197.061 320.331L194.737 328.022L194.457 329.064L191.371 328.383L190.61 328.182L185.762 327.101L185.922 324.337L186.723 311.438L187.004 306.792L201.629 305.149Z" fill="#F28389"/>
<path d="M199.866 322.014C198.424 323.576 197.783 325.779 196.18 327.181C195.739 327.541 195.258 327.822 194.737 328.062C193.695 328.503 192.493 328.583 191.371 328.383C191.091 328.343 190.851 328.263 190.57 328.222C190.209 328.102 189.849 327.982 189.528 327.822C188.006 327.101 186.804 325.819 185.922 324.377L186.723 311.478C187.124 311.559 187.525 311.719 187.925 312.039C189.769 313.481 191.091 315.644 192.894 317.167C193.215 317.447 195.258 319.049 197.021 320.371C198.464 321.373 199.706 322.174 199.866 322.014Z" fill="#F16B6C"/>
<path d="M60.064 383.101L44.7174 394.197L40.43 397.281L32.8168 393.836L34.5398 391.833L40.1896 385.384L52.2505 371.604L59.5431 382.34L60.064 383.101Z" fill="#F28389"/>
<path d="M80.9002 290.929L63.1895 330.906L32.296 317.247L18.0713 310.958L14.7455 309.476L0.200347 303.026L0 302.946L1.36236 299.902L2.80486 296.577L6.53132 288.205L8.73513 283.238L17.7107 262.929L39.8691 272.783L48.0833 276.428L55.5362 279.713L56.538 280.154L62.9491 282.998L69.28 285.802L79.658 290.368L79.9786 290.528L80.9002 290.929Z" fill="#FFB238"/>
<path d="M60.0239 383.142L44.6774 394.198C43.3951 394.478 42.153 394.758 40.8708 395.039C38.9074 395.48 36.4631 395.76 35.261 394.118C34.7802 393.477 34.6199 392.635 34.5398 391.834L40.1896 385.385C45.8394 385.946 51.8097 385.625 56.8584 383.542C57.0187 383.462 57.1389 383.422 57.2992 383.342L58.902 383.903L60.0239 383.142Z" fill="#F16B6C"/>
<path d="M41.7924 261.487L49.1651 264.771L48.1233 266.454L41.8725 263.69L38.1861 272.022L36.383 271.221L40.4701 261.967C40.7105 261.487 41.3115 261.286 41.7924 261.487Z" fill="#A04323"/>
<path d="M65.9542 273.263L61.8671 282.517L60.064 281.715L63.7504 273.383L60.5048 271.941L57.9804 270.82L58.4212 269.017C58.4212 268.977 58.4212 268.897 58.4212 268.857L61.186 270.059L65.4734 271.981C65.9542 272.182 66.1946 272.783 65.9542 273.263Z" fill="#A04323"/>
<path d="M58.4212 269.017L57.9804 270.82L56.1372 269.978L56.0972 269.938C56.3777 269.337 56.6581 268.737 56.8986 268.136L57.6198 268.456L58.4212 268.817C58.4212 268.897 58.4212 268.937 58.4212 269.017Z" fill="#A04323"/>
<path opacity="0.5" d="M17.6306 263.089L25.5643 286.242C26.0451 287.604 27.0469 288.725 28.3692 289.326L53.8132 300.582C55.1355 301.183 56.6581 301.183 57.9804 300.622L80.6597 290.848" fill="#FFB238"/>
<path d="M31.9754 295.054L31.3343 294.774C30.4929 294.414 30.0922 293.412 30.4929 292.571L31.6949 289.847C32.0556 289.006 33.0573 288.605 33.8988 289.006L34.5399 289.286C35.3813 289.647 35.782 290.648 35.3813 291.489L34.1792 294.213C33.8186 295.014 32.8169 295.415 31.9754 295.054Z" fill="#A04323"/>
<path d="M48.0033 302.145L47.3622 301.864C46.5208 301.504 46.1201 300.502 46.5208 299.661L47.7228 296.937C48.0835 296.096 49.0852 295.696 49.9266 296.096L50.5678 296.377C51.4092 296.737 51.8099 297.739 51.4092 298.58L50.2071 301.304C49.8465 302.145 48.8448 302.505 48.0033 302.145Z" fill="#A04323"/>
<path opacity="0.15" d="M56.538 280.153L2.80487 296.576L6.53133 288.204L46.5206 276.508L48.0833 276.428L55.5362 279.712L56.538 280.153Z" fill="#F6F7F7"/>
<path d="M16.7089 262.487L0.681109 298.74C0.0800681 300.142 -7.07059e-05 301.624 0.400623 302.986C0.400623 303.026 0.440693 303.106 0.440693 303.146C0.961595 304.748 2.12361 306.11 3.80652 306.831L58.3009 330.986C61.6267 332.468 65.4733 330.946 66.9559 327.621L82.8234 291.769L16.7089 262.487ZM65.834 324.937C64.3514 328.262 60.5047 329.744 57.179 328.302L18.0712 310.997H18.0312L14.7054 309.515L5.60965 305.429C4.16715 304.788 3.08527 303.667 2.48423 302.305C1.80305 300.782 1.76298 298.98 2.48423 297.337L17.7106 262.968L79.6579 290.367L79.9785 290.528L80.9001 290.928L65.834 324.937Z" fill="#F69905"/>
<path opacity="0.15" d="M79.9785 290.529L21.1165 311.959L18.0713 310.918H18.0312L14.7054 309.436L5.60967 305.43C4.16717 304.789 3.08529 303.668 2.48425 302.306L62.949 282.998L69.28 285.802L79.6179 290.368L79.9785 290.529Z" fill="#F6F7F7"/>
<path d="M218.218 252.794L201.148 309.515C200.668 311.118 199.265 312.279 197.622 312.439L192.774 313.521L185.081 315.324L188.366 268.737L148.738 281.875C144.651 283.598 141.525 287.003 140.043 291.169L126.619 325.899L123.454 334.111C121.771 338.397 118.926 342.122 115.24 344.846C115.079 344.966 114.879 345.086 114.719 345.206L60.1042 383.101L60.0641 383.141L58.9421 383.902L57.3394 383.341L52.2505 381.499L45.3185 378.975L89.1144 332.628C90.2764 331.467 91.3182 330.225 92.1597 328.863C92.2398 328.743 92.32 328.583 92.4001 328.462C93.5221 326.62 94.3234 324.657 94.8443 322.574L100.254 300.342L101.736 294.253L108.187 267.895L108.548 266.413L160.999 248.668L165.326 247.186L171.537 244.822L171.657 244.782L201.669 233.326C203.112 232.765 204.594 232.525 206.077 232.525C210.445 232.525 214.612 234.848 216.896 238.814C219.26 243.06 219.781 248.107 218.218 252.794Z" fill="#4E4688"/>
<path opacity="0.2" d="M171.657 244.743C171.657 244.743 169.614 263.209 143.008 274.505C131.748 279.272 123.414 284.64 116.883 289.287L92.4001 328.423C93.5221 326.58 94.3235 324.617 94.8444 322.534L100.254 300.302L101.736 294.214L108.187 267.856L160.999 248.628L171.537 244.783L171.657 244.743Z" fill="black"/>
<path d="M156.07 199.197L157.192 260.605C157.192 260.605 147.455 267.575 145.412 267.335L144.21 267.815L143.328 268.176C143.328 268.176 135.755 272.222 135.354 272.382L131.828 243.62L126.219 198.035L123.935 183.775L126.619 183.534L127.942 183.414L135.154 182.733H135.194H135.234L152.825 181.692L153.185 181.651H153.346L154.187 181.611L155.63 181.531L157.312 180.97L159.236 180.33L159.757 180.129L161.68 179.328L162.562 178.968L164.445 178.166L165.366 185.617L156.07 199.197Z" fill="white"/>
<path d="M157.192 182.613C157.192 182.613 156.271 189.303 155.99 190.865C155.95 191.025 155.95 191.105 155.95 191.145C155.95 191.185 155.91 191.185 155.87 191.226C155.229 191.706 150.621 193.268 147.135 194.43C144.851 195.191 143.048 195.752 143.048 195.752L131.428 184.936C131.428 184.936 130.346 184.175 134.433 184.255C134.633 184.255 134.233 182.974 134.313 182.733C134.313 182.693 134.353 182.693 134.353 182.693C134.433 182.693 134.513 182.693 134.593 182.693C134.793 182.693 134.994 182.693 135.194 182.653C136.036 182.493 136.797 181.972 137.438 181.251C138.44 180.17 139.201 178.607 139.802 177.085C140.764 174.642 141.205 172.318 141.205 172.318C141.205 172.318 141.766 171.637 142.647 170.836C144.53 169.074 147.896 166.75 149.739 169.995C150.26 170.916 150.661 172.238 150.901 174.121C151.062 175.443 151.262 176.564 151.502 177.566C151.903 179.248 152.424 180.45 152.945 181.251C153.025 181.371 153.105 181.451 153.145 181.572C155.029 184.135 157.192 182.613 157.192 182.613Z" fill="#F28389"/>
<path d="M57.9804 270.82L60.5048 271.942L59.7836 274.025C59.7034 274.225 59.5431 274.386 59.3428 274.426C58.2609 274.746 57.2592 273.785 57.4996 272.703L57.9804 270.82Z" fill="#F16B6C"/>
<path d="M69.1999 254.837L67.557 256.76L66.3149 258.162C65.1529 259.484 64.2713 261.006 63.7104 262.648L62.7487 265.412L61.1459 270.059L58.3811 268.857C58.3411 268.457 57.9003 268.257 57.5798 268.497C57.5397 268.497 57.5397 268.537 57.4996 268.537L56.0972 269.979L49.8864 276.428C49.2453 277.109 48.4439 277.63 47.6025 277.991C46.761 278.351 45.8394 278.551 44.8777 278.551C43.876 278.551 43.1948 277.55 43.5554 276.588L46.8812 268.257C47.1617 267.576 47.4823 266.975 47.8829 266.374C48.0432 266.174 48.1634 265.973 48.3237 265.773L49.0049 264.972L59.6233 251.913L69.1999 254.837Z" fill="#F28389"/>
<path d="M153.346 180.651L146.894 188.222C145.652 189.664 143.449 189.825 142.006 188.583L135.194 182.694L136.036 192.188L144.25 197.115L148.457 198.277L152.023 188.543L153.346 180.651Z" fill="#F16B6C"/>
<g opacity="0.15">
<path opacity="0.15" d="M137.358 185.057L147.896 195.472L143.529 202.442L130.306 185.738L137.358 185.057Z" fill="#6457A4"/>
<path opacity="0.15" d="M164.405 178.127L160.799 191.226L160.638 193.309L154.828 198.997L147.455 195.031H147.415L147.255 194.951V194.871L147.415 194.55L153.306 181.652L154.147 181.612L155.59 181.492L157.312 180.971L159.196 180.33L159.717 180.13L164.405 178.127Z" fill="#6457A4"/>
</g>
<path d="M146.975 194.429L142.407 201.72L127.942 183.414L135.154 182.733H135.194L146.975 194.429Z" fill="white"/>
<path d="M159.717 180.129L155.99 190.905L155.87 191.265L153.586 197.915L148.057 194.991L147.135 194.51L146.975 194.43L152.785 181.692L152.945 181.371C153.025 181.491 153.426 181.411 153.506 181.491H153.786C154.027 181.491 154.307 181.491 154.548 181.491C155.469 181.451 156.391 181.291 157.273 180.971L159.196 180.33L159.717 180.129Z" fill="white"/>
<path d="M224.429 161.742V168.472C224.429 169.954 223.988 171.356 223.187 172.518C222.345 173.8 221.063 174.841 219.54 175.402C213.53 177.565 204.514 182.212 195.699 187.059C186.042 192.386 176.586 198.034 171.577 201.079C169.013 202.641 167.17 205.125 166.488 208.049C161.961 227.637 170.776 247.105 170.776 247.105C170.776 247.105 169.373 249.388 167.17 252.112C164.405 255.557 160.398 259.683 156.391 260.845C154.628 261.365 152.865 259.963 152.905 258.121L153.786 211.414L153.867 207.608C153.867 207.568 153.867 207.528 153.867 207.528C153.947 203.602 154.708 199.717 156.11 196.072L162.802 178.526L169.093 176.804L224.429 161.742Z" fill="#6457A4"/>
<path d="M169.093 176.845L153.786 211.455L153.867 207.649C153.867 207.609 153.867 207.569 153.867 207.569C153.947 203.644 154.708 199.758 156.11 196.113L162.802 178.567L169.093 176.845Z" fill="#4E4688"/>
<path d="M146.013 199.638L139.922 234.168L146.013 242.139L151.502 233.246L149.739 199.438L146.013 199.638Z" fill="#FFB238"/>
<path d="M146.935 202.282L143.088 211.015L139.201 219.707L138.84 219.467L151.342 205.246L153.065 203.283L151.863 205.607L141.084 226.717L140.483 226.236L147.696 219.387L154.908 212.537L157.473 210.133L155.469 213.017L148.657 222.992L145.252 227.999L141.846 232.966L141.405 232.566L156.671 222.311L157.793 221.55L156.912 222.551L146.935 233.767L156.631 222.351L156.872 222.591L141.766 233.046L140.443 233.968L141.325 232.646L144.691 227.638L148.097 222.631L154.868 212.617L155.429 213.098L148.257 219.947L141.004 226.797L139.361 228.359L140.403 226.357L151.262 205.326L151.823 205.687L139.161 219.747L138.199 220.789L138.8 219.507L142.847 210.894L146.935 202.282Z" fill="#F6F7F7"/>
<path d="M146.534 194.671L143.328 198.076L145.773 201.921L149.218 201.721L150.901 196.954L146.534 194.671Z" fill="#E96924"/>
<path d="M180.953 334.03C181.074 334.911 181.274 335.713 181.514 336.514C181.594 336.874 181.755 337.235 182.035 337.475C182.276 337.716 182.516 337.756 182.837 337.836C186.643 338.797 190.33 338.997 194.216 338.356C193.856 337.635 194.297 336.954 195.018 336.714C195.739 336.474 196.46 336.674 197.141 336.834C198.424 337.155 199.586 337.555 200.908 337.836C207.56 339.278 213.89 339.198 220.502 337.555C222.145 337.155 223.627 336.514 225.07 335.633C225.43 335.432 225.711 335.192 225.911 334.791C226.112 334.391 225.991 333.83 225.911 333.389C225.751 332.668 225.551 331.947 224.95 331.467C224.549 331.146 224.108 331.066 223.627 330.986C221.063 330.545 218.539 330.906 215.974 330.265C212.007 329.263 208.882 326.66 205.516 324.376C203.432 322.934 201.229 321.532 199.025 320.33C197.622 319.569 196.901 320.21 196.06 321.292C195.218 322.333 194.617 323.495 193.495 324.296C192.133 325.298 190.57 325.498 189.168 324.496C188.366 323.936 188.006 322.934 187.405 322.133C187.004 321.612 186.483 321.011 185.842 320.771C185 320.451 184.64 320.691 184.079 321.372C183.077 322.534 182.356 323.896 181.875 325.378C180.913 328.182 180.593 331.026 180.953 334.03Z" fill="#444445"/>
<path d="M215.653 338.477C215.774 338.437 215.894 338.437 216.014 338.397C215.974 338.237 215.934 338.077 215.894 337.917C215.774 337.957 215.653 337.957 215.533 337.997C215.573 338.157 215.613 338.317 215.653 338.477Z" fill="#444445"/>
<path d="M180.913 333.55C180.913 333.67 180.953 333.91 180.994 334.07C180.994 334.231 181.034 334.391 181.074 334.511C181.074 334.631 181.114 334.711 181.114 334.832C181.114 334.912 181.154 334.952 181.154 335.032C181.194 335.152 181.234 335.352 181.234 335.472C181.274 335.593 181.274 335.673 181.314 335.713C181.314 335.793 181.354 335.873 181.354 335.913C181.354 335.953 181.354 335.953 181.354 335.993C181.354 336.033 181.354 336.033 181.394 336.073C181.394 336.113 181.394 336.153 181.434 336.234C181.474 336.314 181.474 336.434 181.514 336.554C181.555 336.674 181.595 336.834 181.675 336.995C181.675 337.035 181.675 337.035 181.715 337.115C181.755 337.195 181.795 337.395 181.835 337.475C185.962 338.917 189.889 338.998 194.176 338.437C194.056 337.916 194.176 336.794 194.777 336.714C195.659 336.554 196.54 336.834 197.302 336.955C198.103 337.035 198.624 337.275 199.345 337.475C199.345 337.475 199.345 337.475 199.385 337.475C199.826 337.596 200.347 337.756 200.788 337.876C202.751 338.357 204.955 338.877 206.918 338.998C209.403 339.118 211.647 338.917 213.971 338.797C214.451 338.757 214.812 338.717 215.133 338.677C215.493 338.637 215.814 338.597 216.014 338.557C218.498 338.156 220.823 337.636 223.147 336.754C223.307 336.714 223.347 336.674 223.427 336.634C223.547 336.594 223.667 336.514 223.748 336.474C223.828 336.434 223.828 336.434 223.908 336.394C223.948 336.354 223.988 336.354 224.028 336.354C224.749 335.913 225.431 335.512 225.951 334.832C225.991 334.791 225.951 334.751 225.991 334.631C226.032 334.511 226.032 334.271 226.032 334.11C226.032 334.07 226.032 333.99 226.032 333.95C226.032 333.91 226.032 333.87 226.032 333.83C226.032 333.63 225.991 333.429 225.951 333.229C225.831 333.309 225.831 333.349 225.711 333.429C224.108 334.471 222.986 335.192 220.943 335.673C217.377 336.554 212.889 337.075 209.283 337.235C207.519 337.315 205.356 336.995 204.114 336.794C201.389 336.354 198.945 335.633 196.781 335.032C195.058 334.551 194.817 334.471 193.295 334.311C192.774 334.271 192.493 334.351 191.732 334.351C188.286 334.351 184.56 334.191 181.114 333.63C181.034 333.55 180.913 333.51 180.913 333.55Z" fill="black"/>
<path d="M180.953 334.071C180.913 334.231 180.994 334.351 181.034 334.512C181.034 334.512 181.034 334.512 181.034 334.552C181.034 334.592 181.074 334.752 181.074 334.832C181.074 334.912 181.114 334.952 181.114 335.032C181.114 335.113 181.154 335.153 181.154 335.233C181.154 335.313 181.194 335.433 181.234 335.513C181.274 335.593 181.274 335.713 181.314 335.753C181.354 335.794 181.314 335.834 181.354 335.874C181.354 335.914 181.354 335.914 181.394 335.954C181.394 335.994 181.394 335.994 181.394 336.034C181.394 336.074 181.394 336.074 181.434 336.114C181.434 336.154 181.434 336.194 181.474 336.234C181.474 336.274 181.474 336.194 181.474 336.274C181.514 336.354 181.514 336.475 181.555 336.595C181.595 336.715 181.635 336.875 181.715 337.035C181.715 337.075 181.715 337.075 181.755 337.156C181.795 337.236 181.835 337.436 181.875 337.516C186.002 338.958 189.929 339.038 194.216 338.477C194.216 337.877 194.136 336.875 194.858 336.715C195.739 336.555 196.541 336.835 197.382 336.955C198.063 337.035 198.704 337.316 199.385 337.476C199.385 337.476 199.385 337.476 199.426 337.476C199.906 337.596 200.347 337.756 200.828 337.877C202.871 338.397 204.915 338.838 207.039 339.038C207.079 339.038 207.159 339.038 207.199 339.038C209.122 339.078 211.086 338.998 213.009 338.878C213.37 338.838 213.73 338.838 214.091 338.798C214.452 338.758 214.892 338.718 215.253 338.678C215.573 338.638 215.854 338.598 216.175 338.558C218.458 338.237 220.622 337.756 222.786 336.955C222.986 336.875 223.147 336.795 223.267 336.755C223.387 336.715 223.467 336.675 223.547 336.635C223.668 336.595 223.788 336.515 223.868 336.475C223.948 336.434 223.948 336.434 224.028 336.394C224.068 336.354 224.068 336.354 224.148 336.354C224.91 335.954 225.631 335.633 226.072 334.832C226.112 334.752 226.072 334.752 226.112 334.632C226.112 334.512 226.152 334.271 226.152 334.111C226.152 334.071 226.152 333.991 226.152 333.951C226.152 333.911 226.192 333.871 226.152 333.871C226.112 333.871 226.352 333.791 226.072 333.831C225.992 333.871 226.833 333.31 225.711 334.151C224.549 334.952 223.267 335.794 220.823 336.354C216.495 337.276 208.842 338.157 204.354 337.396C199.866 336.635 197.582 335.193 193.375 334.952C189.248 334.592 185.001 334.792 180.953 334.071C180.953 334.071 180.994 334.071 180.953 334.071Z" fill="#232323"/>
<path d="M200.988 320.851C201.229 321.012 201.429 321.132 201.669 321.292C201.269 322.013 200.828 322.734 200.427 323.455C200.347 323.575 200.267 323.615 200.147 323.655C200.027 323.696 199.987 323.655 199.906 323.615C199.746 323.455 199.626 323.335 199.746 323.095C200.107 322.334 200.588 321.613 200.988 320.851Z" fill="#232323"/>
<path d="M202.11 324.456C202.03 324.577 201.95 324.617 201.83 324.617C201.709 324.657 201.629 324.617 201.589 324.577C201.429 324.416 201.309 324.296 201.429 324.056C201.79 323.335 202.27 322.654 202.631 321.933C202.871 322.093 203.072 322.213 203.312 322.373C202.952 323.054 202.511 323.775 202.11 324.456Z" fill="#232323"/>
<path d="M203.793 325.498C203.713 325.618 203.633 325.658 203.512 325.658C203.392 325.658 203.352 325.658 203.272 325.578C203.112 325.418 202.992 325.257 203.152 325.057C203.512 324.376 203.953 323.695 204.354 323.014C204.594 323.174 204.795 323.335 205.035 323.495C204.634 324.176 204.194 324.857 203.793 325.498Z" fill="#232323"/>
<path d="M25.9641 393.956C25.924 394.036 25.6435 394.277 25.6435 394.357C25.6435 394.477 25.5233 394.557 25.5233 394.637C25.4832 394.717 25.4832 394.757 25.4432 394.837C25.4031 394.917 25.4031 394.958 25.363 395.038C25.323 395.118 25.2829 395.238 25.2428 395.278C25.2028 395.358 25.1627 395.438 25.1627 395.518C25.1226 395.598 25.1226 395.598 25.1226 395.639C25.0825 395.679 25.0825 395.719 25.0825 395.799C25.0425 395.839 25.0425 395.919 25.0024 395.959C25.0024 395.999 25.0024 395.959 24.9623 396.039C24.9223 396.119 24.8822 396.279 24.8421 396.36C24.8021 396.48 24.7219 396.68 24.7219 396.76C24.6819 396.84 24.7219 396.8 24.6819 396.92C24.6418 397 24.6017 397.201 24.5616 397.321C27.1662 400.966 30.2114 403.53 34.1783 405.693C34.3386 405.172 34.9396 404.331 35.5407 404.571C36.4222 404.892 36.9832 405.613 37.6643 406.094C38.3455 406.574 38.7462 407.095 39.3473 407.616C39.3473 407.616 39.3473 407.616 39.3473 407.656C39.7079 407.976 40.1086 408.377 40.5093 408.657C42.2723 409.859 44.1957 411.101 46.1991 411.622C48.7235 412.262 51.0876 412.102 53.5318 412.062C54.0127 412.062 54.3733 412.022 54.7339 412.022C55.0945 412.022 55.4151 412.022 55.6555 412.022C58.1799 411.902 60.544 411.581 62.9482 411.061C63.1084 411.021 63.1485 410.981 63.2687 410.981C63.3889 410.941 63.5091 410.9 63.5893 410.86C63.6694 410.82 63.7095 410.82 63.7495 410.82C63.7896 410.82 63.8297 410.78 63.8697 410.78C64.6311 410.46 65.3122 410.139 65.9534 409.539C65.9934 409.498 65.9934 409.418 65.9934 409.338C66.0335 409.258 66.0736 408.978 66.0736 408.858C66.0736 408.737 66.1136 408.697 66.0736 408.577C66.0335 408.497 66.1537 408.577 66.1537 408.537C64.9516 406.855 66.6345 406.574 63.9499 405.493C61.6259 404.571 58.1799 404.932 55.1346 403.81C52.0493 402.689 49.5249 396.44 48.5232 393.796C47.5214 391.192 48.7235 392.434 46.68 392.514C44.5964 392.594 41.4709 394.156 39.5877 392.474C37.6643 390.792 39.9483 388.869 38.9065 386.986C37.8647 385.103 38.025 385.023 35.0598 386.145C32.4553 387.066 27.2463 390.591 25.9641 393.956Z" fill="#444445"/>
<path d="M55.2555 411.943C55.3757 411.943 55.4959 411.903 55.6161 411.903C55.6161 411.743 55.5761 411.582 55.5761 411.382C55.4559 411.382 55.3357 411.422 55.2155 411.422C55.2555 411.582 55.2555 411.783 55.2555 411.943Z" fill="#444445"/>
<path d="M26.1253 393.516C26.0451 393.596 25.9249 393.837 25.8448 393.957C25.7646 394.077 25.6845 394.237 25.6444 394.357C25.6044 394.478 25.5643 394.558 25.5242 394.638C25.4842 394.718 25.4842 394.758 25.4441 394.838C25.404 394.958 25.3239 395.159 25.2838 395.239C25.2437 395.359 25.2037 395.439 25.1636 395.479C25.1235 395.559 25.1235 395.639 25.0835 395.679C25.0835 395.719 25.0835 395.719 25.0434 395.759C25.0434 395.799 25.0434 395.799 25.0033 395.84C24.9633 395.88 24.9633 395.92 24.9633 396C24.9232 396.08 24.8831 396.2 24.843 396.32C24.803 396.44 24.7629 396.601 24.7228 396.761C24.7228 396.801 24.7228 396.801 24.6828 396.881C24.6427 396.961 24.6026 397.161 24.5626 397.242C27.1671 400.887 30.2123 403.451 34.1392 405.614C34.2994 405.093 34.9005 404.252 35.5015 404.492C36.383 404.812 36.944 405.534 37.6252 406.014C38.3064 406.495 38.7071 407.016 39.3081 407.536C39.3081 407.536 39.3081 407.536 39.3081 407.576C39.6687 407.897 40.0694 408.297 40.4701 408.578C42.2332 409.78 44.1565 411.021 46.16 411.542C48.6844 412.183 51.0484 412.023 53.4927 411.983C53.9735 411.983 54.3341 411.943 54.6948 411.943C55.0554 411.943 55.3759 411.943 55.6164 411.943C58.1407 411.823 60.5048 411.502 62.909 410.981C63.0693 410.941 63.1093 410.901 63.2296 410.901C63.3498 410.861 63.47 410.821 63.5501 410.781C63.6302 410.741 63.6703 410.741 63.7104 410.741C63.7505 410.741 63.7905 410.701 63.8306 410.701C64.5919 410.38 65.2731 410.06 65.9142 409.459C65.9543 409.419 65.9543 409.339 65.9543 409.259C65.9943 409.179 66.0344 408.898 66.0344 408.778C66.0344 408.698 66.0344 408.658 66.0344 408.578C66.0344 408.538 66.0344 408.498 66.0344 408.458C66.0344 408.257 66.0344 408.057 66.0344 407.857C65.9142 407.897 65.9142 407.977 65.7539 408.057C63.9909 408.818 62.8289 409.379 60.7452 409.619C57.139 410.02 52.6913 410.461 49.045 410.38C47.2819 410.34 45.3185 409.459 44.1565 408.898C41.6321 407.657 39.7489 405.774 38.106 404.212C36.7837 402.97 36.6635 402.529 35.4214 401.528C34.9806 401.167 34.7402 401.087 34.1792 400.646C31.4144 398.604 28.6897 396.12 26.2455 393.596C26.2054 393.596 26.2054 393.436 26.1253 393.516Z" fill="black"/>
<path d="M25.8447 393.956C25.7245 394.076 25.6844 394.196 25.6443 394.356C25.6443 394.356 25.6443 394.356 25.6443 394.397C25.6443 394.437 25.5642 394.597 25.5241 394.637C25.4841 394.717 25.4841 394.757 25.444 394.837C25.4039 394.917 25.4039 394.957 25.3639 395.037C25.3238 395.118 25.2837 395.238 25.2436 395.278C25.2036 395.358 25.1635 395.438 25.1635 395.518C25.1234 395.558 25.1234 395.598 25.1234 395.638C25.1234 395.678 25.0834 395.718 25.0834 395.718C25.0834 395.758 25.0834 395.758 25.0433 395.799C25.0433 395.839 25.0433 395.839 25.0032 395.879C25.0032 395.919 24.9632 395.959 24.9632 395.999C24.9632 396.039 24.9632 395.999 24.9231 396.079C24.883 396.159 24.843 396.319 24.8029 396.399C24.7628 396.52 24.6827 396.72 24.6827 396.8C24.6426 396.88 24.6827 396.84 24.6426 396.96C24.6025 397.04 24.5625 397.241 24.5224 397.361C27.1269 401.006 30.1722 403.57 34.099 405.733C34.4195 405.212 34.7802 404.371 35.5014 404.611C36.3429 404.932 36.9038 405.613 37.6251 406.173C38.1861 406.614 38.707 407.175 39.2279 407.656C39.2279 407.656 39.2279 407.656 39.2679 407.696C39.6686 408.016 40.0293 408.417 40.43 408.697C42.2331 409.979 44.1163 410.98 46.2 411.741C46.24 411.741 46.3202 411.781 46.3602 411.781C48.3637 412.142 50.3672 412.262 52.4107 412.182C52.7713 412.182 53.172 412.102 53.5327 412.062C53.8933 412.022 54.3741 412.022 54.6947 412.022C55.0553 412.022 55.3358 412.022 55.6163 412.022C57.9002 411.902 60.104 411.621 62.3479 411.181C62.5483 411.141 62.7086 411.101 62.8688 411.06C63.0291 411.02 63.0692 410.98 63.1894 410.98C63.3096 410.94 63.4298 410.9 63.5099 410.86C63.5901 410.82 63.5901 410.82 63.6702 410.82C63.7103 410.78 63.7504 410.78 63.7904 410.78C64.5918 410.5 65.273 410.219 65.834 409.578C65.874 409.538 65.874 409.458 65.874 409.378C65.9141 409.298 65.9542 409.018 65.9542 408.937C65.9542 408.857 65.9542 408.817 65.9542 408.737C65.9542 408.657 65.9942 408.697 65.9542 408.617C65.9141 408.577 66.1545 408.617 65.9141 408.537C65.834 408.497 66.5953 408.297 65.3131 408.897C64.0308 409.498 62.6685 410.099 60.2243 410.299C55.8968 410.66 48.3637 411.381 44.1965 409.378C40.0293 407.375 38.5467 404.571 35.1007 402.048C31.8952 399.644 28.7698 396.84 25.8447 393.956Z" fill="#232323"/>
<path d="M49.3254 394.316C49.4055 394.516 49.4857 394.717 49.5257 394.957C48.8045 395.357 48.0432 395.758 47.362 396.119C47.2418 396.199 47.1616 396.199 47.0414 396.159C46.9212 396.119 46.8812 396.078 46.8812 395.998C46.8411 395.758 46.8812 395.638 47.1216 395.518C47.8428 395.117 48.6041 394.717 49.3254 394.316Z" fill="#232323"/>
<path d="M47.963 397.601C47.8428 397.681 47.7627 397.681 47.6425 397.641C47.5222 397.601 47.4822 397.601 47.4822 397.481C47.4822 397.241 47.4822 397.121 47.6825 397C48.3637 396.6 49.125 396.239 49.8062 395.839C49.8863 396.039 49.9665 396.239 50.0066 396.44C49.3654 396.84 48.6442 397.241 47.963 397.601Z" fill="#232323"/>
<path d="M48.6041 399.123C48.4839 399.203 48.4038 399.203 48.2836 399.163C48.1633 399.123 48.1233 399.123 48.1233 399.003C48.0832 398.763 48.1233 398.642 48.3236 398.522C48.9647 398.122 49.686 397.721 50.3672 397.361C50.4473 397.561 50.5275 397.761 50.6076 397.961C49.9665 398.322 49.2452 398.723 48.6041 399.123Z" fill="#232323"/>
<path opacity="0.07" d="M126.499 423.76H25.6444C18.7123 423.76 13.0626 418.112 13.0626 411.182C13.0626 404.252 18.7123 398.604 25.6444 398.604H126.499C133.431 398.604 139.081 404.252 139.081 411.182C139.081 418.152 133.471 423.76 126.499 423.76Z" fill="#6457A4"/>
<path opacity="0.39" d="M144.21 267.856L143.328 268.217C143.328 268.217 140.804 269.579 138.6 270.74C139.802 269.138 140.524 267.215 140.604 265.132L142.848 220.027L143.328 210.333L144.21 267.856Z" fill="#C9BDA3"/>
<path d="M143.008 216.983L142.848 220.027L140.604 265.132C140.483 267.175 139.762 269.138 138.6 270.74C137.638 272.022 136.396 273.063 134.954 273.784C125.337 278.431 115.52 282.637 107.787 285.802C103.86 287.404 100.494 288.726 97.9697 289.687C95.9262 290.448 93.8827 288.606 94.4436 286.523L110.471 225.555L111.353 222.15C111.473 221.71 110.952 221.429 110.632 221.71L67.557 259.324L65.9943 258.683L59.0623 255.799C58.4613 255.558 58.0606 255.118 57.8202 254.597C57.4996 253.836 57.5397 252.914 58.1006 252.193L105.783 190.665C107.506 188.462 109.951 186.9 112.675 186.299L123.935 183.815L139.442 205.006C141.926 208.451 143.208 212.657 143.008 216.983Z" fill="#6457A4"/>
<path d="M143.008 216.983L142.848 220.027L112.675 186.299L123.935 183.815L139.442 205.006C141.926 208.451 143.208 212.657 143.008 216.983Z" fill="#4E4688"/>
<path opacity="0.2" d="M110.431 225.475L107.747 285.762C103.82 287.364 100.454 288.686 97.9296 289.647C95.8861 290.408 93.8425 288.566 94.4035 286.483L110.431 225.475Z" fill="black"/>
<path opacity="0.2" d="M195.699 187.1C186.042 192.427 176.586 198.076 171.577 201.12C169.013 202.682 167.17 205.166 166.488 208.09C161.961 227.678 170.776 247.146 170.776 247.146C170.776 247.146 169.373 249.429 167.17 252.153C162.041 246.826 161.079 229.721 161.079 217.704C161.079 210.173 165.246 203.243 171.938 199.678L195.699 187.1Z" fill="black"/>
<path d="M149.178 265.813C149.018 267.495 148.778 269.178 148.497 270.86C148.217 272.542 147.856 274.185 147.455 275.867C147.015 277.51 146.574 279.152 145.973 280.754C145.372 282.356 144.691 283.919 143.729 285.321C143.929 284.92 144.09 284.56 144.29 284.199C144.45 283.799 144.61 283.438 144.771 283.037C144.931 282.637 145.091 282.236 145.212 281.836C145.372 281.435 145.492 281.035 145.612 280.634C145.893 279.833 146.133 279.032 146.374 278.231C146.574 277.429 146.814 276.588 147.015 275.787C147.455 274.145 147.816 272.502 148.137 270.82C148.297 269.979 148.497 269.178 148.657 268.336C148.858 267.495 149.018 266.654 149.178 265.813Z" fill="#231F20"/>
<path opacity="0.4" d="M188.366 268.737L148.738 281.876C144.651 283.599 141.525 287.003 140.043 291.169L126.619 325.899C126.78 325.178 137.278 277.67 149.219 276.388C161.239 275.146 188.366 268.737 188.366 268.737Z" fill="black"/>
<path opacity="0.2" d="M191.452 313.842L185.121 315.324L188.366 268.737L191.452 313.842Z" fill="black"/>
<path opacity="0.2" d="M115.761 344.285L115.2 344.846C115.039 344.966 114.839 345.087 114.679 345.207L58.902 383.942L52.2505 381.499L115.761 344.285Z" fill="black"/>
<path d="M151.503 177.646C145.733 179.168 142.046 178.327 139.802 177.165C140.323 175.883 140.684 174.641 140.884 173.72C141.966 174.762 143.248 175.563 144.651 176.124C145.252 176.364 145.893 176.524 146.534 176.644C147.215 176.764 147.936 176.845 148.658 176.845C149.539 176.845 150.381 176.724 151.222 176.564C151.342 176.925 151.422 177.285 151.503 177.646Z" fill="#F16B6C"/>
<path d="M65.9543 258.602C64.9927 259.804 64.2313 261.206 63.7104 262.648L62.7488 265.412C62.1878 264.13 61.5066 262.889 60.7052 261.687C59.7035 260.085 56.6983 257.281 57.2993 255.157C57.3795 254.877 57.5397 254.637 57.7401 254.477C57.9805 254.997 58.3812 255.438 58.9822 255.678L65.9543 258.602Z" fill="#F16B6C"/>
<path opacity="0.35" d="M129.825 161.142L130.386 163.265C130.907 165.148 132.269 166.71 134.072 167.431L134.753 167.671C135.354 169.714 136.476 171.557 137.919 172.999L158.314 167.111C158.394 167.311 158.675 167.351 158.875 167.271C159.076 167.151 159.156 166.95 159.236 166.75C159.316 166.55 159.396 166.35 159.476 166.149C159.677 164.988 159.717 163.746 159.556 162.544L158.995 157.777L158.515 153.892C158.314 152.209 157.793 150.647 157.032 149.285C154.588 144.879 149.699 142.195 144.41 142.836C140.003 143.356 136.396 146.08 134.553 149.766C133.752 151.368 133.271 153.171 133.231 155.053C133.231 155.093 133.231 155.173 133.231 155.214V155.414C133.231 155.935 133.271 156.415 133.311 156.936L133.511 158.699L133.551 158.979L131.989 158.739C130.586 158.538 129.464 159.82 129.825 161.142Z" fill="black"/>
<path opacity="0.19" d="M161.8 146.201C161.8 146.241 161.76 146.321 161.76 146.361C161.8 146.321 161.8 146.281 161.8 146.201Z" fill="white"/>
<path d="M158.274 152.77C157.232 153.091 156.191 153.331 155.149 153.491C154.948 153.531 154.748 153.531 154.588 153.571C152.304 153.852 149.94 153.812 147.656 153.652C145.692 153.531 143.689 153.291 141.846 152.57C138.32 151.168 137.118 152.81 136.036 156.015C135.635 157.217 134.954 158.058 134.273 158.859L133.551 158.979L133.511 158.699L133.431 158.058L133.311 156.896C133.231 156.375 133.231 155.855 133.231 155.374V155.174C133.231 155.134 133.231 155.054 133.231 155.014C133.271 153.131 133.752 151.328 134.553 149.686C136.396 146.001 140.003 143.277 144.41 142.756C149.259 142.155 153.826 144.438 156.431 148.204C156.471 148.284 156.511 148.364 156.591 148.404C156.752 148.644 156.912 148.925 157.072 149.205C157.593 150.367 158.034 151.529 158.274 152.77Z" fill="#F97C15"/>
<path d="M134.233 158.859C133.752 159.42 133.311 160.021 132.91 160.742C132.269 161.984 133.151 164.868 134.433 167.592L134.032 167.432C132.79 166.951 131.748 166.03 131.027 164.908C130.706 164.387 130.466 163.867 130.306 163.266L129.745 161.143C129.384 159.821 130.506 158.539 131.868 158.739L133.431 158.98" fill="#F28389"/>
<path d="M166.889 144.358C166.689 144.919 166.448 145.48 166.168 146.041C164.565 149.205 161.76 151.649 158.274 152.77C157.994 151.529 157.553 150.367 156.992 149.285C156.832 149.005 156.671 148.765 156.511 148.484C156.471 148.404 156.431 148.324 156.351 148.284C153.746 144.519 149.218 142.235 144.33 142.836C139.922 143.357 136.316 146.081 134.473 149.766C133.671 151.368 133.191 153.171 133.151 155.094C133.151 155.134 133.151 155.214 133.151 155.254V155.454C133.151 155.975 133.191 156.456 133.231 156.976L133.351 158.138L133.431 158.779L133.471 159.059L132.83 158.979L131.908 158.819C130.827 158.659 129.905 159.42 129.745 160.421C129.705 160.662 129.705 160.942 129.785 161.223L130.346 163.346C130.506 163.946 130.746 164.467 131.067 164.988C131.748 166.11 132.79 166.991 134.072 167.512L134.473 167.672C134.713 168.193 134.994 168.753 135.274 169.274C135.795 170.235 136.396 171.357 137.158 172.158C137.478 172.519 138.36 173.6 138.72 173.761C134.553 171.798 130.626 169.074 127.942 165.388C127.781 165.188 127.661 164.988 127.501 164.788C124.776 160.782 123.614 155.534 125.177 150.928C125.537 149.846 126.098 148.765 126.9 147.923C128.342 146.401 130.506 145.72 132.55 145.159C131.428 143.237 132.269 140.753 133.631 139.031C136.556 135.305 141.886 133.703 146.373 135.225C147.656 135.666 148.738 136.026 149.819 135.025C151.663 133.302 152.785 130.979 154.668 129.297C156.872 127.294 159.877 126.973 162.562 128.295C168.131 130.939 168.692 139.151 166.889 144.358Z" fill="#F97C15"/>
<path d="M159.436 166.189C158.795 169.995 156.471 173.279 153.145 175.162C152.865 175.322 152.584 175.482 152.304 175.603C151.422 176.003 150.501 176.324 149.499 176.524C149.339 176.564 149.178 176.604 149.018 176.604C148.818 176.644 148.658 176.644 148.457 176.684C147.215 176.844 146.053 176.804 144.891 176.604C143.609 176.404 142.367 176.003 141.245 175.402C140.403 174.962 139.602 174.441 138.841 173.84C138.52 173.6 138.199 173.319 137.919 172.999C136.837 171.917 135.916 170.595 135.274 169.113C135.074 168.633 134.874 168.152 134.753 167.631L134.473 167.511C133.151 164.787 132.309 161.903 132.95 160.661C133.672 159.299 134.673 158.418 135.435 157.176C135.675 156.776 135.875 156.375 136.036 155.894C137.118 152.69 138.32 151.047 141.846 152.449C143.689 153.17 145.692 153.411 147.656 153.531C150.14 153.691 152.705 153.731 155.189 153.371C155.429 153.331 155.63 153.29 155.87 153.25C156.07 153.21 156.231 153.17 156.431 153.13C156.551 153.13 156.631 153.09 156.752 153.05C156.792 153.05 156.832 153.05 156.872 153.01C156.952 153.01 157.032 152.97 157.112 152.93C157.152 152.93 157.232 152.89 157.273 152.89C157.353 152.85 157.433 152.85 157.553 152.81C157.593 152.81 157.673 152.77 157.713 152.77C157.793 152.73 157.874 152.73 157.954 152.69C158.074 152.65 158.234 152.61 158.354 152.569C158.435 152.93 158.515 153.331 158.555 153.731L158.755 155.333L158.795 155.814L158.835 156.175L158.875 156.495L158.955 157.296L158.995 157.617L159.556 162.384C159.677 163.786 159.637 165.027 159.436 166.189Z" fill="#F28389"/>
<path d="M155.149 153.491C155.389 153.451 155.59 153.411 155.83 153.371C155.59 153.411 155.349 153.451 155.149 153.491Z" fill="#F4D1AE"/>
<path d="M166.168 146.041C165.527 148.484 162.922 151.529 162.041 152.49C160.879 153.812 159.677 155.174 158.795 156.656L158.755 156.336L158.475 153.892C158.435 153.492 158.354 153.131 158.274 152.731C161.76 151.649 164.565 149.246 166.168 146.041Z" fill="#EA6400"/>
<path d="M138.68 173.68C134.513 171.717 130.586 168.993 127.902 165.308C127.861 164.627 127.861 163.946 127.942 163.265C128.062 162.303 128.342 161.262 129.104 160.701C129.304 160.541 129.544 160.461 129.785 160.34C129.745 160.581 129.745 160.861 129.825 161.142L130.386 163.265C130.546 163.866 130.787 164.386 131.107 164.907C131.788 166.029 132.83 166.91 134.112 167.431L134.513 167.591C134.753 168.112 135.034 168.672 135.314 169.193C135.835 170.155 136.436 171.276 137.198 172.077C137.478 172.398 138.36 173.519 138.68 173.68Z" fill="#EA6400"/>
<path d="M140.323 148.764C145.332 149.045 149.779 152.449 154.548 153.531C152.264 153.811 149.9 153.771 147.616 153.611C145.652 153.491 143.649 153.251 141.806 152.53C138.279 151.128 137.077 152.77 135.996 155.975C135.595 157.176 134.914 158.017 134.232 158.819L133.511 158.939L132.87 158.859C133.07 158.618 133.231 158.338 133.391 158.057C133.872 157.176 134.112 156.095 134.273 155.093C134.553 153.251 134.753 151.208 136.076 149.966C137.198 148.964 138.84 148.684 140.323 148.764Z" fill="#EA6400"/>
<path d="M156.15 153.812H155.95L154.988 153.772C155.069 153.732 155.149 153.732 155.229 153.692C155.549 153.612 155.87 153.692 156.15 153.812Z" fill="#F4D1AE"/>
<path d="M157.914 153.852C157.353 153.892 156.752 153.852 156.191 153.812H156.151L157.914 153.852Z" fill="#F4D1AE"/>
<path d="M158.675 155.495C154.868 157.377 150.14 157.097 145.973 156.016C143.929 155.495 141.806 154.774 139.722 155.214C138.159 155.575 136.837 156.496 135.435 157.257C135.675 156.857 135.875 156.456 136.036 155.975C137.118 152.771 138.32 151.129 141.846 152.531C143.689 153.252 145.692 153.492 147.656 153.612C150.14 153.772 152.705 153.812 155.189 153.452C155.429 153.412 155.63 153.372 155.87 153.332C156.07 153.292 156.231 153.252 156.431 153.212C156.551 153.212 156.631 153.171 156.752 153.131C156.792 153.131 156.832 153.131 156.872 153.091C156.952 153.091 157.032 153.051 157.112 153.011C157.152 153.011 157.232 152.971 157.272 152.971C157.353 152.931 157.433 152.931 157.553 152.891C157.593 152.891 157.673 152.851 157.713 152.851C157.793 152.811 157.874 152.811 157.954 152.771C158.074 152.731 158.234 152.691 158.354 152.651C158.434 153.011 158.515 153.412 158.555 153.812L158.675 155.495Z" fill="#F16B6C"/>
<path d="M512.126 204.885C511.765 205.005 511.365 205.085 510.964 205.166C510.804 205.206 510.643 205.206 510.483 205.246H466.727C450.139 203.403 435.233 200.118 430.224 197.074C425.937 194.47 422.771 191.426 420.688 188.261C416.881 182.453 416.681 176.324 419.526 171.918C420.047 171.077 420.608 170.275 421.209 169.474C421.369 169.274 421.489 169.074 421.649 168.873C421.81 168.673 421.93 168.473 422.09 168.273C423.052 166.991 424.013 165.869 424.975 164.868C425.135 164.707 425.336 164.507 425.496 164.347C425.576 164.267 425.656 164.187 425.777 164.107C426.017 163.866 426.257 163.666 426.498 163.426C426.618 163.305 426.738 163.225 426.858 163.105C426.979 163.025 427.059 162.905 427.179 162.825C427.219 162.785 427.259 162.745 427.299 162.705C428.942 161.303 430.745 159.981 432.949 158.458C434.351 155.094 435.874 151.649 437.597 148.204C438.599 146.201 439.681 144.158 440.803 142.195C440.843 142.155 440.883 142.075 440.883 142.035C441.003 141.835 441.083 141.634 441.203 141.474C441.203 141.434 441.243 141.434 441.243 141.394C441.444 141.033 441.644 140.713 441.844 140.352C441.884 140.312 441.884 140.272 441.925 140.232C442.165 139.872 442.365 139.511 442.606 139.111C442.646 139.031 442.726 138.95 442.766 138.87C447.334 131.58 452.863 125.171 459.595 121.445C459.635 121.445 459.635 121.405 459.675 121.405C459.876 121.285 460.076 121.205 460.276 121.085C460.437 121.005 460.597 120.924 460.757 120.844C460.998 120.724 461.278 120.604 461.518 120.484C461.558 120.484 461.599 120.444 461.639 120.444C461.679 120.444 461.719 120.404 461.759 120.404C465.325 118.761 468.45 117.8 471.175 117.199C471.175 117.199 471.175 117.199 471.215 117.199C471.335 117.159 471.456 117.159 471.576 117.119L473.619 116.678L474.942 116.759L474.661 109.228C474.621 108.026 474.701 106.864 474.861 105.703C475.583 101.216 477.586 90.0401 480.511 88.4378C482.715 87.2361 484.839 87.4764 486.442 88.9986C486.642 89.239 486.842 89.4392 487.043 89.6796C487.804 90.641 488.365 91.9629 488.685 93.5652C489.687 98.6925 492.692 100.495 496.98 101.136C499.544 101.537 500.185 99.4937 501.107 97.3306C501.708 95.8485 502.469 94.3263 503.952 93.445C507.678 91.1617 509.602 97.7712 512.847 98.8528C515.291 99.6539 502.309 110.149 495.738 115.316C495.617 115.316 495.497 115.316 495.377 115.316C494.255 115.316 493.213 115.797 492.212 116.318C492.171 116.318 492.171 116.278 492.131 116.278C491.891 116.198 491.691 116.158 491.49 116.158C489.487 115.156 486.922 115.036 485.36 116.919C485.199 117.119 485.079 117.319 484.959 117.52C484.919 117.6 484.879 117.68 484.839 117.76C484.518 118.521 484.478 119.402 484.839 120.163C485.32 121.245 486.361 122.046 487.604 122.046C488.525 122.046 489.246 121.605 489.767 120.924C489.607 121.605 489.407 122.286 489.246 122.967C488.806 124.69 488.445 126.452 488.165 128.215C488.044 129.096 487.884 129.978 487.804 130.859C487.764 131.299 487.684 131.74 487.644 132.221C487.604 132.741 487.604 133.222 487.604 133.743C487.604 134.584 487.443 135.465 487.403 136.347C487.323 137.308 487.323 138.229 487.323 139.191C487.323 139.752 487.924 140.112 488.405 140.112C488.886 140.112 489.447 139.712 489.487 139.191C489.567 138.269 489.607 137.388 489.687 136.467C489.727 135.626 489.727 134.744 489.847 133.903C489.888 133.663 489.968 133.463 490.008 133.262C490.048 133.022 490.048 132.822 490.088 132.581C490.128 132.141 490.168 131.66 490.208 131.219C490.288 130.338 490.408 129.457 490.529 128.575C490.769 126.813 490.969 125.01 491.21 123.248C491.37 122.086 491.57 120.965 491.771 119.843C492.051 120.764 492.332 121.646 492.572 122.567C493.213 125.131 493.614 127.774 493.694 130.418C493.774 132.982 493.374 135.586 493.093 138.149C493.013 138.67 493.374 139.151 493.854 139.311C494.335 139.431 494.936 139.191 495.097 138.71C495.657 136.988 495.858 135.185 495.978 133.382C496.138 130.578 495.898 127.774 495.297 125.01C494.976 123.568 494.576 122.166 494.015 120.764C494.375 120.924 494.736 121.085 495.137 121.205C495.938 121.405 496.779 121.365 497.501 121.005C512.567 129.417 518.136 147.282 521.021 163.225C521.663 166.871 522.624 171.677 523.185 176.725C524.387 188.502 523.626 201.641 512.126 204.885Z" fill="white"/>
<path opacity="0.3" d="M512.126 204.885C511.765 205.005 511.365 205.085 510.964 205.166C510.804 205.206 510.643 205.206 510.483 205.246H466.727C450.139 203.403 435.233 200.118 430.224 197.074C425.937 194.47 422.771 191.426 420.688 188.261C416.881 182.453 416.681 176.324 419.526 171.918C420.047 171.077 420.608 170.275 421.209 169.474C421.369 169.274 421.489 169.074 421.649 168.873C421.81 168.673 421.93 168.473 422.09 168.273C423.052 166.991 424.013 165.869 424.975 164.868C425.135 164.707 425.336 164.507 425.496 164.347C425.576 164.267 425.656 164.187 425.777 164.107C426.017 163.866 426.257 163.666 426.498 163.426C426.618 163.305 426.738 163.225 426.858 163.105C426.979 163.025 427.059 162.905 427.179 162.825C427.219 162.785 427.259 162.745 427.299 162.705C428.942 161.303 430.745 159.981 432.949 158.458C434.351 155.094 435.874 151.649 437.597 148.204C438.599 146.201 439.681 144.158 440.803 142.195C440.843 142.155 440.883 142.075 440.883 142.035C441.003 141.835 441.083 141.634 441.203 141.474C441.203 141.434 441.243 141.434 441.243 141.394C441.444 141.033 441.644 140.713 441.844 140.352C441.884 140.312 441.884 140.272 441.925 140.232C442.165 139.872 442.365 139.511 442.606 139.111C442.646 139.031 442.726 138.95 442.766 138.87C447.334 131.58 452.863 125.171 459.595 121.445C459.635 121.445 459.635 121.405 459.675 121.405C459.876 121.285 460.076 121.205 460.276 121.085C460.437 121.005 460.597 120.924 460.757 120.844C460.998 120.724 461.278 120.604 461.518 120.484C461.558 120.484 461.599 120.444 461.639 120.444C461.679 120.444 461.719 120.404 461.759 120.404C465.325 118.761 468.45 117.8 471.175 117.199C471.175 117.199 471.175 117.199 471.215 117.199C471.335 117.159 471.456 117.159 471.576 117.119L473.619 116.678L474.942 116.759L474.661 109.228C474.621 108.026 474.701 106.864 474.861 105.703C475.583 101.216 477.586 90.0401 480.511 88.4378C482.715 87.2361 484.839 87.4764 486.442 88.9986C486.642 89.239 486.842 89.4392 487.043 89.6796C487.804 90.641 488.365 91.9629 488.685 93.5652C489.687 98.6925 492.692 100.495 496.98 101.136C499.544 101.537 500.185 99.4937 501.107 97.3306C501.708 95.8485 502.469 94.3263 503.952 93.445C507.678 91.1617 509.602 97.7712 512.847 98.8528C515.291 99.6539 502.309 110.149 495.738 115.316C495.617 115.316 495.497 115.316 495.377 115.316C494.255 115.316 493.213 115.797 492.212 116.318C492.171 116.318 492.171 116.278 492.131 116.278C491.891 116.198 491.691 116.158 491.49 116.158C489.487 115.156 486.922 115.036 485.36 116.919C485.199 117.119 485.079 117.319 484.959 117.52C484.919 117.6 484.879 117.68 484.839 117.76C484.518 118.521 484.478 119.402 484.839 120.163C485.32 121.245 486.361 122.046 487.604 122.046C488.525 122.046 489.246 121.605 489.767 120.924C489.607 121.605 489.407 122.286 489.246 122.967C488.806 124.69 488.445 126.452 488.165 128.215C488.044 129.096 487.884 129.978 487.804 130.859C487.764 131.299 487.684 131.74 487.644 132.221C487.604 132.741 487.604 133.222 487.604 133.743C487.604 134.584 487.443 135.465 487.403 136.347C487.323 137.308 487.323 138.229 487.323 139.191C487.323 139.752 487.924 140.112 488.405 140.112C488.886 140.112 489.447 139.712 489.487 139.191C489.567 138.269 489.607 137.388 489.687 136.467C489.727 135.626 489.727 134.744 489.847 133.903C489.888 133.663 489.968 133.463 490.008 133.262C490.048 133.022 490.048 132.822 490.088 132.581C490.128 132.141 490.168 131.66 490.208 131.219C490.288 130.338 490.408 129.457 490.529 128.575C490.769 126.813 490.969 125.01 491.21 123.248C491.37 122.086 491.57 120.965 491.771 119.843C492.051 120.764 492.332 121.646 492.572 122.567C493.213 125.131 493.614 127.774 493.694 130.418C493.774 132.982 493.374 135.586 493.093 138.149C493.013 138.67 493.374 139.151 493.854 139.311C494.335 139.431 494.936 139.191 495.097 138.71C495.657 136.988 495.858 135.185 495.978 133.382C496.138 130.578 495.898 127.774 495.297 125.01C494.976 123.568 494.576 122.166 494.015 120.764C494.375 120.924 494.736 121.085 495.137 121.205C495.938 121.405 496.779 121.365 497.501 121.005C512.567 129.417 518.136 147.282 521.021 163.225C521.663 166.871 522.624 171.677 523.185 176.725C524.387 188.502 523.626 201.641 512.126 204.885Z" fill="#FFB238"/>
<path opacity="0.8" d="M501.068 97.3304C500.147 99.4935 499.505 101.536 496.941 101.136C492.654 100.495 489.648 98.7324 488.687 93.5649C488.366 91.9226 487.805 90.6407 487.044 89.6794C492.934 96.0886 497.983 97.3704 501.068 97.3304Z" fill="#FFB238"/>
<path opacity="0.5" d="M521.143 195.711C520.662 199.276 517.537 201.96 514.251 203.482C504.875 207.889 494.697 205.245 484.8 205.245C478.91 205.245 472.579 205.886 466.688 205.245C450.1 203.402 435.194 200.117 430.185 197.073C425.898 194.469 422.732 191.425 420.649 188.26C416.842 182.452 416.642 176.323 419.487 171.917C421.65 168.592 424.095 165.428 427.1 162.824C434.232 156.695 436.917 148.523 441.645 140.632C446.453 132.58 452.744 124.529 461.439 120.483C461.479 120.483 461.52 120.443 461.56 120.443C461.6 120.443 461.64 120.403 461.68 120.403C462.842 119.922 467.33 118.2 471.096 117.198C471.096 117.198 471.096 117.198 471.136 117.198C471.256 117.158 471.377 117.118 471.497 117.118C472.218 116.918 472.899 116.798 473.54 116.677C474.021 116.597 474.462 116.557 474.863 116.517C475.664 116.477 476.265 116.557 476.546 116.878C476.626 116.958 476.666 117.078 476.666 117.238C476.666 117.318 476.666 117.358 476.666 117.439C476.505 118.48 474.823 120.082 474.222 121.004C471.777 124.769 469.614 128.735 467.81 132.821C465.006 139.11 462.962 145.839 462.08 152.649C461.439 157.817 459.837 162.904 457.352 167.511C455.629 170.715 452.344 172.638 450.941 176.043C448.096 182.893 455.028 185.296 459.756 187.9C464.485 190.504 469.293 192.907 474.422 194.549C481.875 196.913 489.688 198.034 497.462 198.115C499.545 198.155 521.103 196.152 521.143 195.711Z" fill="#FFB238"/>
<g opacity="0.8">
<path opacity="0.8" d="M479.952 178.768C478.83 178.407 477.908 177.967 477.067 177.446C476.265 176.925 475.584 176.445 474.983 175.964C474.422 175.483 473.941 175.003 473.621 174.562C473.3 174.121 473.06 173.801 472.899 173.601C472.739 173.36 472.659 173.16 472.659 172.96C472.619 172.759 472.739 172.559 473.02 172.319L475.263 170.276C475.504 170.035 475.744 169.955 476.025 169.995C476.305 170.035 476.586 170.316 476.906 170.756C477.387 171.437 478.028 172.078 478.709 172.719C479.431 173.36 480.232 173.841 481.073 174.201L483.157 166.15C482.276 165.509 481.434 164.828 480.633 164.107C479.791 163.346 479.07 162.545 478.469 161.623C477.868 160.702 477.427 159.701 477.187 158.619C476.946 157.497 476.986 156.296 477.347 154.894C477.587 153.892 477.988 153.011 478.549 152.21C479.11 151.409 479.791 150.728 480.633 150.207C481.474 149.686 482.476 149.326 483.638 149.125C484.8 148.925 486.082 148.965 487.525 149.206L487.845 147.884C487.885 147.683 488.006 147.483 488.206 147.403C488.406 147.283 488.607 147.283 488.807 147.323L489.328 147.443C489.528 147.483 489.729 147.643 489.809 147.804C489.929 148.004 489.929 148.204 489.889 148.404L489.528 149.766C490.41 150.087 491.211 150.447 491.972 150.888C492.734 151.329 493.375 151.769 493.936 152.21C494.497 152.65 494.938 153.091 495.298 153.452C495.659 153.812 495.899 154.093 496.06 154.293C496.26 154.493 496.34 154.733 496.3 155.014C496.26 155.294 496.14 155.535 495.979 155.735L493.695 157.698C493.215 158.098 492.814 158.098 492.453 157.738C491.972 157.217 491.411 156.616 490.73 155.975C490.049 155.334 489.248 154.774 488.366 154.293L486.403 161.824C487.204 162.425 488.046 163.146 488.927 163.907C489.809 164.668 490.57 165.549 491.211 166.51C491.852 167.472 492.333 168.513 492.654 169.675C492.974 170.837 492.934 172.078 492.573 173.4C491.972 175.644 490.77 177.326 488.927 178.448C487.084 179.569 484.72 179.85 481.915 179.289L480.793 183.575C480.753 183.775 480.593 183.935 480.392 184.056C480.192 184.136 479.992 184.176 479.751 184.096C479.511 184.016 479.23 183.935 478.95 183.775C478.669 183.615 478.589 183.375 478.669 183.014L479.952 178.768ZM486.403 153.772C485.321 153.652 484.439 153.772 483.798 154.213C483.117 154.613 482.716 155.214 482.476 156.015C482.276 156.857 482.356 157.578 482.716 158.259C483.117 158.94 483.758 159.661 484.64 160.502L486.403 153.772ZM483.197 174.842C484.159 174.963 485 174.882 485.722 174.522C486.443 174.161 486.924 173.561 487.164 172.599C487.364 171.798 487.324 170.997 487.004 170.156C486.683 169.314 486.042 168.473 485.08 167.592L483.197 174.842Z" fill="#FFB238"/>
</g>
<path opacity="0.8" d="M498.503 116.959C497.902 115.918 496.861 115.357 495.699 115.277C495.578 115.277 495.458 115.277 495.338 115.277C494.216 115.277 493.174 115.758 492.173 116.278C492.132 116.278 492.132 116.238 492.092 116.238C491.852 116.158 491.652 116.118 491.451 116.118C489.448 115.117 486.883 114.997 485.321 116.879C485.16 117.08 485.04 117.28 484.92 117.48C484.88 117.56 484.84 117.64 484.8 117.72C484.479 118.482 484.439 119.363 484.8 120.124C485.281 121.206 486.322 122.007 487.565 122.007C488.486 122.007 489.207 121.566 489.728 120.885C489.568 121.566 489.368 122.247 489.207 122.928C488.767 124.65 488.406 126.413 488.126 128.176C488.005 129.057 487.845 129.938 487.765 130.819C487.725 131.26 487.645 131.701 487.605 132.181C487.565 132.702 487.565 133.183 487.565 133.703C487.565 134.545 487.404 135.426 487.364 136.307C487.284 137.269 487.284 138.19 487.284 139.151C487.284 139.712 487.885 140.073 488.366 140.073C488.847 140.073 489.408 139.672 489.448 139.151C489.528 138.23 489.568 137.349 489.648 136.427C489.688 135.586 489.688 134.705 489.808 133.864C489.849 133.623 489.929 133.423 489.969 133.223C490.009 132.982 490.009 132.782 490.049 132.542C490.089 132.101 490.129 131.62 490.169 131.18C490.249 130.299 490.369 129.417 490.49 128.536C490.73 126.774 490.93 124.971 491.171 123.208C491.331 122.047 491.531 120.925 491.732 119.803C492.012 120.725 492.293 121.606 492.533 122.527C493.174 125.091 493.575 127.735 493.655 130.379C493.735 132.942 493.335 135.546 493.054 138.11C492.974 138.631 493.335 139.111 493.815 139.271C494.296 139.392 494.897 139.151 495.058 138.671C495.618 136.948 495.819 135.146 495.939 133.343C496.099 130.539 495.859 127.735 495.258 124.971C494.937 123.529 494.537 122.127 493.976 120.725C494.336 120.885 494.697 121.045 495.098 121.165C495.899 121.366 496.74 121.326 497.462 120.965C497.782 120.805 498.063 120.605 498.303 120.324C499.024 119.443 499.104 118.001 498.503 116.959ZM494.376 117.56C494.857 117.52 495.298 117.6 495.618 117.72C495.699 117.761 495.779 117.801 495.859 117.841C495.899 117.881 495.939 117.881 495.979 117.921C495.979 117.921 495.939 117.921 495.899 117.881C495.939 117.921 496.019 117.961 496.059 118.001C495.979 117.961 496.22 118.241 496.179 118.161C496.22 118.201 496.22 118.281 496.26 118.361C496.26 118.361 496.26 118.401 496.26 118.442C496.26 118.442 496.26 118.562 496.26 118.602V118.642C496.22 118.642 496.179 118.682 496.179 118.682C496.179 118.682 496.179 118.682 496.22 118.682C496.179 118.682 496.099 118.682 496.099 118.682C496.059 118.682 496.059 118.682 496.059 118.682H496.019C495.939 118.682 495.819 118.642 495.739 118.642C495.699 118.642 495.578 118.602 495.578 118.602C495.498 118.562 495.418 118.562 495.338 118.522C495.178 118.442 494.977 118.361 494.817 118.281C494.497 118.081 494.176 117.881 493.855 117.64C493.976 117.6 494.176 117.56 494.376 117.56Z" fill="#FFB238"/>
<g opacity="0.5">
<g opacity="0.6">
<g opacity="0.6">
<path opacity="0.6" d="M249.953 258.079C249.993 260.402 250.073 262.766 250.113 265.089L250.233 272.099C250.233 272.259 250.113 272.38 249.993 272.38C249.832 272.38 249.712 272.259 249.712 272.139L249.832 265.129C249.872 262.766 249.912 260.442 249.953 258.079Z" fill="#231F20"/>
<path opacity="0.6" d="M250.394 286.119L250.474 293.129L250.514 300.139C250.514 300.42 250.273 300.7 249.993 300.7C249.712 300.7 249.432 300.46 249.432 300.179L249.472 293.169L249.552 286.159C249.552 285.919 249.752 285.718 249.993 285.718C250.193 285.718 250.394 285.919 250.394 286.119Z" fill="#231F20"/>
<path opacity="0.6" d="M250.554 314.16C250.554 318.847 250.554 323.493 250.554 328.18C250.554 328.501 250.273 328.781 249.953 328.781C249.632 328.781 249.352 328.501 249.352 328.18C249.352 323.493 249.352 318.847 249.352 314.16C249.352 313.839 249.632 313.559 249.953 313.559C250.273 313.599 250.554 313.839 250.554 314.16Z" fill="#231F20"/>
<path opacity="0.6" d="M250.514 342.2L250.474 349.21L250.394 356.22C250.394 356.46 250.193 356.621 249.953 356.621C249.712 356.621 249.552 356.42 249.552 356.22L249.472 349.21L249.432 342.2C249.432 341.919 249.672 341.679 249.953 341.639C250.273 341.679 250.514 341.919 250.514 342.2Z" fill="#231F20"/>
<path opacity="0.6" d="M250.233 370.241L250.113 376.93C250.073 379.174 250.033 381.377 249.993 383.62C249.953 381.377 249.873 379.174 249.873 376.93L249.752 370.241C249.752 370.081 249.873 370 249.993 370C250.113 370 250.233 370.121 250.233 370.241Z" fill="#231F20"/>
</g>
</g>
<g opacity="0.6">
<g opacity="0.6">
<path opacity="0.6" d="M282.168 258.079C282.328 260.402 282.448 262.766 282.529 265.089C282.569 266.251 282.609 267.412 282.649 268.614C282.689 269.776 282.729 270.938 282.729 272.139C282.729 272.42 282.489 272.66 282.208 272.66C281.928 272.66 281.687 272.42 281.687 272.139C281.687 270.978 281.727 269.816 281.767 268.614C281.807 267.452 281.848 266.291 281.888 265.089C281.928 262.766 282.008 260.442 282.168 258.079Z" fill="#231F20"/>
<path opacity="0.6" d="M282.73 286.119L282.69 289.644L282.609 293.129C282.529 295.452 282.449 297.815 282.329 300.139C282.329 300.219 282.249 300.259 282.169 300.259C282.089 300.259 282.049 300.219 282.049 300.139C281.928 297.815 281.848 295.452 281.768 293.129L281.688 289.644L281.648 286.119C281.648 285.798 281.888 285.558 282.209 285.558C282.489 285.558 282.73 285.798 282.73 286.119Z" fill="#231F20"/>
</g>
</g>
<g opacity="0.6">
<g opacity="0.6">
<path opacity="0.6" d="M310.698 230.04C310.818 232.363 310.858 234.727 310.938 237.05C311.019 239.373 311.059 241.737 311.099 244.06C311.099 244.3 310.938 244.461 310.698 244.461C310.458 244.461 310.297 244.3 310.297 244.06C310.337 241.737 310.377 239.373 310.458 237.05C310.538 234.687 310.578 232.363 310.698 230.04Z" fill="#231F20"/>
<path opacity="0.6" d="M311.259 258.08L311.299 265.09V272.1C311.299 272.42 311.019 272.701 310.698 272.701C310.377 272.701 310.097 272.46 310.097 272.1V265.09L310.137 258.08C310.137 257.759 310.377 257.519 310.698 257.519C311.019 257.519 311.259 257.759 311.259 258.08Z" fill="#231F20"/>
<path opacity="0.6" d="M311.139 286.121C311.099 288.445 311.059 290.808 311.019 293.131L310.818 300.142C310.818 300.182 310.778 300.222 310.738 300.222C310.698 300.222 310.658 300.182 310.658 300.142L310.458 293.131C310.418 290.808 310.337 288.445 310.337 286.121C310.337 285.881 310.538 285.681 310.778 285.681C310.938 285.681 311.099 285.841 311.139 286.121Z" fill="#231F20"/>
</g>
</g>
<g opacity="0.6">
<g opacity="0.6">
<path opacity="0.6" d="M343.835 230.04L343.956 237.05L344.036 244.06C344.036 244.18 343.956 244.26 343.835 244.26C343.715 244.26 343.635 244.18 343.635 244.06L343.715 237.05L343.835 230.04Z" fill="#231F20"/>
<path opacity="0.6" d="M344.196 258.08L344.316 272.101C344.316 272.381 344.116 272.581 343.836 272.581C343.555 272.581 343.355 272.381 343.355 272.101L343.475 258.08C343.475 257.88 343.635 257.72 343.836 257.72C344.036 257.72 344.196 257.88 344.196 258.08Z" fill="#231F20"/>
<path opacity="0.6" d="M344.396 286.121L344.436 300.141C344.436 300.462 344.196 300.702 343.876 300.702C343.555 300.702 343.315 300.462 343.315 300.141L343.355 286.121C343.355 285.841 343.595 285.6 343.876 285.6C344.156 285.56 344.396 285.801 344.396 286.121Z" fill="#231F20"/>
<path opacity="0.6" d="M344.436 314.16L344.396 328.18C344.396 328.501 344.156 328.741 343.835 328.741C343.515 328.741 343.274 328.501 343.274 328.18L343.234 314.16C343.234 313.84 343.515 313.559 343.835 313.559C344.156 313.559 344.436 313.84 344.436 314.16Z" fill="#231F20"/>
<path opacity="0.6" d="M344.356 342.201L344.316 349.211L344.276 356.221C344.276 356.461 344.076 356.621 343.875 356.621C343.635 356.621 343.475 356.421 343.475 356.221L343.435 349.211L343.395 342.201C343.395 341.92 343.635 341.68 343.915 341.68C344.116 341.68 344.356 341.92 344.356 342.201Z" fill="#231F20"/>
<path opacity="0.6" d="M344.116 370.241L343.916 384.262C343.916 384.302 343.876 384.342 343.836 384.342C343.796 384.342 343.756 384.302 343.756 384.262L343.555 370.241C343.555 370.081 343.675 369.961 343.836 369.961C343.996 369.961 344.116 370.081 344.116 370.241Z" fill="#231F20"/>
</g>
</g>
<g opacity="0.6">
<g opacity="0.6">
<path opacity="0.6" d="M370.6 204.563C370.761 206.887 370.841 209.25 370.921 211.573C371.001 213.897 371.041 216.26 371.121 218.583C371.121 218.864 370.921 219.104 370.64 219.104C370.36 219.104 370.12 218.904 370.12 218.623C370.12 218.623 370.12 218.623 370.12 218.583C370.16 216.26 370.24 213.897 370.32 211.573C370.36 209.21 370.44 206.887 370.6 204.563Z" fill="#231F20"/>
<path opacity="0.6" d="M371.163 232.604C371.163 233.765 371.163 234.927 371.123 236.129L371.082 239.654L371.042 243.099C371.002 244.26 371.002 245.422 370.962 246.624C370.962 246.824 370.802 246.984 370.602 246.944C370.401 246.944 370.281 246.784 370.281 246.624C370.241 245.462 370.201 244.3 370.201 243.099L370.121 239.574L370.081 236.049C370.081 234.887 370.081 233.725 370.041 232.524C370.041 232.203 370.281 231.923 370.642 231.923C371.002 231.923 371.163 232.243 371.163 232.604C371.163 232.604 371.163 232.564 371.163 232.604Z" fill="#231F20"/>
</g>
</g>
</g>
<path opacity="0.3" d="M249.953 258.121C251.878 258.121 253.439 256.56 253.439 254.636C253.439 252.711 251.878 251.151 249.953 251.151C248.028 251.151 246.467 252.711 246.467 254.636C246.467 256.56 248.028 258.121 249.953 258.121Z" fill="#6457A4"/>
<path opacity="0.3" d="M282.169 258.121C284.094 258.121 285.655 256.56 285.655 254.636C285.655 252.711 284.094 251.151 282.169 251.151C280.244 251.151 278.683 252.711 278.683 254.636C278.683 256.56 280.244 258.121 282.169 258.121Z" fill="#6457A4"/>
<path opacity="0.3" d="M311.74 231.923C313.665 231.923 315.226 230.363 315.226 228.438C315.226 226.513 313.665 224.953 311.74 224.953C309.814 224.953 308.254 226.513 308.254 228.438C308.254 230.363 309.814 231.923 311.74 231.923Z" fill="#6457A4"/>
<path opacity="0.3" d="M343.956 231.923C345.881 231.923 347.442 230.363 347.442 228.438C347.442 226.513 345.881 224.953 343.956 224.953C342.03 224.953 340.47 226.513 340.47 228.438C340.47 230.363 342.03 231.923 343.956 231.923Z" fill="#6457A4"/>
<path opacity="0.3" d="M369.881 207.528C371.806 207.528 373.367 205.968 373.367 204.043C373.367 202.119 371.806 200.558 369.881 200.558C367.955 200.558 366.395 202.119 366.395 204.043C366.395 205.968 367.955 207.528 369.881 207.528Z" fill="#6457A4"/>
<path opacity="0.4" d="M395.525 192.667L369.881 204.043L343.956 228.438H311.74L282.169 254.636H249.953" stroke="#6457A4" stroke-width="8.11799" stroke-miterlimit="10" stroke-linecap="round" stroke-linejoin="round"/>
<path opacity="0.4" d="M390.356 192.666H395.525L392.079 196.111" stroke="#6457A4" stroke-width="8.11799" stroke-miterlimit="10" stroke-linecap="round" stroke-linejoin="round"/>
</svg>
