<svg width="1268" height="394" viewBox="0 0 1268 394" fill="none" xmlns="http://www.w3.org/2000/svg">
<g clip-path="url(#clip0)">
<path d="M0 349.778L37.2681 328.87L0.54907 307L0 349.778ZM6.86338 318.279L24.2963 328.664L6.58884 338.636L6.86338 318.279Z" fill="#D1D1D6"/>
<path d="M17.5695 384.028L37.1987 394L35.9633 371.992L17.5695 384.028ZM19.148 383.959L35.2083 373.436L36.3065 392.693L19.148 383.959Z" fill="#D1D1D6"/>
<path d="M97.6662 350.81L107 339.462L92.5187 336.986L97.6662 350.81ZM97.8035 349.778L93.3423 337.674L105.971 339.806L97.8035 349.778Z" fill="#D1D1D6"/>
<path d="M55.8677 347.371L55.1813 356.724L54.4264 366.009L62.8683 361.951L71.2416 357.962L63.5546 352.667L55.8677 347.371Z" fill="#D1D1D6"/>
<path d="M92.4489 385.884L95.5374 389.323L98.6259 392.762L100.067 388.429L101.509 384.027L96.9787 384.921L92.4489 385.884Z" fill="#D1D1D6"/>
</g>
<g clip-path="url(#clip1)">
<path d="M1148 48.1866L1189.8 24.6356L1148.62 0L1148 48.1866ZM1155.7 12.7051L1175.25 24.4032L1155.39 35.6364L1155.7 12.7051Z" fill="#D1D1D6"/>
<path d="M1167.7 86.7665L1189.72 97.9997L1188.33 73.2092L1167.7 86.7665ZM1169.47 86.6891L1187.49 74.8361L1188.72 96.5278L1169.47 86.6891Z" fill="#D1D1D6"/>
<path d="M1257.53 49.3485L1268 36.5659L1251.76 33.777L1257.53 49.3485ZM1257.69 48.1865L1252.68 34.5517L1266.85 36.9533L1257.69 48.1865Z" fill="#D1D1D6"/>
<path d="M1210.66 45.4751L1209.89 56.0111L1209.04 66.4696L1218.51 61.8988L1227.9 57.4055L1219.28 51.4403L1210.66 45.4751Z" fill="#D1D1D6"/>
<path d="M1251.68 88.8581L1255.14 92.7316L1258.61 96.6051L1260.22 91.7245L1261.84 86.7664L1256.76 87.7735L1251.68 88.8581Z" fill="#D1D1D6"/>
</g>
<defs>
<clipPath id="clip0">
<rect width="107" height="87" fill="white" transform="translate(0 307)"/>
</clipPath>
<clipPath id="clip1">
<rect width="120" height="98" fill="white" transform="translate(1148)"/>
</clipPath>
</defs>
</svg>
