<svg width="240" height="40" viewBox="0 0 240 40" fill="none" xmlns="http://www.w3.org/2000/svg">
<path d="M19.0489 2.92705C19.3483 2.00574 20.6517 2.00574 20.9511 2.92705L24.2658 13.1287C24.3996 13.5407 24.7836 13.8197 25.2168 13.8197H35.9434C36.9122 13.8197 37.3149 15.0593 36.5312 15.6287L27.8532 21.9336C27.5027 22.1883 27.3561 22.6396 27.4899 23.0517L30.8046 33.2533C31.104 34.1746 30.0495 34.9407 29.2658 34.3713L20.5878 28.0664C20.2373 27.8117 19.7627 27.8117 19.4122 28.0664L10.7342 34.3713C9.95048 34.9407 8.896 34.1746 9.19535 33.2533L12.5101 23.0517C12.6439 22.6396 12.4973 22.1883 12.1468 21.9336L3.46877 15.6287C2.68505 15.0593 3.08783 13.8197 4.05655 13.8197H14.7832C15.2164 13.8197 15.6004 13.5407 15.7342 13.1287L19.0489 2.92705Z" fill="#FFCC00"/>
<path d="M69.0489 2.92705C69.3483 2.00574 70.6517 2.00574 70.9511 2.92705L74.2658 13.1287C74.3996 13.5407 74.7836 13.8197 75.2168 13.8197H85.9434C86.9122 13.8197 87.3149 15.0593 86.5312 15.6287L77.8532 21.9336C77.5027 22.1883 77.3561 22.6396 77.4899 23.0517L80.8046 33.2533C81.104 34.1746 80.0495 34.9407 79.2658 34.3713L70.5878 28.0664C70.2373 27.8117 69.7627 27.8117 69.4122 28.0664L60.7342 34.3713C59.9505 34.9407 58.896 34.1746 59.1954 33.2533L62.5101 23.0517C62.6439 22.6396 62.4973 22.1883 62.1468 21.9336L53.4688 15.6287C52.6851 15.0593 53.0878 13.8197 54.0566 13.8197H64.7832C65.2164 13.8197 65.6004 13.5407 65.7342 13.1287L69.0489 2.92705Z" fill="#FFCC00"/>
<path d="M119.049 2.92705C119.348 2.00574 120.652 2.00574 120.951 2.92705L124.266 13.1287C124.4 13.5407 124.784 13.8197 125.217 13.8197H135.943C136.912 13.8197 137.315 15.0593 136.531 15.6287L127.853 21.9336C127.503 22.1883 127.356 22.6396 127.49 23.0517L130.805 33.2533C131.104 34.1746 130.05 34.9407 129.266 34.3713L120.588 28.0664C120.237 27.8117 119.763 27.8117 119.412 28.0664L110.734 34.3713C109.95 34.9407 108.896 34.1746 109.195 33.2533L112.51 23.0517C112.644 22.6396 112.497 22.1883 112.147 21.9336L103.469 15.6287C102.685 15.0593 103.088 13.8197 104.057 13.8197H114.783C115.216 13.8197 115.6 13.5407 115.734 13.1287L119.049 2.92705Z" fill="#FFCC00"/>
<path d="M169.049 2.92705C169.348 2.00574 170.652 2.00574 170.951 2.92705L174.266 13.1287C174.4 13.5407 174.784 13.8197 175.217 13.8197H185.943C186.912 13.8197 187.315 15.0593 186.531 15.6287L177.853 21.9336C177.503 22.1883 177.356 22.6396 177.49 23.0517L180.805 33.2533C181.104 34.1746 180.05 34.9407 179.266 34.3713L170.588 28.0664C170.237 27.8117 169.763 27.8117 169.412 28.0664L160.734 34.3713C159.95 34.9407 158.896 34.1746 159.195 33.2533L162.51 23.0517C162.644 22.6396 162.497 22.1883 162.147 21.9336L153.469 15.6287C152.685 15.0593 153.088 13.8197 154.057 13.8197H164.783C165.216 13.8197 165.6 13.5407 165.734 13.1287L169.049 2.92705Z" fill="#FFCC00"/>
<path d="M219.049 2.92705C219.348 2.00574 220.652 2.00574 220.951 2.92705L224.266 13.1287C224.4 13.5407 224.784 13.8197 225.217 13.8197H235.943C236.912 13.8197 237.315 15.0593 236.531 15.6287L227.853 21.9336C227.503 22.1883 227.356 22.6396 227.49 23.0517L230.805 33.2533C231.104 34.1746 230.05 34.9407 229.266 34.3713L220.588 28.0664C220.237 27.8117 219.763 27.8117 219.412 28.0664L210.734 34.3713C209.95 34.9407 208.896 34.1746 209.195 33.2533L212.51 23.0517C212.644 22.6396 212.497 22.1883 212.147 21.9336L203.469 15.6287C202.685 15.0593 203.088 13.8197 204.057 13.8197H214.783C215.216 13.8197 215.6 13.5407 215.734 13.1287L219.049 2.92705Z" fill="#FFCC00"/>
</svg>
